<ttFont>
<head>
    <!-- Most of this table will be recalculated by the compiler -->
    <tableVersion value="1.0"/>
    <fontRevision value="1.002"/>
    <checkSumAdjustment value="0x4b6b7121"/>
    <magicNumber value="0x5f0f3cf5"/>
    <flags value="00000000 00000011"/>
    <unitsPerEm value="1000"/>
    <created value="Thu Jan 14 20:43:40 2016"/>
    <modified value="Thu Jan 14 20:43:43 2016"/>
    <xMin value="-75"/>
    <yMin value="-364"/>
    <xMax value="743"/>
    <yMax value="1137"/>
    <macStyle value="00000000 00000010"/>
    <lowestRecPPEM value="6"/>
    <fontDirectionHint value="2"/>
    <indexToLocFormat value="0"/>
    <glyphDataFormat value="0"/>
  </head>
    <TTGlyph name=".notdef" xMin="-7" yMin="-200" xMax="548" yMax="800">
      <contour>
        <pt x="8" y="-200" on="1"/>
        <pt x="-7" y="800" on="1"/>
        <pt x="533" y="800" on="1"/>
        <pt x="548" y="-200" on="1"/>
      </contour>
      <contour>
        <pt x="70" y="750" on="1"/>
        <pt x="269" y="360" on="1"/>
        <pt x="457" y="750" on="1"/>
      </contour>
      <contour>
        <pt x="480" y="676" on="1"/>
        <pt x="301" y="300" on="1"/>
        <pt x="492" y="-76" on="1"/>
      </contour>
      <contour>
        <pt x="60" y="-76" on="1"/>
        <pt x="240" y="300" on="1"/>
        <pt x="48" y="676" on="1"/>
      </contour>
      <contour>
        <pt x="271" y="240" on="1"/>
        <pt x="84" y="-150" on="1"/>
        <pt x="471" y="-150" on="1"/>
      </contour>
    </TTGlyph>
    <TTGlyph name="A" xMin="-11" yMin="-4" xMax="478" yMax="621">
      <contour>
        <pt x="368" y="-4" on="1"/>
        <pt x="366" y="39" on="0"/>
        <pt x="361" y="127" on="0"/>
        <pt x="359" y="171" on="1"/>
        <pt x="173" y="171" on="1"/>
        <pt x="155" y="128" on="0"/>
        <pt x="118" y="43" on="0"/>
        <pt x="101" y="0" on="1"/>
        <pt x="-11" y="0" on="1"/>
        <pt x="56" y="154" on="0"/>
        <pt x="201" y="467" on="0"/>
        <pt x="276" y="621" on="1"/>
        <pt x="429" y="621" on="1"/>
        <pt x="443" y="469" on="0"/>
        <pt x="468" y="159" on="0"/>
        <pt x="478" y="4" on="1"/>
      </contour>
      <contour>
        <pt x="330" y="526" on="1"/>
        <pt x="300" y="459" on="0"/>
        <pt x="239" y="322" on="0"/>
        <pt x="209" y="254" on="1"/>
        <pt x="355" y="254" on="1"/>
        <pt x="351" y="322" on="0"/>
        <pt x="342" y="459" on="0"/>
        <pt x="338" y="526" on="1"/>
      </contour>
    </TTGlyph>
    <TTGlyph name="AE" xMin="-30" yMin="0" xMax="602" yMax="620">
      <contour>
        <pt x="325" y="529" on="1"/>
        <pt x="292" y="459" on="0"/>
        <pt x="227" y="317" on="0"/>
        <pt x="194" y="247" on="1"/>
        <pt x="280" y="247" on="1"/>
        <pt x="335" y="529" on="1"/>
      </contour>
      <contour>
        <pt x="232" y="0" on="1"/>
        <pt x="265" y="167" on="1"/>
        <pt x="157" y="167" on="1"/>
        <pt x="138" y="125" on="0"/>
        <pt x="97" y="41" on="0"/>
        <pt x="78" y="0" on="1"/>
        <pt x="-30" y="0" on="1"/>
        <pt x="45" y="153" on="0"/>
        <pt x="202" y="466" on="0"/>
        <pt x="280" y="620" on="1"/>
        <pt x="602" y="620" on="1"/>
        <pt x="584" y="529" on="1"/>
        <pt x="429" y="529" on="1"/>
        <pt x="394" y="350" on="1"/>
        <pt x="520" y="350" on="1"/>
        <pt x="505" y="274" on="1"/>
        <pt x="379" y="274" on="1"/>
        <pt x="343" y="91" on="1"/>
        <pt x="503" y="91" on="1"/>
        <pt x="480" y="0" on="1"/>
      </contour>
    </TTGlyph>
    <TTGlyph name="AEacute" xMin="-30" yMin="0" xMax="602" yMax="896">
      <contour>
        <pt x="305" y="728" on="1"/>
        <pt x="329" y="742" on="0"/>
        <pt x="389" y="782" on="0"/>
        <pt x="450" y="827" on="0"/>
        <pt x="509" y="875" on="0"/>
        <pt x="532" y="896" on="1"/>
        <pt x="602" y="812" on="1"/>
        <pt x="575" y="793" on="0"/>
        <pt x="503" y="754" on="0"/>
        <pt x="428" y="720" on="0"/>
        <pt x="354" y="691" on="0"/>
        <pt x="325" y="681" on="1"/>
      </contour>
      <contour>
        <pt x="325" y="529" on="1"/>
        <pt x="292" y="459" on="0"/>
        <pt x="227" y="317" on="0"/>
        <pt x="194" y="247" on="1"/>
        <pt x="280" y="247" on="1"/>
        <pt x="335" y="529" on="1"/>
      </contour>
      <contour>
        <pt x="232" y="0" on="1"/>
        <pt x="265" y="167" on="1"/>
        <pt x="157" y="167" on="1"/>
        <pt x="138" y="125" on="0"/>
        <pt x="97" y="41" on="0"/>
        <pt x="78" y="0" on="1"/>
        <pt x="-30" y="0" on="1"/>
        <pt x="45" y="153" on="0"/>
        <pt x="202" y="466" on="0"/>
        <pt x="280" y="620" on="1"/>
        <pt x="602" y="620" on="1"/>
        <pt x="584" y="529" on="1"/>
        <pt x="429" y="529" on="1"/>
        <pt x="394" y="350" on="1"/>
        <pt x="520" y="350" on="1"/>
        <pt x="505" y="274" on="1"/>
        <pt x="379" y="274" on="1"/>
        <pt x="343" y="91" on="1"/>
        <pt x="503" y="91" on="1"/>
        <pt x="480" y="0" on="1"/>
      </contour>
    </TTGlyph>
    <TTGlyph name="Aacute" xMin="-11" yMin="-4" xMax="531" yMax="897">
      <contour>
        <pt x="234" y="729" on="1"/>
        <pt x="258" y="743" on="0"/>
        <pt x="318" y="783" on="0"/>
        <pt x="379" y="828" on="0"/>
        <pt x="438" y="876" on="0"/>
        <pt x="461" y="897" on="1"/>
        <pt x="531" y="813" on="1"/>
        <pt x="504" y="794" on="0"/>
        <pt x="432" y="755" on="0"/>
        <pt x="357" y="721" on="0"/>
        <pt x="283" y="692" on="0"/>
        <pt x="254" y="682" on="1"/>
      </contour>
      <contour>
        <pt x="368" y="-4" on="1"/>
        <pt x="366" y="39" on="0"/>
        <pt x="361" y="127" on="0"/>
        <pt x="359" y="171" on="1"/>
        <pt x="173" y="171" on="1"/>
        <pt x="155" y="128" on="0"/>
        <pt x="118" y="43" on="0"/>
        <pt x="101" y="0" on="1"/>
        <pt x="-11" y="0" on="1"/>
        <pt x="56" y="154" on="0"/>
        <pt x="201" y="467" on="0"/>
        <pt x="276" y="621" on="1"/>
        <pt x="429" y="621" on="1"/>
        <pt x="443" y="469" on="0"/>
        <pt x="468" y="159" on="0"/>
        <pt x="478" y="4" on="1"/>
      </contour>
      <contour>
        <pt x="330" y="526" on="1"/>
        <pt x="300" y="459" on="0"/>
        <pt x="239" y="322" on="0"/>
        <pt x="209" y="254" on="1"/>
        <pt x="355" y="254" on="1"/>
        <pt x="351" y="322" on="0"/>
        <pt x="342" y="459" on="0"/>
        <pt x="338" y="526" on="1"/>
      </contour>
    </TTGlyph>
    <TTGlyph name="Abreve" xMin="-11" yMin="-4" xMax="591" yMax="877">
      <contour>
        <pt x="530" y="871" on="1"/>
        <pt x="591" y="834" on="1"/>
        <pt x="537" y="765" on="0"/>
        <pt x="423" y="687" on="0"/>
        <pt x="367" y="687" on="1"/>
        <pt x="314" y="687" on="0"/>
        <pt x="227" y="761" on="0"/>
        <pt x="199" y="834" on="1"/>
        <pt x="279" y="877" on="1"/>
        <pt x="303" y="822" on="0"/>
        <pt x="354" y="771" on="0"/>
        <pt x="390" y="771" on="1"/>
        <pt x="424" y="771" on="0"/>
        <pt x="490" y="824" on="0"/>
      </contour>
      <contour>
        <pt x="368" y="-4" on="1"/>
        <pt x="366" y="39" on="0"/>
        <pt x="361" y="127" on="0"/>
        <pt x="359" y="171" on="1"/>
        <pt x="173" y="171" on="1"/>
        <pt x="155" y="128" on="0"/>
        <pt x="118" y="43" on="0"/>
        <pt x="101" y="0" on="1"/>
        <pt x="-11" y="0" on="1"/>
        <pt x="56" y="154" on="0"/>
        <pt x="201" y="467" on="0"/>
        <pt x="276" y="621" on="1"/>
        <pt x="429" y="621" on="1"/>
        <pt x="443" y="469" on="0"/>
        <pt x="468" y="159" on="0"/>
        <pt x="478" y="4" on="1"/>
      </contour>
      <contour>
        <pt x="330" y="526" on="1"/>
        <pt x="300" y="459" on="0"/>
        <pt x="239" y="322" on="0"/>
        <pt x="209" y="254" on="1"/>
        <pt x="355" y="254" on="1"/>
        <pt x="351" y="322" on="0"/>
        <pt x="342" y="459" on="0"/>
        <pt x="338" y="526" on="1"/>
      </contour>
    </TTGlyph>
    <TTGlyph name="Acircumflex" xMin="-11" yMin="-4" xMax="561" yMax="885">
      <contour>
        <pt x="488" y="680" on="1"/>
        <pt x="390" y="786" on="1"/>
        <pt x="240" y="684" on="1"/>
        <pt x="192" y="739" on="1"/>
        <pt x="406" y="885" on="1"/>
        <pt x="412" y="885" on="1"/>
        <pt x="561" y="736" on="1"/>
      </contour>
      <contour>
        <pt x="368" y="-4" on="1"/>
        <pt x="366" y="39" on="0"/>
        <pt x="361" y="127" on="0"/>
        <pt x="359" y="171" on="1"/>
        <pt x="173" y="171" on="1"/>
        <pt x="155" y="128" on="0"/>
        <pt x="118" y="43" on="0"/>
        <pt x="101" y="0" on="1"/>
        <pt x="-11" y="0" on="1"/>
        <pt x="56" y="154" on="0"/>
        <pt x="201" y="467" on="0"/>
        <pt x="276" y="621" on="1"/>
        <pt x="429" y="621" on="1"/>
        <pt x="443" y="469" on="0"/>
        <pt x="468" y="159" on="0"/>
        <pt x="478" y="4" on="1"/>
      </contour>
      <contour>
        <pt x="330" y="526" on="1"/>
        <pt x="300" y="459" on="0"/>
        <pt x="239" y="322" on="0"/>
        <pt x="209" y="254" on="1"/>
        <pt x="355" y="254" on="1"/>
        <pt x="351" y="322" on="0"/>
        <pt x="342" y="459" on="0"/>
        <pt x="338" y="526" on="1"/>
      </contour>
    </TTGlyph>
    <TTGlyph name="Adieresis" xMin="-11" yMin="-4" xMax="570" yMax="836">
      <contour>
        <pt x="527" y="700" on="1"/>
        <pt x="414" y="699" on="1"/>
        <pt x="447" y="833" on="1"/>
        <pt x="570" y="836" on="1"/>
      </contour>
      <contour>
        <pt x="308" y="698" on="1"/>
        <pt x="194" y="697" on="1"/>
        <pt x="227" y="832" on="1"/>
        <pt x="350" y="833" on="1"/>
      </contour>
      <contour>
        <pt x="368" y="-4" on="1"/>
        <pt x="366" y="39" on="0"/>
        <pt x="361" y="127" on="0"/>
        <pt x="359" y="171" on="1"/>
        <pt x="173" y="171" on="1"/>
        <pt x="155" y="128" on="0"/>
        <pt x="118" y="43" on="0"/>
        <pt x="101" y="0" on="1"/>
        <pt x="-11" y="0" on="1"/>
        <pt x="56" y="154" on="0"/>
        <pt x="201" y="467" on="0"/>
        <pt x="276" y="621" on="1"/>
        <pt x="429" y="621" on="1"/>
        <pt x="443" y="469" on="0"/>
        <pt x="468" y="159" on="0"/>
        <pt x="478" y="4" on="1"/>
      </contour>
      <contour>
        <pt x="330" y="526" on="1"/>
        <pt x="300" y="459" on="0"/>
        <pt x="239" y="322" on="0"/>
        <pt x="209" y="254" on="1"/>
        <pt x="355" y="254" on="1"/>
        <pt x="351" y="322" on="0"/>
        <pt x="342" y="459" on="0"/>
        <pt x="338" y="526" on="1"/>
      </contour>
    </TTGlyph>
    <TTGlyph name="Agrave" xMin="-11" yMin="-4" xMax="512" yMax="901">
      <contour>
        <pt x="512" y="722" on="1"/>
        <pt x="488" y="678" on="1"/>
        <pt x="462" y="688" on="0"/>
        <pt x="396" y="721" on="0"/>
        <pt x="328" y="758" on="0"/>
        <pt x="262" y="798" on="0"/>
        <pt x="237" y="816" on="1"/>
        <pt x="303" y="901" on="1"/>
        <pt x="325" y="879" on="0"/>
        <pt x="379" y="829" on="0"/>
        <pt x="435" y="782" on="0"/>
        <pt x="489" y="738" on="0"/>
      </contour>
      <contour>
        <pt x="368" y="-4" on="1"/>
        <pt x="366" y="39" on="0"/>
        <pt x="361" y="127" on="0"/>
        <pt x="359" y="171" on="1"/>
        <pt x="173" y="171" on="1"/>
        <pt x="155" y="128" on="0"/>
        <pt x="118" y="43" on="0"/>
        <pt x="101" y="0" on="1"/>
        <pt x="-11" y="0" on="1"/>
        <pt x="56" y="154" on="0"/>
        <pt x="201" y="467" on="0"/>
        <pt x="276" y="621" on="1"/>
        <pt x="429" y="621" on="1"/>
        <pt x="443" y="469" on="0"/>
        <pt x="468" y="159" on="0"/>
        <pt x="478" y="4" on="1"/>
      </contour>
      <contour>
        <pt x="330" y="526" on="1"/>
        <pt x="300" y="459" on="0"/>
        <pt x="239" y="322" on="0"/>
        <pt x="209" y="254" on="1"/>
        <pt x="355" y="254" on="1"/>
        <pt x="351" y="322" on="0"/>
        <pt x="342" y="459" on="0"/>
        <pt x="338" y="526" on="1"/>
      </contour>
    </TTGlyph>
    <TTGlyph name="Amacron" xMin="-11" yMin="-4" xMax="564" yMax="812">
      <contour>
        <pt x="564" y="812" on="1"/>
        <pt x="547" y="723" on="1"/>
        <pt x="201" y="723" on="1"/>
        <pt x="219" y="812" on="1"/>
      </contour>
      <contour>
        <pt x="368" y="-4" on="1"/>
        <pt x="366" y="39" on="0"/>
        <pt x="361" y="127" on="0"/>
        <pt x="359" y="171" on="1"/>
        <pt x="173" y="171" on="1"/>
        <pt x="155" y="128" on="0"/>
        <pt x="118" y="43" on="0"/>
        <pt x="101" y="0" on="1"/>
        <pt x="-11" y="0" on="1"/>
        <pt x="56" y="154" on="0"/>
        <pt x="201" y="467" on="0"/>
        <pt x="276" y="621" on="1"/>
        <pt x="429" y="621" on="1"/>
        <pt x="443" y="469" on="0"/>
        <pt x="468" y="159" on="0"/>
        <pt x="478" y="4" on="1"/>
      </contour>
      <contour>
        <pt x="330" y="526" on="1"/>
        <pt x="300" y="459" on="0"/>
        <pt x="239" y="322" on="0"/>
        <pt x="209" y="254" on="1"/>
        <pt x="355" y="254" on="1"/>
        <pt x="351" y="322" on="0"/>
        <pt x="342" y="459" on="0"/>
        <pt x="338" y="526" on="1"/>
      </contour>
    </TTGlyph>
    <TTGlyph name="Aogonek" xMin="-11" yMin="-211" xMax="478" yMax="621">
      <contour>
        <pt x="296" y="-211" on="1"/>
        <pt x="249" y="-211" on="0"/>
        <pt x="201" y="-168" on="0"/>
        <pt x="200" y="-137" on="1"/>
        <pt x="200" y="-136" on="1"/>
        <pt x="200" y="-100" on="0"/>
        <pt x="277" y="-20" on="0"/>
        <pt x="367" y="17" on="1"/>
        <pt x="365" y="55" on="0"/>
        <pt x="361" y="132" on="0"/>
        <pt x="359" y="171" on="1"/>
        <pt x="173" y="171" on="1"/>
        <pt x="155" y="128" on="0"/>
        <pt x="118" y="43" on="0"/>
        <pt x="101" y="0" on="1"/>
        <pt x="-11" y="0" on="1"/>
        <pt x="56" y="154" on="0"/>
        <pt x="201" y="467" on="0"/>
        <pt x="276" y="621" on="1"/>
        <pt x="429" y="621" on="1"/>
        <pt x="443" y="469" on="0"/>
        <pt x="468" y="159" on="0"/>
        <pt x="478" y="4" on="1"/>
        <pt x="380" y="-23" on="0"/>
        <pt x="298" y="-81" on="0"/>
        <pt x="298" y="-106" on="1"/>
        <pt x="298" y="-120" on="0"/>
        <pt x="320" y="-138" on="0"/>
        <pt x="344" y="-138" on="1"/>
        <pt x="360" y="-138" on="0"/>
        <pt x="405" y="-129" on="0"/>
        <pt x="434" y="-119" on="1"/>
        <pt x="446" y="-168" on="1"/>
        <pt x="400" y="-190" on="0"/>
        <pt x="325" y="-211" on="0"/>
      </contour>
      <contour>
        <pt x="330" y="526" on="1"/>
        <pt x="300" y="459" on="0"/>
        <pt x="239" y="322" on="0"/>
        <pt x="209" y="254" on="1"/>
        <pt x="355" y="254" on="1"/>
        <pt x="351" y="322" on="0"/>
        <pt x="342" y="459" on="0"/>
        <pt x="338" y="526" on="1"/>
      </contour>
    </TTGlyph>
    <TTGlyph name="Aring" xMin="-11" yMin="-4" xMax="518" yMax="888">
      <contour>
        <pt x="394" y="888" on="1"/>
        <pt x="450" y="888" on="0"/>
        <pt x="518" y="829" on="0"/>
        <pt x="518" y="789" on="1"/>
        <pt x="518" y="743" on="0"/>
        <pt x="437" y="674" on="0"/>
        <pt x="375" y="674" on="1"/>
        <pt x="318" y="674" on="0"/>
        <pt x="250" y="733" on="0"/>
        <pt x="250" y="774" on="1"/>
        <pt x="250" y="820" on="0"/>
        <pt x="331" y="888" on="0"/>
      </contour>
      <contour>
        <pt x="368" y="-4" on="1"/>
        <pt x="366" y="39" on="0"/>
        <pt x="361" y="127" on="0"/>
        <pt x="359" y="171" on="1"/>
        <pt x="173" y="171" on="1"/>
        <pt x="155" y="128" on="0"/>
        <pt x="118" y="43" on="0"/>
        <pt x="101" y="0" on="1"/>
        <pt x="-11" y="0" on="1"/>
        <pt x="56" y="154" on="0"/>
        <pt x="201" y="467" on="0"/>
        <pt x="276" y="621" on="1"/>
        <pt x="429" y="621" on="1"/>
        <pt x="443" y="469" on="0"/>
        <pt x="468" y="159" on="0"/>
        <pt x="478" y="4" on="1"/>
      </contour>
      <contour>
        <pt x="330" y="526" on="1"/>
        <pt x="300" y="459" on="0"/>
        <pt x="239" y="322" on="0"/>
        <pt x="209" y="254" on="1"/>
        <pt x="355" y="254" on="1"/>
        <pt x="351" y="322" on="0"/>
        <pt x="342" y="459" on="0"/>
        <pt x="338" y="526" on="1"/>
      </contour>
    </TTGlyph>
    <TTGlyph name="Aringacute" xMin="-11" yMin="-4" xMax="585" yMax="1137">
      <contour>
        <pt x="288" y="969" on="1"/>
        <pt x="312" y="983" on="0"/>
        <pt x="372" y="1023" on="0"/>
        <pt x="433" y="1068" on="0"/>
        <pt x="492" y="1116" on="0"/>
        <pt x="515" y="1137" on="1"/>
        <pt x="585" y="1053" on="1"/>
        <pt x="558" y="1034" on="0"/>
        <pt x="486" y="995" on="0"/>
        <pt x="411" y="961" on="0"/>
        <pt x="337" y="932" on="0"/>
        <pt x="308" y="922" on="1"/>
      </contour>
      <contour>
        <pt x="394" y="888" on="1"/>
        <pt x="450" y="888" on="0"/>
        <pt x="518" y="829" on="0"/>
        <pt x="518" y="789" on="1"/>
        <pt x="518" y="743" on="0"/>
        <pt x="437" y="674" on="0"/>
        <pt x="375" y="674" on="1"/>
        <pt x="318" y="674" on="0"/>
        <pt x="250" y="733" on="0"/>
        <pt x="250" y="774" on="1"/>
        <pt x="250" y="820" on="0"/>
        <pt x="331" y="888" on="0"/>
      </contour>
      <contour>
        <pt x="368" y="-4" on="1"/>
        <pt x="366" y="39" on="0"/>
        <pt x="361" y="127" on="0"/>
        <pt x="359" y="171" on="1"/>
        <pt x="173" y="171" on="1"/>
        <pt x="155" y="128" on="0"/>
        <pt x="118" y="43" on="0"/>
        <pt x="101" y="0" on="1"/>
        <pt x="-11" y="0" on="1"/>
        <pt x="56" y="154" on="0"/>
        <pt x="201" y="467" on="0"/>
        <pt x="276" y="621" on="1"/>
        <pt x="429" y="621" on="1"/>
        <pt x="443" y="469" on="0"/>
        <pt x="468" y="159" on="0"/>
        <pt x="478" y="4" on="1"/>
      </contour>
      <contour>
        <pt x="330" y="526" on="1"/>
        <pt x="300" y="459" on="0"/>
        <pt x="239" y="322" on="0"/>
        <pt x="209" y="254" on="1"/>
        <pt x="355" y="254" on="1"/>
        <pt x="351" y="322" on="0"/>
        <pt x="342" y="459" on="0"/>
        <pt x="338" y="526" on="1"/>
      </contour>
    </TTGlyph>
    <TTGlyph name="Atilde" xMin="-11" yMin="-4" xMax="599" yMax="865">
      <contour>
        <pt x="463" y="773" on="1"/>
        <pt x="479" y="773" on="0"/>
        <pt x="521" y="819" on="0"/>
        <pt x="547" y="859" on="1"/>
        <pt x="599" y="829" on="1"/>
        <pt x="562" y="768" on="0"/>
        <pt x="482" y="691" on="0"/>
        <pt x="442" y="691" on="1"/>
        <pt x="417" y="691" on="0"/>
        <pt x="379" y="720" on="0"/>
        <pt x="347" y="755" on="0"/>
        <pt x="319" y="784" on="0"/>
        <pt x="306" y="784" on="1"/>
        <pt x="290" y="784" on="0"/>
        <pt x="248" y="739" on="0"/>
        <pt x="223" y="699" on="1"/>
        <pt x="170" y="729" on="1"/>
        <pt x="206" y="790" on="0"/>
        <pt x="287" y="865" on="0"/>
        <pt x="327" y="865" on="1"/>
        <pt x="352" y="865" on="0"/>
        <pt x="390" y="836" on="0"/>
        <pt x="422" y="802" on="0"/>
        <pt x="449" y="773" on="0"/>
      </contour>
      <contour>
        <pt x="368" y="-4" on="1"/>
        <pt x="366" y="39" on="0"/>
        <pt x="361" y="127" on="0"/>
        <pt x="359" y="171" on="1"/>
        <pt x="173" y="171" on="1"/>
        <pt x="155" y="128" on="0"/>
        <pt x="118" y="43" on="0"/>
        <pt x="101" y="0" on="1"/>
        <pt x="-11" y="0" on="1"/>
        <pt x="56" y="154" on="0"/>
        <pt x="201" y="467" on="0"/>
        <pt x="276" y="621" on="1"/>
        <pt x="429" y="621" on="1"/>
        <pt x="443" y="469" on="0"/>
        <pt x="468" y="159" on="0"/>
        <pt x="478" y="4" on="1"/>
      </contour>
      <contour>
        <pt x="330" y="526" on="1"/>
        <pt x="300" y="459" on="0"/>
        <pt x="239" y="322" on="0"/>
        <pt x="209" y="254" on="1"/>
        <pt x="355" y="254" on="1"/>
        <pt x="351" y="322" on="0"/>
        <pt x="342" y="459" on="0"/>
        <pt x="338" y="526" on="1"/>
      </contour>
    </TTGlyph>
    <TTGlyph name="B" xMin="39" yMin="-7" xMax="525" yMax="627">
      <contour>
        <pt x="167" y="-7" on="1"/>
        <pt x="138" y="-7" on="0"/>
        <pt x="74" y="-3" on="0"/>
        <pt x="39" y="1" on="1"/>
        <pt x="158" y="616" on="1"/>
        <pt x="196" y="622" on="0"/>
        <pt x="265" y="627" on="0"/>
        <pt x="294" y="627" on="1"/>
        <pt x="416" y="627" on="0"/>
        <pt x="525" y="547" on="0"/>
        <pt x="525" y="487" on="1"/>
        <pt x="525" y="434" on="0"/>
        <pt x="450" y="346" on="0"/>
        <pt x="383" y="321" on="1"/>
        <pt x="434" y="307" on="0"/>
        <pt x="493" y="238" on="0"/>
        <pt x="493" y="192" on="1"/>
        <pt x="493" y="155" on="0"/>
        <pt x="457" y="83" on="0"/>
        <pt x="379" y="27" on="0"/>
        <pt x="255" y="-7" on="0"/>
      </contour>
      <contour>
        <pt x="296" y="539" on="1"/>
        <pt x="286" y="539" on="0"/>
        <pt x="265" y="538" on="0"/>
        <pt x="253" y="537" on="1"/>
        <pt x="215" y="339" on="1"/>
        <pt x="320" y="346" on="0"/>
        <pt x="417" y="418" on="0"/>
        <pt x="417" y="463" on="1"/>
        <pt x="417" y="497" on="0"/>
        <pt x="356" y="539" on="0"/>
      </contour>
      <contour>
        <pt x="226" y="84" on="1"/>
        <pt x="307" y="84" on="0"/>
        <pt x="386" y="144" on="0"/>
        <pt x="386" y="187" on="1"/>
        <pt x="386" y="227" on="0"/>
        <pt x="318" y="277" on="0"/>
        <pt x="244" y="277" on="1"/>
        <pt x="234" y="277" on="0"/>
        <pt x="213" y="276" on="0"/>
        <pt x="203" y="275" on="1"/>
        <pt x="166" y="88" on="1"/>
        <pt x="182" y="86" on="0"/>
        <pt x="213" y="84" on="0"/>
      </contour>
    </TTGlyph>
    <TTGlyph name="C" xMin="58" yMin="-14" xMax="526" yMax="633">
      <contour>
        <pt x="376" y="633" on="1"/>
        <pt x="457" y="633" on="0"/>
        <pt x="526" y="530" on="0"/>
        <pt x="526" y="428" on="1"/>
        <pt x="526" y="420" on="0"/>
        <pt x="526" y="402" on="0"/>
        <pt x="525" y="393" on="1"/>
        <pt x="420" y="391" on="1"/>
        <pt x="420" y="418" on="1"/>
        <pt x="420" y="478" on="0"/>
        <pt x="393" y="535" on="0"/>
        <pt x="353" y="535" on="1"/>
        <pt x="313" y="535" on="0"/>
        <pt x="245" y="482" on="0"/>
        <pt x="197" y="398" on="0"/>
        <pt x="169" y="294" on="0"/>
        <pt x="169" y="243" on="1"/>
        <pt x="169" y="165" on="0"/>
        <pt x="237" y="87" on="0"/>
        <pt x="307" y="87" on="1"/>
        <pt x="339" y="87" on="0"/>
        <pt x="420" y="104" on="0"/>
        <pt x="468" y="120" on="1"/>
        <pt x="457" y="21" on="1"/>
        <pt x="406" y="4" on="0"/>
        <pt x="316" y="-14" on="0"/>
        <pt x="278" y="-14" on="1"/>
        <pt x="171" y="-14" on="0"/>
        <pt x="58" y="111" on="0"/>
        <pt x="58" y="226" on="1"/>
        <pt x="58" y="305" on="0"/>
        <pt x="108" y="453" on="0"/>
        <pt x="194" y="565" on="0"/>
        <pt x="310" y="633" on="0"/>
      </contour>
    </TTGlyph>
    <TTGlyph name="Cacute" xMin="58" yMin="-14" xMax="542" yMax="909">
      <contour>
        <pt x="245" y="741" on="1"/>
        <pt x="269" y="755" on="0"/>
        <pt x="329" y="795" on="0"/>
        <pt x="390" y="840" on="0"/>
        <pt x="449" y="888" on="0"/>
        <pt x="472" y="909" on="1"/>
        <pt x="542" y="825" on="1"/>
        <pt x="515" y="806" on="0"/>
        <pt x="443" y="767" on="0"/>
        <pt x="368" y="733" on="0"/>
        <pt x="294" y="704" on="0"/>
        <pt x="265" y="694" on="1"/>
      </contour>
      <contour>
        <pt x="376" y="633" on="1"/>
        <pt x="457" y="633" on="0"/>
        <pt x="526" y="530" on="0"/>
        <pt x="526" y="428" on="1"/>
        <pt x="526" y="420" on="0"/>
        <pt x="526" y="402" on="0"/>
        <pt x="525" y="393" on="1"/>
        <pt x="420" y="391" on="1"/>
        <pt x="420" y="418" on="1"/>
        <pt x="420" y="478" on="0"/>
        <pt x="393" y="535" on="0"/>
        <pt x="353" y="535" on="1"/>
        <pt x="313" y="535" on="0"/>
        <pt x="245" y="482" on="0"/>
        <pt x="197" y="398" on="0"/>
        <pt x="169" y="294" on="0"/>
        <pt x="169" y="243" on="1"/>
        <pt x="169" y="165" on="0"/>
        <pt x="237" y="87" on="0"/>
        <pt x="307" y="87" on="1"/>
        <pt x="339" y="87" on="0"/>
        <pt x="420" y="104" on="0"/>
        <pt x="468" y="120" on="1"/>
        <pt x="457" y="21" on="1"/>
        <pt x="406" y="4" on="0"/>
        <pt x="316" y="-14" on="0"/>
        <pt x="278" y="-14" on="1"/>
        <pt x="171" y="-14" on="0"/>
        <pt x="58" y="111" on="0"/>
        <pt x="58" y="226" on="1"/>
        <pt x="58" y="305" on="0"/>
        <pt x="108" y="453" on="0"/>
        <pt x="194" y="565" on="0"/>
        <pt x="310" y="633" on="0"/>
      </contour>
    </TTGlyph>
    <TTGlyph name="Ccaron" xMin="58" yMin="-14" xMax="588" yMax="894">
      <contour>
        <pt x="375" y="689" on="1"/>
        <pt x="368" y="689" on="1"/>
        <pt x="219" y="838" on="1"/>
        <pt x="292" y="894" on="1"/>
        <pt x="390" y="789" on="1"/>
        <pt x="540" y="890" on="1"/>
        <pt x="588" y="836" on="1"/>
      </contour>
      <contour>
        <pt x="376" y="633" on="1"/>
        <pt x="457" y="633" on="0"/>
        <pt x="526" y="530" on="0"/>
        <pt x="526" y="428" on="1"/>
        <pt x="526" y="420" on="0"/>
        <pt x="526" y="402" on="0"/>
        <pt x="525" y="393" on="1"/>
        <pt x="420" y="391" on="1"/>
        <pt x="420" y="418" on="1"/>
        <pt x="420" y="478" on="0"/>
        <pt x="393" y="535" on="0"/>
        <pt x="353" y="535" on="1"/>
        <pt x="313" y="535" on="0"/>
        <pt x="245" y="482" on="0"/>
        <pt x="197" y="398" on="0"/>
        <pt x="169" y="294" on="0"/>
        <pt x="169" y="243" on="1"/>
        <pt x="169" y="165" on="0"/>
        <pt x="237" y="87" on="0"/>
        <pt x="307" y="87" on="1"/>
        <pt x="339" y="87" on="0"/>
        <pt x="420" y="104" on="0"/>
        <pt x="468" y="120" on="1"/>
        <pt x="457" y="21" on="1"/>
        <pt x="406" y="4" on="0"/>
        <pt x="316" y="-14" on="0"/>
        <pt x="278" y="-14" on="1"/>
        <pt x="171" y="-14" on="0"/>
        <pt x="58" y="111" on="0"/>
        <pt x="58" y="226" on="1"/>
        <pt x="58" y="305" on="0"/>
        <pt x="108" y="453" on="0"/>
        <pt x="194" y="565" on="0"/>
        <pt x="310" y="633" on="0"/>
      </contour>
    </TTGlyph>
    <TTGlyph name="Ccedilla" xMin="58" yMin="-188" xMax="526" yMax="633">
      <contour>
        <pt x="367" y="-186" on="1"/>
        <pt x="274" y="-188" on="1"/>
        <pt x="275" y="-180" on="0"/>
        <pt x="275" y="-165" on="0"/>
        <pt x="275" y="-158" on="1"/>
        <pt x="275" y="-109" on="0"/>
        <pt x="253" y="-66" on="0"/>
        <pt x="234" y="-66" on="1"/>
        <pt x="212" y="-66" on="0"/>
        <pt x="169" y="-117" on="0"/>
        <pt x="147" y="-163" on="1"/>
        <pt x="92" y="-145" on="1"/>
        <pt x="115" y="-89" on="0"/>
        <pt x="167" y="-18" on="0"/>
        <pt x="196" y="-3" on="1"/>
        <pt x="129" y="18" on="0"/>
        <pt x="58" y="135" on="0"/>
        <pt x="58" y="226" on="1"/>
        <pt x="58" y="305" on="0"/>
        <pt x="108" y="453" on="0"/>
        <pt x="194" y="565" on="0"/>
        <pt x="310" y="633" on="0"/>
        <pt x="376" y="633" on="1"/>
        <pt x="457" y="633" on="0"/>
        <pt x="526" y="530" on="0"/>
        <pt x="526" y="428" on="1"/>
        <pt x="526" y="420" on="0"/>
        <pt x="526" y="402" on="0"/>
        <pt x="525" y="393" on="1"/>
        <pt x="420" y="391" on="1"/>
        <pt x="420" y="418" on="1"/>
        <pt x="420" y="478" on="0"/>
        <pt x="393" y="535" on="0"/>
        <pt x="353" y="535" on="1"/>
        <pt x="313" y="535" on="0"/>
        <pt x="245" y="482" on="0"/>
        <pt x="197" y="398" on="0"/>
        <pt x="169" y="294" on="0"/>
        <pt x="169" y="243" on="1"/>
        <pt x="169" y="165" on="0"/>
        <pt x="237" y="87" on="0"/>
        <pt x="307" y="87" on="1"/>
        <pt x="339" y="87" on="0"/>
        <pt x="420" y="104" on="0"/>
        <pt x="468" y="120" on="1"/>
        <pt x="457" y="21" on="1"/>
        <pt x="417" y="8" on="0"/>
        <pt x="345" y="-9" on="0"/>
        <pt x="313" y="-12" on="1"/>
        <pt x="338" y="-31" on="0"/>
        <pt x="368" y="-107" on="0"/>
        <pt x="368" y="-162" on="1"/>
        <pt x="368" y="-167" on="0"/>
        <pt x="368" y="-180" on="0"/>
      </contour>
    </TTGlyph>
    <TTGlyph name="Cdotaccent" xMin="58" yMin="-14" xMax="526" yMax="846">
      <contour>
        <pt x="429" y="711" on="1"/>
        <pt x="313" y="710" on="1"/>
        <pt x="346" y="845" on="1"/>
        <pt x="472" y="846" on="1"/>
      </contour>
      <contour>
        <pt x="376" y="633" on="1"/>
        <pt x="457" y="633" on="0"/>
        <pt x="526" y="530" on="0"/>
        <pt x="526" y="428" on="1"/>
        <pt x="526" y="420" on="0"/>
        <pt x="526" y="402" on="0"/>
        <pt x="525" y="393" on="1"/>
        <pt x="420" y="391" on="1"/>
        <pt x="420" y="418" on="1"/>
        <pt x="420" y="478" on="0"/>
        <pt x="393" y="535" on="0"/>
        <pt x="353" y="535" on="1"/>
        <pt x="313" y="535" on="0"/>
        <pt x="245" y="482" on="0"/>
        <pt x="197" y="398" on="0"/>
        <pt x="169" y="294" on="0"/>
        <pt x="169" y="243" on="1"/>
        <pt x="169" y="165" on="0"/>
        <pt x="237" y="87" on="0"/>
        <pt x="307" y="87" on="1"/>
        <pt x="339" y="87" on="0"/>
        <pt x="420" y="104" on="0"/>
        <pt x="468" y="120" on="1"/>
        <pt x="457" y="21" on="1"/>
        <pt x="406" y="4" on="0"/>
        <pt x="316" y="-14" on="0"/>
        <pt x="278" y="-14" on="1"/>
        <pt x="171" y="-14" on="0"/>
        <pt x="58" y="111" on="0"/>
        <pt x="58" y="226" on="1"/>
        <pt x="58" y="305" on="0"/>
        <pt x="108" y="453" on="0"/>
        <pt x="194" y="565" on="0"/>
        <pt x="310" y="633" on="0"/>
      </contour>
    </TTGlyph>
    <TTGlyph name="D" xMin="34" yMin="-6" xMax="528" yMax="627">
      <contour>
        <pt x="528" y="387" on="1"/>
        <pt x="528" y="311" on="0"/>
        <pt x="483" y="168" on="0"/>
        <pt x="387" y="59" on="0"/>
        <pt x="236" y="-6" on="0"/>
        <pt x="130" y="-6" on="1"/>
        <pt x="108" y="-6" on="0"/>
        <pt x="59" y="-2" on="0"/>
        <pt x="34" y="1" on="1"/>
        <pt x="153" y="617" on="1"/>
        <pt x="185" y="622" on="0"/>
        <pt x="244" y="627" on="0"/>
        <pt x="270" y="627" on="1"/>
        <pt x="399" y="627" on="0"/>
        <pt x="528" y="505" on="0"/>
      </contour>
      <contour>
        <pt x="180" y="87" on="1"/>
        <pt x="239" y="87" on="0"/>
        <pt x="329" y="134" on="0"/>
        <pt x="388" y="214" on="0"/>
        <pt x="417" y="319" on="0"/>
        <pt x="417" y="376" on="1"/>
        <pt x="417" y="455" on="0"/>
        <pt x="347" y="535" on="0"/>
        <pt x="275" y="535" on="1"/>
        <pt x="268" y="535" on="0"/>
        <pt x="254" y="535" on="0"/>
        <pt x="247" y="534" on="1"/>
        <pt x="161" y="88" on="1"/>
        <pt x="165" y="87" on="0"/>
        <pt x="176" y="87" on="0"/>
      </contour>
    </TTGlyph>
    <TTGlyph name="Dcaron" xMin="34" yMin="-6" xMax="576" yMax="888">
      <contour>
        <pt x="363" y="683" on="1"/>
        <pt x="356" y="683" on="1"/>
        <pt x="207" y="832" on="1"/>
        <pt x="280" y="888" on="1"/>
        <pt x="378" y="783" on="1"/>
        <pt x="528" y="884" on="1"/>
        <pt x="576" y="830" on="1"/>
      </contour>
      <contour>
        <pt x="528" y="387" on="1"/>
        <pt x="528" y="311" on="0"/>
        <pt x="483" y="168" on="0"/>
        <pt x="387" y="59" on="0"/>
        <pt x="236" y="-6" on="0"/>
        <pt x="130" y="-6" on="1"/>
        <pt x="108" y="-6" on="0"/>
        <pt x="59" y="-2" on="0"/>
        <pt x="34" y="1" on="1"/>
        <pt x="153" y="617" on="1"/>
        <pt x="185" y="622" on="0"/>
        <pt x="244" y="627" on="0"/>
        <pt x="270" y="627" on="1"/>
        <pt x="399" y="627" on="0"/>
        <pt x="528" y="505" on="0"/>
      </contour>
      <contour>
        <pt x="180" y="87" on="1"/>
        <pt x="239" y="87" on="0"/>
        <pt x="329" y="134" on="0"/>
        <pt x="388" y="214" on="0"/>
        <pt x="417" y="319" on="0"/>
        <pt x="417" y="376" on="1"/>
        <pt x="417" y="455" on="0"/>
        <pt x="347" y="535" on="0"/>
        <pt x="275" y="535" on="1"/>
        <pt x="268" y="535" on="0"/>
        <pt x="254" y="535" on="0"/>
        <pt x="247" y="534" on="1"/>
        <pt x="161" y="88" on="1"/>
        <pt x="165" y="87" on="0"/>
        <pt x="176" y="87" on="0"/>
      </contour>
    </TTGlyph>
    <TTGlyph name="Dcroat" xMin="24" yMin="-6" xMax="528" yMax="627">
      <contour>
        <pt x="130" y="-6" on="1"/>
        <pt x="108" y="-6" on="0"/>
        <pt x="59" y="-2" on="0"/>
        <pt x="34" y="1" on="1"/>
        <pt x="87" y="275" on="1"/>
        <pt x="24" y="275" on="1"/>
        <pt x="39" y="352" on="1"/>
        <pt x="102" y="352" on="1"/>
        <pt x="153" y="617" on="1"/>
        <pt x="185" y="622" on="0"/>
        <pt x="244" y="627" on="0"/>
        <pt x="270" y="627" on="1"/>
        <pt x="399" y="627" on="0"/>
        <pt x="528" y="505" on="0"/>
        <pt x="528" y="387" on="1"/>
        <pt x="528" y="311" on="0"/>
        <pt x="483" y="168" on="0"/>
        <pt x="387" y="59" on="0"/>
        <pt x="236" y="-6" on="0"/>
      </contour>
      <contour>
        <pt x="180" y="87" on="1"/>
        <pt x="239" y="87" on="0"/>
        <pt x="329" y="134" on="0"/>
        <pt x="388" y="214" on="0"/>
        <pt x="417" y="319" on="0"/>
        <pt x="417" y="376" on="1"/>
        <pt x="417" y="455" on="0"/>
        <pt x="347" y="535" on="0"/>
        <pt x="275" y="535" on="1"/>
        <pt x="268" y="535" on="0"/>
        <pt x="254" y="535" on="0"/>
        <pt x="247" y="534" on="1"/>
        <pt x="212" y="352" on="1"/>
        <pt x="324" y="352" on="1"/>
        <pt x="304" y="275" on="1"/>
        <pt x="197" y="275" on="1"/>
        <pt x="161" y="88" on="1"/>
        <pt x="165" y="87" on="0"/>
        <pt x="176" y="87" on="0"/>
      </contour>
    </TTGlyph>
    <TTGlyph name="E" xMin="48" yMin="0" xMax="548" yMax="620">
      <contour>
        <pt x="450" y="93" on="1"/>
        <pt x="425" y="0" on="1"/>
        <pt x="48" y="0" on="1"/>
        <pt x="168" y="620" on="1"/>
        <pt x="548" y="620" on="1"/>
        <pt x="530" y="527" on="1"/>
        <pt x="261" y="527" on="1"/>
        <pt x="227" y="352" on="1"/>
        <pt x="455" y="352" on="1"/>
        <pt x="439" y="271" on="1"/>
        <pt x="211" y="271" on="1"/>
        <pt x="176" y="93" on="1"/>
      </contour>
    </TTGlyph>
    <TTGlyph name="Eacute" xMin="48" yMin="0" xMax="548" yMax="896">
      <contour>
        <pt x="241" y="728" on="1"/>
        <pt x="265" y="742" on="0"/>
        <pt x="325" y="782" on="0"/>
        <pt x="386" y="827" on="0"/>
        <pt x="445" y="875" on="0"/>
        <pt x="468" y="896" on="1"/>
        <pt x="538" y="812" on="1"/>
        <pt x="511" y="793" on="0"/>
        <pt x="439" y="754" on="0"/>
        <pt x="364" y="720" on="0"/>
        <pt x="290" y="691" on="0"/>
        <pt x="261" y="681" on="1"/>
      </contour>
      <contour>
        <pt x="450" y="93" on="1"/>
        <pt x="425" y="0" on="1"/>
        <pt x="48" y="0" on="1"/>
        <pt x="168" y="620" on="1"/>
        <pt x="548" y="620" on="1"/>
        <pt x="530" y="527" on="1"/>
        <pt x="261" y="527" on="1"/>
        <pt x="227" y="352" on="1"/>
        <pt x="455" y="352" on="1"/>
        <pt x="439" y="271" on="1"/>
        <pt x="211" y="271" on="1"/>
        <pt x="176" y="93" on="1"/>
      </contour>
    </TTGlyph>
    <TTGlyph name="Ebreve" xMin="48" yMin="0" xMax="597" yMax="876">
      <contour>
        <pt x="536" y="870" on="1"/>
        <pt x="597" y="833" on="1"/>
        <pt x="543" y="764" on="0"/>
        <pt x="429" y="686" on="0"/>
        <pt x="373" y="686" on="1"/>
        <pt x="320" y="686" on="0"/>
        <pt x="233" y="760" on="0"/>
        <pt x="205" y="833" on="1"/>
        <pt x="285" y="876" on="1"/>
        <pt x="309" y="821" on="0"/>
        <pt x="360" y="770" on="0"/>
        <pt x="396" y="770" on="1"/>
        <pt x="430" y="770" on="0"/>
        <pt x="496" y="823" on="0"/>
      </contour>
      <contour>
        <pt x="450" y="93" on="1"/>
        <pt x="425" y="0" on="1"/>
        <pt x="48" y="0" on="1"/>
        <pt x="168" y="620" on="1"/>
        <pt x="548" y="620" on="1"/>
        <pt x="530" y="527" on="1"/>
        <pt x="261" y="527" on="1"/>
        <pt x="227" y="352" on="1"/>
        <pt x="455" y="352" on="1"/>
        <pt x="439" y="271" on="1"/>
        <pt x="211" y="271" on="1"/>
        <pt x="176" y="93" on="1"/>
      </contour>
    </TTGlyph>
    <TTGlyph name="Ecaron" xMin="48" yMin="0" xMax="584" yMax="881">
      <contour>
        <pt x="371" y="676" on="1"/>
        <pt x="364" y="676" on="1"/>
        <pt x="215" y="825" on="1"/>
        <pt x="288" y="881" on="1"/>
        <pt x="386" y="776" on="1"/>
        <pt x="536" y="877" on="1"/>
        <pt x="584" y="823" on="1"/>
      </contour>
      <contour>
        <pt x="450" y="93" on="1"/>
        <pt x="425" y="0" on="1"/>
        <pt x="48" y="0" on="1"/>
        <pt x="168" y="620" on="1"/>
        <pt x="548" y="620" on="1"/>
        <pt x="530" y="527" on="1"/>
        <pt x="261" y="527" on="1"/>
        <pt x="227" y="352" on="1"/>
        <pt x="455" y="352" on="1"/>
        <pt x="439" y="271" on="1"/>
        <pt x="211" y="271" on="1"/>
        <pt x="176" y="93" on="1"/>
      </contour>
    </TTGlyph>
    <TTGlyph name="Ecircumflex" xMin="48" yMin="0" xMax="567" yMax="884">
      <contour>
        <pt x="494" y="679" on="1"/>
        <pt x="396" y="785" on="1"/>
        <pt x="246" y="683" on="1"/>
        <pt x="198" y="738" on="1"/>
        <pt x="412" y="884" on="1"/>
        <pt x="418" y="884" on="1"/>
        <pt x="567" y="735" on="1"/>
      </contour>
      <contour>
        <pt x="450" y="93" on="1"/>
        <pt x="425" y="0" on="1"/>
        <pt x="48" y="0" on="1"/>
        <pt x="168" y="620" on="1"/>
        <pt x="548" y="620" on="1"/>
        <pt x="530" y="527" on="1"/>
        <pt x="261" y="527" on="1"/>
        <pt x="227" y="352" on="1"/>
        <pt x="455" y="352" on="1"/>
        <pt x="439" y="271" on="1"/>
        <pt x="211" y="271" on="1"/>
        <pt x="176" y="93" on="1"/>
      </contour>
    </TTGlyph>
    <TTGlyph name="Edieresis" xMin="48" yMin="0" xMax="576" yMax="835">
      <contour>
        <pt x="533" y="699" on="1"/>
        <pt x="420" y="698" on="1"/>
        <pt x="453" y="832" on="1"/>
        <pt x="576" y="835" on="1"/>
      </contour>
      <contour>
        <pt x="314" y="697" on="1"/>
        <pt x="200" y="696" on="1"/>
        <pt x="233" y="831" on="1"/>
        <pt x="356" y="832" on="1"/>
      </contour>
      <contour>
        <pt x="450" y="93" on="1"/>
        <pt x="425" y="0" on="1"/>
        <pt x="48" y="0" on="1"/>
        <pt x="168" y="620" on="1"/>
        <pt x="548" y="620" on="1"/>
        <pt x="530" y="527" on="1"/>
        <pt x="261" y="527" on="1"/>
        <pt x="227" y="352" on="1"/>
        <pt x="455" y="352" on="1"/>
        <pt x="439" y="271" on="1"/>
        <pt x="211" y="271" on="1"/>
        <pt x="176" y="93" on="1"/>
      </contour>
    </TTGlyph>
    <TTGlyph name="Edotaccent" xMin="48" yMin="0" xMax="548" yMax="833">
      <contour>
        <pt x="425" y="698" on="1"/>
        <pt x="309" y="697" on="1"/>
        <pt x="342" y="832" on="1"/>
        <pt x="468" y="833" on="1"/>
      </contour>
      <contour>
        <pt x="450" y="93" on="1"/>
        <pt x="425" y="0" on="1"/>
        <pt x="48" y="0" on="1"/>
        <pt x="168" y="620" on="1"/>
        <pt x="548" y="620" on="1"/>
        <pt x="530" y="527" on="1"/>
        <pt x="261" y="527" on="1"/>
        <pt x="227" y="352" on="1"/>
        <pt x="455" y="352" on="1"/>
        <pt x="439" y="271" on="1"/>
        <pt x="211" y="271" on="1"/>
        <pt x="176" y="93" on="1"/>
      </contour>
    </TTGlyph>
    <TTGlyph name="Egrave" xMin="48" yMin="0" xMax="548" yMax="900">
      <contour>
        <pt x="519" y="721" on="1"/>
        <pt x="495" y="677" on="1"/>
        <pt x="469" y="687" on="0"/>
        <pt x="403" y="720" on="0"/>
        <pt x="335" y="757" on="0"/>
        <pt x="269" y="797" on="0"/>
        <pt x="244" y="815" on="1"/>
        <pt x="310" y="900" on="1"/>
        <pt x="332" y="878" on="0"/>
        <pt x="386" y="828" on="0"/>
        <pt x="442" y="781" on="0"/>
        <pt x="496" y="737" on="0"/>
      </contour>
      <contour>
        <pt x="450" y="93" on="1"/>
        <pt x="425" y="0" on="1"/>
        <pt x="48" y="0" on="1"/>
        <pt x="168" y="620" on="1"/>
        <pt x="548" y="620" on="1"/>
        <pt x="530" y="527" on="1"/>
        <pt x="261" y="527" on="1"/>
        <pt x="227" y="352" on="1"/>
        <pt x="455" y="352" on="1"/>
        <pt x="439" y="271" on="1"/>
        <pt x="211" y="271" on="1"/>
        <pt x="176" y="93" on="1"/>
      </contour>
    </TTGlyph>
    <TTGlyph name="Emacron" xMin="48" yMin="0" xMax="570" yMax="811">
      <contour>
        <pt x="570" y="811" on="1"/>
        <pt x="553" y="722" on="1"/>
        <pt x="207" y="722" on="1"/>
        <pt x="225" y="811" on="1"/>
      </contour>
      <contour>
        <pt x="450" y="93" on="1"/>
        <pt x="425" y="0" on="1"/>
        <pt x="48" y="0" on="1"/>
        <pt x="168" y="620" on="1"/>
        <pt x="548" y="620" on="1"/>
        <pt x="530" y="527" on="1"/>
        <pt x="261" y="527" on="1"/>
        <pt x="227" y="352" on="1"/>
        <pt x="455" y="352" on="1"/>
        <pt x="439" y="271" on="1"/>
        <pt x="211" y="271" on="1"/>
        <pt x="176" y="93" on="1"/>
      </contour>
    </TTGlyph>
    <TTGlyph name="Eogonek" xMin="48" yMin="-212" xMax="548" yMax="620">
      <contour>
        <pt x="393" y="-169" on="1"/>
        <pt x="347" y="-191" on="0"/>
        <pt x="272" y="-212" on="0"/>
        <pt x="243" y="-212" on="1"/>
        <pt x="196" y="-212" on="0"/>
        <pt x="148" y="-169" on="0"/>
        <pt x="148" y="-138" on="1"/>
        <pt x="148" y="-105" on="0"/>
        <pt x="212" y="-34" on="0"/>
        <pt x="284" y="0" on="1"/>
        <pt x="48" y="0" on="1"/>
        <pt x="168" y="620" on="1"/>
        <pt x="548" y="620" on="1"/>
        <pt x="530" y="527" on="1"/>
        <pt x="261" y="527" on="1"/>
        <pt x="227" y="352" on="1"/>
        <pt x="455" y="352" on="1"/>
        <pt x="439" y="271" on="1"/>
        <pt x="211" y="271" on="1"/>
        <pt x="176" y="93" on="1"/>
        <pt x="450" y="93" on="1"/>
        <pt x="425" y="0" on="1"/>
        <pt x="328" y="-26" on="0"/>
        <pt x="245" y="-82" on="0"/>
        <pt x="245" y="-106" on="1"/>
        <pt x="245" y="-120" on="0"/>
        <pt x="268" y="-138" on="0"/>
        <pt x="293" y="-138" on="1"/>
        <pt x="309" y="-138" on="0"/>
        <pt x="354" y="-130" on="0"/>
        <pt x="382" y="-120" on="1"/>
      </contour>
    </TTGlyph>
    <TTGlyph name="Eth" xMin="24" yMin="-6" xMax="528" yMax="627">
      <contour>
        <pt x="130" y="-6" on="1"/>
        <pt x="108" y="-6" on="0"/>
        <pt x="59" y="-2" on="0"/>
        <pt x="34" y="1" on="1"/>
        <pt x="87" y="275" on="1"/>
        <pt x="24" y="275" on="1"/>
        <pt x="39" y="352" on="1"/>
        <pt x="102" y="352" on="1"/>
        <pt x="153" y="617" on="1"/>
        <pt x="185" y="622" on="0"/>
        <pt x="244" y="627" on="0"/>
        <pt x="270" y="627" on="1"/>
        <pt x="399" y="627" on="0"/>
        <pt x="528" y="505" on="0"/>
        <pt x="528" y="387" on="1"/>
        <pt x="528" y="311" on="0"/>
        <pt x="483" y="168" on="0"/>
        <pt x="387" y="59" on="0"/>
        <pt x="236" y="-6" on="0"/>
      </contour>
      <contour>
        <pt x="180" y="87" on="1"/>
        <pt x="239" y="87" on="0"/>
        <pt x="329" y="134" on="0"/>
        <pt x="388" y="214" on="0"/>
        <pt x="417" y="319" on="0"/>
        <pt x="417" y="376" on="1"/>
        <pt x="417" y="455" on="0"/>
        <pt x="347" y="535" on="0"/>
        <pt x="275" y="535" on="1"/>
        <pt x="268" y="535" on="0"/>
        <pt x="254" y="535" on="0"/>
        <pt x="247" y="534" on="1"/>
        <pt x="212" y="352" on="1"/>
        <pt x="324" y="352" on="1"/>
        <pt x="304" y="275" on="1"/>
        <pt x="197" y="275" on="1"/>
        <pt x="161" y="88" on="1"/>
        <pt x="165" y="87" on="0"/>
        <pt x="176" y="87" on="0"/>
      </contour>
    </TTGlyph>
    <TTGlyph name="Euro" xMin="28" yMin="-12" xMax="560" yMax="634">
      <contour>
        <pt x="482" y="37" on="1"/>
        <pt x="427" y="12" on="0"/>
        <pt x="333" y="-12" on="0"/>
        <pt x="295" y="-12" on="1"/>
        <pt x="208" y="-12" on="0"/>
        <pt x="114" y="95" on="0"/>
        <pt x="106" y="181" on="1"/>
        <pt x="28" y="181" on="1"/>
        <pt x="44" y="259" on="1"/>
        <pt x="105" y="259" on="1"/>
        <pt x="107" y="279" on="0"/>
        <pt x="114" y="318" on="0"/>
        <pt x="118" y="337" on="1"/>
        <pt x="57" y="337" on="1"/>
        <pt x="73" y="415" on="1"/>
        <pt x="143" y="415" on="1"/>
        <pt x="163" y="462" on="0"/>
        <pt x="221" y="543" on="0"/>
        <pt x="291" y="601" on="0"/>
        <pt x="372" y="634" on="0"/>
        <pt x="416" y="634" on="1"/>
        <pt x="484" y="634" on="0"/>
        <pt x="554" y="553" on="0"/>
        <pt x="560" y="469" on="1"/>
        <pt x="464" y="454" on="1"/>
        <pt x="459" y="498" on="0"/>
        <pt x="428" y="543" on="0"/>
        <pt x="391" y="543" on="1"/>
        <pt x="343" y="543" on="0"/>
        <pt x="265" y="464" on="0"/>
        <pt x="240" y="407" on="1"/>
        <pt x="458" y="407" on="1"/>
        <pt x="441" y="337" on="1"/>
        <pt x="217" y="337" on="1"/>
        <pt x="213" y="318" on="0"/>
        <pt x="207" y="281" on="0"/>
        <pt x="206" y="262" on="1"/>
        <pt x="424" y="262" on="1"/>
        <pt x="407" y="191" on="1"/>
        <pt x="208" y="191" on="1"/>
        <pt x="215" y="134" on="0"/>
        <pt x="276" y="78" on="0"/>
        <pt x="334" y="78" on="1"/>
        <pt x="362" y="78" on="0"/>
        <pt x="430" y="90" on="0"/>
        <pt x="472" y="101" on="1"/>
      </contour>
    </TTGlyph>
    <TTGlyph name="F" xMin="51" yMin="0" xMax="561" yMax="620">
      <contour>
        <pt x="447" y="255" on="1"/>
        <pt x="212" y="255" on="1"/>
        <pt x="162" y="0" on="1"/>
        <pt x="51" y="0" on="1"/>
        <pt x="171" y="620" on="1"/>
        <pt x="561" y="620" on="1"/>
        <pt x="544" y="525" on="1"/>
        <pt x="264" y="525" on="1"/>
        <pt x="228" y="341" on="1"/>
        <pt x="464" y="341" on="1"/>
      </contour>
    </TTGlyph>
    <TTGlyph name="G" xMin="57" yMin="-109" xMax="517" yMax="633">
      <contour>
        <pt x="412" y="-107" on="1"/>
        <pt x="311" y="-109" on="1"/>
        <pt x="336" y="0" on="1"/>
        <pt x="314" y="-5" on="0"/>
        <pt x="271" y="-10" on="0"/>
        <pt x="252" y="-10" on="1"/>
        <pt x="159" y="-10" on="0"/>
        <pt x="57" y="111" on="0"/>
        <pt x="57" y="219" on="1"/>
        <pt x="57" y="300" on="0"/>
        <pt x="106" y="450" on="0"/>
        <pt x="190" y="564" on="0"/>
        <pt x="304" y="633" on="0"/>
        <pt x="368" y="633" on="1"/>
        <pt x="446" y="633" on="0"/>
        <pt x="517" y="534" on="0"/>
        <pt x="517" y="433" on="1"/>
        <pt x="517" y="424" on="0"/>
        <pt x="517" y="403" on="0"/>
        <pt x="516" y="393" on="1"/>
        <pt x="412" y="391" on="1"/>
        <pt x="412" y="411" on="1"/>
        <pt x="412" y="473" on="0"/>
        <pt x="386" y="534" on="0"/>
        <pt x="347" y="534" on="1"/>
        <pt x="308" y="534" on="0"/>
        <pt x="243" y="480" on="0"/>
        <pt x="195" y="395" on="0"/>
        <pt x="169" y="288" on="0"/>
        <pt x="169" y="235" on="1"/>
        <pt x="169" y="161" on="0"/>
        <pt x="226" y="84" on="0"/>
        <pt x="283" y="84" on="1"/>
        <pt x="299" y="84" on="0"/>
        <pt x="337" y="90" on="0"/>
        <pt x="358" y="97" on="1"/>
        <pt x="391" y="243" on="1"/>
        <pt x="495" y="246" on="1"/>
      </contour>
    </TTGlyph>
    <TTGlyph name="Gbreve" xMin="57" yMin="-109" xMax="596" yMax="889">
      <contour>
        <pt x="535" y="883" on="1"/>
        <pt x="596" y="846" on="1"/>
        <pt x="542" y="777" on="0"/>
        <pt x="428" y="699" on="0"/>
        <pt x="372" y="699" on="1"/>
        <pt x="319" y="699" on="0"/>
        <pt x="232" y="773" on="0"/>
        <pt x="204" y="846" on="1"/>
        <pt x="284" y="889" on="1"/>
        <pt x="308" y="834" on="0"/>
        <pt x="359" y="783" on="0"/>
        <pt x="395" y="783" on="1"/>
        <pt x="429" y="783" on="0"/>
        <pt x="495" y="836" on="0"/>
      </contour>
      <contour>
        <pt x="412" y="-107" on="1"/>
        <pt x="311" y="-109" on="1"/>
        <pt x="336" y="0" on="1"/>
        <pt x="314" y="-5" on="0"/>
        <pt x="271" y="-10" on="0"/>
        <pt x="252" y="-10" on="1"/>
        <pt x="159" y="-10" on="0"/>
        <pt x="57" y="111" on="0"/>
        <pt x="57" y="219" on="1"/>
        <pt x="57" y="300" on="0"/>
        <pt x="106" y="450" on="0"/>
        <pt x="190" y="564" on="0"/>
        <pt x="304" y="633" on="0"/>
        <pt x="368" y="633" on="1"/>
        <pt x="446" y="633" on="0"/>
        <pt x="517" y="534" on="0"/>
        <pt x="517" y="433" on="1"/>
        <pt x="517" y="424" on="0"/>
        <pt x="517" y="403" on="0"/>
        <pt x="516" y="393" on="1"/>
        <pt x="412" y="391" on="1"/>
        <pt x="412" y="411" on="1"/>
        <pt x="412" y="473" on="0"/>
        <pt x="386" y="534" on="0"/>
        <pt x="347" y="534" on="1"/>
        <pt x="308" y="534" on="0"/>
        <pt x="243" y="480" on="0"/>
        <pt x="195" y="395" on="0"/>
        <pt x="169" y="288" on="0"/>
        <pt x="169" y="235" on="1"/>
        <pt x="169" y="161" on="0"/>
        <pt x="226" y="84" on="0"/>
        <pt x="283" y="84" on="1"/>
        <pt x="299" y="84" on="0"/>
        <pt x="337" y="90" on="0"/>
        <pt x="358" y="97" on="1"/>
        <pt x="391" y="243" on="1"/>
        <pt x="495" y="246" on="1"/>
      </contour>
    </TTGlyph>
    <TTGlyph name="Gcommaaccent" xMin="57" yMin="-364" xMax="517" yMax="633">
      <contour>
        <pt x="412" y="-107" on="1"/>
        <pt x="311" y="-109" on="1"/>
        <pt x="336" y="0" on="1"/>
        <pt x="314" y="-5" on="0"/>
        <pt x="271" y="-10" on="0"/>
        <pt x="252" y="-10" on="1"/>
        <pt x="159" y="-10" on="0"/>
        <pt x="57" y="111" on="0"/>
        <pt x="57" y="219" on="1"/>
        <pt x="57" y="300" on="0"/>
        <pt x="106" y="450" on="0"/>
        <pt x="190" y="564" on="0"/>
        <pt x="304" y="633" on="0"/>
        <pt x="368" y="633" on="1"/>
        <pt x="446" y="633" on="0"/>
        <pt x="517" y="534" on="0"/>
        <pt x="517" y="433" on="1"/>
        <pt x="517" y="424" on="0"/>
        <pt x="517" y="403" on="0"/>
        <pt x="516" y="393" on="1"/>
        <pt x="412" y="391" on="1"/>
        <pt x="412" y="411" on="1"/>
        <pt x="412" y="473" on="0"/>
        <pt x="386" y="534" on="0"/>
        <pt x="347" y="534" on="1"/>
        <pt x="308" y="534" on="0"/>
        <pt x="243" y="480" on="0"/>
        <pt x="195" y="395" on="0"/>
        <pt x="169" y="288" on="0"/>
        <pt x="169" y="235" on="1"/>
        <pt x="169" y="161" on="0"/>
        <pt x="226" y="84" on="0"/>
        <pt x="283" y="84" on="1"/>
        <pt x="299" y="84" on="0"/>
        <pt x="337" y="90" on="0"/>
        <pt x="358" y="97" on="1"/>
        <pt x="391" y="243" on="1"/>
        <pt x="495" y="246" on="1"/>
      </contour>
      <contour>
        <pt x="104" y="-345" on="1"/>
        <pt x="124" y="-308" on="0"/>
        <pt x="142" y="-232" on="0"/>
        <pt x="142" y="-195" on="1"/>
        <pt x="142" y="-185" on="0"/>
        <pt x="140" y="-163" on="0"/>
        <pt x="139" y="-153" on="1"/>
        <pt x="274" y="-151" on="1"/>
        <pt x="267" y="-209" on="0"/>
        <pt x="202" y="-322" on="0"/>
        <pt x="148" y="-364" on="1"/>
      </contour>
    </TTGlyph>
    <TTGlyph name="Gdotaccent" xMin="57" yMin="-109" xMax="517" yMax="846">
      <contour>
        <pt x="424" y="711" on="1"/>
        <pt x="308" y="710" on="1"/>
        <pt x="341" y="845" on="1"/>
        <pt x="467" y="846" on="1"/>
      </contour>
      <contour>
        <pt x="412" y="-107" on="1"/>
        <pt x="311" y="-109" on="1"/>
        <pt x="336" y="0" on="1"/>
        <pt x="314" y="-5" on="0"/>
        <pt x="271" y="-10" on="0"/>
        <pt x="252" y="-10" on="1"/>
        <pt x="159" y="-10" on="0"/>
        <pt x="57" y="111" on="0"/>
        <pt x="57" y="219" on="1"/>
        <pt x="57" y="300" on="0"/>
        <pt x="106" y="450" on="0"/>
        <pt x="190" y="564" on="0"/>
        <pt x="304" y="633" on="0"/>
        <pt x="368" y="633" on="1"/>
        <pt x="446" y="633" on="0"/>
        <pt x="517" y="534" on="0"/>
        <pt x="517" y="433" on="1"/>
        <pt x="517" y="424" on="0"/>
        <pt x="517" y="403" on="0"/>
        <pt x="516" y="393" on="1"/>
        <pt x="412" y="391" on="1"/>
        <pt x="412" y="411" on="1"/>
        <pt x="412" y="473" on="0"/>
        <pt x="386" y="534" on="0"/>
        <pt x="347" y="534" on="1"/>
        <pt x="308" y="534" on="0"/>
        <pt x="243" y="480" on="0"/>
        <pt x="195" y="395" on="0"/>
        <pt x="169" y="288" on="0"/>
        <pt x="169" y="235" on="1"/>
        <pt x="169" y="161" on="0"/>
        <pt x="226" y="84" on="0"/>
        <pt x="283" y="84" on="1"/>
        <pt x="299" y="84" on="0"/>
        <pt x="337" y="90" on="0"/>
        <pt x="358" y="97" on="1"/>
        <pt x="391" y="243" on="1"/>
        <pt x="495" y="246" on="1"/>
      </contour>
    </TTGlyph>
    <TTGlyph name="H" xMin="29" yMin="0" xMax="560" yMax="620">
      <contour>
        <pt x="328" y="0" on="1"/>
        <pt x="380" y="270" on="1"/>
        <pt x="194" y="270" on="1"/>
        <pt x="142" y="0" on="1"/>
        <pt x="29" y="0" on="1"/>
        <pt x="149" y="620" on="1"/>
        <pt x="262" y="620" on="1"/>
        <pt x="211" y="356" on="1"/>
        <pt x="397" y="356" on="1"/>
        <pt x="448" y="620" on="1"/>
        <pt x="560" y="620" on="1"/>
        <pt x="440" y="0" on="1"/>
      </contour>
    </TTGlyph>
    <TTGlyph name="Hbar" xMin="29" yMin="0" xMax="603" yMax="620">
      <contour>
        <pt x="394" y="340" on="1"/>
        <pt x="413" y="440" on="1"/>
        <pt x="227" y="440" on="1"/>
        <pt x="208" y="340" on="1"/>
      </contour>
      <contour>
        <pt x="328" y="0" on="1"/>
        <pt x="377" y="253" on="1"/>
        <pt x="191" y="253" on="1"/>
        <pt x="142" y="0" on="1"/>
        <pt x="29" y="0" on="1"/>
        <pt x="113" y="436" on="1"/>
        <pt x="49" y="436" on="1"/>
        <pt x="64" y="513" on="1"/>
        <pt x="128" y="513" on="1"/>
        <pt x="149" y="620" on="1"/>
        <pt x="262" y="620" on="1"/>
        <pt x="241" y="510" on="1"/>
        <pt x="427" y="510" on="1"/>
        <pt x="448" y="620" on="1"/>
        <pt x="560" y="620" on="1"/>
        <pt x="539" y="513" on="1"/>
        <pt x="603" y="513" on="1"/>
        <pt x="588" y="436" on="1"/>
        <pt x="524" y="436" on="1"/>
        <pt x="440" y="0" on="1"/>
      </contour>
    </TTGlyph>
    <TTGlyph name="I" xMin="28" yMin="0" xMax="536" yMax="620">
      <contour>
        <pt x="295" y="88" on="1"/>
        <pt x="439" y="88" on="1"/>
        <pt x="418" y="0" on="1"/>
        <pt x="28" y="0" on="1"/>
        <pt x="45" y="88" on="1"/>
        <pt x="184" y="88" on="1"/>
        <pt x="270" y="532" on="1"/>
        <pt x="129" y="532" on="1"/>
        <pt x="146" y="620" on="1"/>
        <pt x="536" y="620" on="1"/>
        <pt x="520" y="532" on="1"/>
        <pt x="381" y="532" on="1"/>
      </contour>
    </TTGlyph>
    <TTGlyph name="Iacute" xMin="28" yMin="0" xMax="536" yMax="896">
      <contour>
        <pt x="225" y="728" on="1"/>
        <pt x="249" y="742" on="0"/>
        <pt x="309" y="782" on="0"/>
        <pt x="370" y="827" on="0"/>
        <pt x="429" y="875" on="0"/>
        <pt x="452" y="896" on="1"/>
        <pt x="522" y="812" on="1"/>
        <pt x="495" y="793" on="0"/>
        <pt x="423" y="754" on="0"/>
        <pt x="348" y="720" on="0"/>
        <pt x="274" y="691" on="0"/>
        <pt x="245" y="681" on="1"/>
      </contour>
      <contour>
        <pt x="295" y="88" on="1"/>
        <pt x="439" y="88" on="1"/>
        <pt x="418" y="0" on="1"/>
        <pt x="28" y="0" on="1"/>
        <pt x="45" y="88" on="1"/>
        <pt x="184" y="88" on="1"/>
        <pt x="270" y="532" on="1"/>
        <pt x="129" y="532" on="1"/>
        <pt x="146" y="620" on="1"/>
        <pt x="536" y="620" on="1"/>
        <pt x="520" y="532" on="1"/>
        <pt x="381" y="532" on="1"/>
      </contour>
    </TTGlyph>
    <TTGlyph name="Ibreve" xMin="28" yMin="0" xMax="582" yMax="876">
      <contour>
        <pt x="521" y="870" on="1"/>
        <pt x="582" y="833" on="1"/>
        <pt x="528" y="764" on="0"/>
        <pt x="414" y="686" on="0"/>
        <pt x="358" y="686" on="1"/>
        <pt x="305" y="686" on="0"/>
        <pt x="218" y="760" on="0"/>
        <pt x="190" y="833" on="1"/>
        <pt x="270" y="876" on="1"/>
        <pt x="294" y="821" on="0"/>
        <pt x="345" y="770" on="0"/>
        <pt x="381" y="770" on="1"/>
        <pt x="415" y="770" on="0"/>
        <pt x="481" y="823" on="0"/>
      </contour>
      <contour>
        <pt x="295" y="88" on="1"/>
        <pt x="439" y="88" on="1"/>
        <pt x="418" y="0" on="1"/>
        <pt x="28" y="0" on="1"/>
        <pt x="45" y="88" on="1"/>
        <pt x="184" y="88" on="1"/>
        <pt x="270" y="532" on="1"/>
        <pt x="129" y="532" on="1"/>
        <pt x="146" y="620" on="1"/>
        <pt x="536" y="620" on="1"/>
        <pt x="520" y="532" on="1"/>
        <pt x="381" y="532" on="1"/>
      </contour>
    </TTGlyph>
    <TTGlyph name="Icircumflex" xMin="28" yMin="0" xMax="551" yMax="884">
      <contour>
        <pt x="478" y="679" on="1"/>
        <pt x="380" y="785" on="1"/>
        <pt x="230" y="683" on="1"/>
        <pt x="182" y="738" on="1"/>
        <pt x="396" y="884" on="1"/>
        <pt x="402" y="884" on="1"/>
        <pt x="551" y="735" on="1"/>
      </contour>
      <contour>
        <pt x="295" y="88" on="1"/>
        <pt x="439" y="88" on="1"/>
        <pt x="418" y="0" on="1"/>
        <pt x="28" y="0" on="1"/>
        <pt x="45" y="88" on="1"/>
        <pt x="184" y="88" on="1"/>
        <pt x="270" y="532" on="1"/>
        <pt x="129" y="532" on="1"/>
        <pt x="146" y="620" on="1"/>
        <pt x="536" y="620" on="1"/>
        <pt x="520" y="532" on="1"/>
        <pt x="381" y="532" on="1"/>
      </contour>
    </TTGlyph>
    <TTGlyph name="Idieresis" xMin="28" yMin="0" xMax="561" yMax="835">
      <contour>
        <pt x="518" y="699" on="1"/>
        <pt x="405" y="698" on="1"/>
        <pt x="438" y="832" on="1"/>
        <pt x="561" y="835" on="1"/>
      </contour>
      <contour>
        <pt x="299" y="697" on="1"/>
        <pt x="185" y="696" on="1"/>
        <pt x="218" y="831" on="1"/>
        <pt x="341" y="832" on="1"/>
      </contour>
      <contour>
        <pt x="295" y="88" on="1"/>
        <pt x="439" y="88" on="1"/>
        <pt x="418" y="0" on="1"/>
        <pt x="28" y="0" on="1"/>
        <pt x="45" y="88" on="1"/>
        <pt x="184" y="88" on="1"/>
        <pt x="270" y="532" on="1"/>
        <pt x="129" y="532" on="1"/>
        <pt x="146" y="620" on="1"/>
        <pt x="536" y="620" on="1"/>
        <pt x="520" y="532" on="1"/>
        <pt x="381" y="532" on="1"/>
      </contour>
    </TTGlyph>
    <TTGlyph name="Idotaccent" xMin="28" yMin="0" xMax="536" yMax="833">
      <contour>
        <pt x="409" y="698" on="1"/>
        <pt x="293" y="697" on="1"/>
        <pt x="326" y="832" on="1"/>
        <pt x="452" y="833" on="1"/>
      </contour>
      <contour>
        <pt x="295" y="88" on="1"/>
        <pt x="439" y="88" on="1"/>
        <pt x="418" y="0" on="1"/>
        <pt x="28" y="0" on="1"/>
        <pt x="45" y="88" on="1"/>
        <pt x="184" y="88" on="1"/>
        <pt x="270" y="532" on="1"/>
        <pt x="129" y="532" on="1"/>
        <pt x="146" y="620" on="1"/>
        <pt x="536" y="620" on="1"/>
        <pt x="520" y="532" on="1"/>
        <pt x="381" y="532" on="1"/>
      </contour>
    </TTGlyph>
    <TTGlyph name="Igrave" xMin="28" yMin="0" xMax="536" yMax="900">
      <contour>
        <pt x="503" y="721" on="1"/>
        <pt x="479" y="677" on="1"/>
        <pt x="453" y="687" on="0"/>
        <pt x="387" y="720" on="0"/>
        <pt x="319" y="757" on="0"/>
        <pt x="253" y="797" on="0"/>
        <pt x="228" y="815" on="1"/>
        <pt x="294" y="900" on="1"/>
        <pt x="316" y="878" on="0"/>
        <pt x="370" y="828" on="0"/>
        <pt x="426" y="781" on="0"/>
        <pt x="480" y="737" on="0"/>
      </contour>
      <contour>
        <pt x="295" y="88" on="1"/>
        <pt x="439" y="88" on="1"/>
        <pt x="418" y="0" on="1"/>
        <pt x="28" y="0" on="1"/>
        <pt x="45" y="88" on="1"/>
        <pt x="184" y="88" on="1"/>
        <pt x="270" y="532" on="1"/>
        <pt x="129" y="532" on="1"/>
        <pt x="146" y="620" on="1"/>
        <pt x="536" y="620" on="1"/>
        <pt x="520" y="532" on="1"/>
        <pt x="381" y="532" on="1"/>
      </contour>
    </TTGlyph>
    <TTGlyph name="Imacron" xMin="28" yMin="0" xMax="554" yMax="811">
      <contour>
        <pt x="554" y="811" on="1"/>
        <pt x="537" y="722" on="1"/>
        <pt x="191" y="722" on="1"/>
        <pt x="209" y="811" on="1"/>
      </contour>
      <contour>
        <pt x="295" y="88" on="1"/>
        <pt x="439" y="88" on="1"/>
        <pt x="418" y="0" on="1"/>
        <pt x="28" y="0" on="1"/>
        <pt x="45" y="88" on="1"/>
        <pt x="184" y="88" on="1"/>
        <pt x="270" y="532" on="1"/>
        <pt x="129" y="532" on="1"/>
        <pt x="146" y="620" on="1"/>
        <pt x="536" y="620" on="1"/>
        <pt x="520" y="532" on="1"/>
        <pt x="381" y="532" on="1"/>
      </contour>
    </TTGlyph>
    <TTGlyph name="Iogonek" xMin="28" yMin="-211" xMax="536" yMax="620">
      <contour>
        <pt x="318" y="-168" on="1"/>
        <pt x="272" y="-190" on="0"/>
        <pt x="196" y="-211" on="0"/>
        <pt x="167" y="-211" on="1"/>
        <pt x="120" y="-211" on="0"/>
        <pt x="72" y="-167" on="0"/>
        <pt x="72" y="-136" on="1"/>
        <pt x="72" y="-104" on="0"/>
        <pt x="122" y="-34" on="0"/>
        <pt x="176" y="0" on="1"/>
        <pt x="28" y="0" on="1"/>
        <pt x="45" y="88" on="1"/>
        <pt x="184" y="88" on="1"/>
        <pt x="270" y="532" on="1"/>
        <pt x="129" y="532" on="1"/>
        <pt x="146" y="620" on="1"/>
        <pt x="536" y="620" on="1"/>
        <pt x="520" y="532" on="1"/>
        <pt x="381" y="532" on="1"/>
        <pt x="295" y="88" on="1"/>
        <pt x="439" y="88" on="1"/>
        <pt x="418" y="0" on="1"/>
        <pt x="287" y="0" on="1"/>
        <pt x="224" y="-27" on="0"/>
        <pt x="170" y="-82" on="0"/>
        <pt x="170" y="-106" on="1"/>
        <pt x="170" y="-120" on="0"/>
        <pt x="192" y="-138" on="0"/>
        <pt x="217" y="-138" on="1"/>
        <pt x="233" y="-138" on="0"/>
        <pt x="278" y="-129" on="0"/>
        <pt x="307" y="-119" on="1"/>
      </contour>
    </TTGlyph>
    <TTGlyph name="J" xMin="30" yMin="-11" xMax="505" yMax="620">
      <contour>
        <pt x="54" y="-11" on="1"/>
        <pt x="30" y="-11" on="1"/>
        <pt x="47" y="90" on="1"/>
        <pt x="67" y="90" on="0"/>
        <pt x="102" y="89" on="0"/>
        <pt x="118" y="89" on="1"/>
        <pt x="198" y="89" on="0"/>
        <pt x="264" y="100" on="0"/>
        <pt x="278" y="114" on="1"/>
        <pt x="284" y="120" on="0"/>
        <pt x="294" y="139" on="0"/>
        <pt x="304" y="175" on="0"/>
        <pt x="318" y="235" on="0"/>
        <pt x="327" y="281" on="1"/>
        <pt x="376" y="532" on="1"/>
        <pt x="180" y="532" on="1"/>
        <pt x="198" y="620" on="1"/>
        <pt x="505" y="620" on="1"/>
        <pt x="441" y="293" on="1"/>
        <pt x="428" y="225" on="0"/>
        <pt x="408" y="141" on="0"/>
        <pt x="391" y="90" on="0"/>
        <pt x="374" y="62" on="0"/>
        <pt x="364" y="52" on="1"/>
        <pt x="334" y="22" on="0"/>
        <pt x="194" y="-11" on="0"/>
      </contour>
    </TTGlyph>
    <TTGlyph name="K" xMin="36" yMin="-7" xMax="592" yMax="620">
      <contour>
        <pt x="373" y="-7" on="1"/>
        <pt x="221" y="310" on="1"/>
        <pt x="473" y="620" on="1"/>
        <pt x="592" y="620" on="1"/>
        <pt x="340" y="309" on="1"/>
        <pt x="490" y="7" on="1"/>
      </contour>
      <contour>
        <pt x="157" y="620" on="1"/>
        <pt x="267" y="620" on="1"/>
        <pt x="147" y="0" on="1"/>
        <pt x="36" y="0" on="1"/>
      </contour>
    </TTGlyph>
    <TTGlyph name="Kcommaaccent" xMin="36" yMin="-287" xMax="592" yMax="620">
      <contour>
        <pt x="373" y="-7" on="1"/>
        <pt x="221" y="310" on="1"/>
        <pt x="473" y="620" on="1"/>
        <pt x="592" y="620" on="1"/>
        <pt x="340" y="309" on="1"/>
        <pt x="490" y="7" on="1"/>
      </contour>
      <contour>
        <pt x="157" y="620" on="1"/>
        <pt x="267" y="620" on="1"/>
        <pt x="147" y="0" on="1"/>
        <pt x="36" y="0" on="1"/>
      </contour>
      <contour>
        <pt x="145" y="-268" on="1"/>
        <pt x="165" y="-231" on="0"/>
        <pt x="183" y="-155" on="0"/>
        <pt x="183" y="-118" on="1"/>
        <pt x="183" y="-108" on="0"/>
        <pt x="181" y="-86" on="0"/>
        <pt x="180" y="-76" on="1"/>
        <pt x="315" y="-74" on="1"/>
        <pt x="308" y="-132" on="0"/>
        <pt x="243" y="-245" on="0"/>
        <pt x="189" y="-287" on="1"/>
      </contour>
    </TTGlyph>
    <TTGlyph name="L" xMin="53" yMin="0" xMax="468" yMax="620">
      <contour>
        <pt x="449" y="0" on="1"/>
        <pt x="53" y="0" on="1"/>
        <pt x="173" y="620" on="1"/>
        <pt x="285" y="620" on="1"/>
        <pt x="184" y="95" on="1"/>
        <pt x="468" y="95" on="1"/>
      </contour>
    </TTGlyph>
    <TTGlyph name="Lacute" xMin="53" yMin="0" xMax="549" yMax="896">
      <contour>
        <pt x="252" y="728" on="1"/>
        <pt x="276" y="742" on="0"/>
        <pt x="336" y="782" on="0"/>
        <pt x="397" y="827" on="0"/>
        <pt x="456" y="875" on="0"/>
        <pt x="479" y="896" on="1"/>
        <pt x="549" y="812" on="1"/>
        <pt x="522" y="793" on="0"/>
        <pt x="450" y="754" on="0"/>
        <pt x="375" y="720" on="0"/>
        <pt x="301" y="691" on="0"/>
        <pt x="272" y="681" on="1"/>
      </contour>
      <contour>
        <pt x="449" y="0" on="1"/>
        <pt x="53" y="0" on="1"/>
        <pt x="173" y="620" on="1"/>
        <pt x="285" y="620" on="1"/>
        <pt x="184" y="95" on="1"/>
        <pt x="468" y="95" on="1"/>
      </contour>
    </TTGlyph>
    <TTGlyph name="Lcaron" xMin="53" yMin="0" xMax="581" yMax="701">
      <contour>
        <pt x="463" y="697" on="1"/>
        <pt x="581" y="701" on="1"/>
        <pt x="574" y="630" on="0"/>
        <pt x="517" y="505" on="0"/>
        <pt x="465" y="444" on="1"/>
        <pt x="419" y="462" on="1"/>
        <pt x="445" y="519" on="0"/>
        <pt x="463" y="623" on="0"/>
        <pt x="463" y="674" on="1"/>
      </contour>
      <contour>
        <pt x="449" y="0" on="1"/>
        <pt x="53" y="0" on="1"/>
        <pt x="173" y="620" on="1"/>
        <pt x="285" y="620" on="1"/>
        <pt x="184" y="95" on="1"/>
        <pt x="468" y="95" on="1"/>
      </contour>
    </TTGlyph>
    <TTGlyph name="Lcommaaccent" xMin="53" yMin="-280" xMax="468" yMax="620">
      <contour>
        <pt x="449" y="0" on="1"/>
        <pt x="53" y="0" on="1"/>
        <pt x="173" y="620" on="1"/>
        <pt x="285" y="620" on="1"/>
        <pt x="184" y="95" on="1"/>
        <pt x="468" y="95" on="1"/>
      </contour>
      <contour>
        <pt x="135" y="-261" on="1"/>
        <pt x="155" y="-224" on="0"/>
        <pt x="173" y="-148" on="0"/>
        <pt x="173" y="-111" on="1"/>
        <pt x="173" y="-101" on="0"/>
        <pt x="171" y="-79" on="0"/>
        <pt x="170" y="-69" on="1"/>
        <pt x="305" y="-67" on="1"/>
        <pt x="298" y="-125" on="0"/>
        <pt x="233" y="-238" on="0"/>
        <pt x="179" y="-280" on="1"/>
      </contour>
    </TTGlyph>
    <TTGlyph name="Ldot" xMin="53" yMin="0" xMax="517" yMax="620">
      <contour>
        <pt x="449" y="0" on="1"/>
        <pt x="53" y="0" on="1"/>
        <pt x="173" y="620" on="1"/>
        <pt x="285" y="620" on="1"/>
        <pt x="184" y="95" on="1"/>
        <pt x="468" y="95" on="1"/>
      </contour>
      <contour>
        <pt x="486" y="261" on="1"/>
        <pt x="375" y="261" on="1"/>
        <pt x="407" y="388" on="1"/>
        <pt x="517" y="388" on="1"/>
      </contour>
    </TTGlyph>
    <TTGlyph name="Lslash" xMin="54" yMin="0" xMax="485" yMax="620">
      <contour>
        <pt x="466" y="0" on="1"/>
        <pt x="70" y="0" on="1"/>
        <pt x="124" y="279" on="1"/>
        <pt x="57" y="248" on="1"/>
        <pt x="54" y="322" on="1"/>
        <pt x="140" y="362" on="1"/>
        <pt x="190" y="620" on="1"/>
        <pt x="302" y="620" on="1"/>
        <pt x="263" y="419" on="1"/>
        <pt x="391" y="478" on="1"/>
        <pt x="394" y="404" on="1"/>
        <pt x="247" y="336" on="1"/>
        <pt x="201" y="95" on="1"/>
        <pt x="485" y="95" on="1"/>
      </contour>
    </TTGlyph>
    <TTGlyph name="M" xMin="25" yMin="0" xMax="572" yMax="623">
      <contour>
        <pt x="257" y="623" on="1"/>
        <pt x="284" y="257" on="1"/>
        <pt x="286" y="257" on="1"/>
        <pt x="454" y="620" on="1"/>
        <pt x="572" y="620" on="1"/>
        <pt x="453" y="0" on="1"/>
        <pt x="348" y="0" on="1"/>
        <pt x="434" y="425" on="1"/>
        <pt x="430" y="425" on="1"/>
        <pt x="289" y="123" on="1"/>
        <pt x="228" y="123" on="1"/>
        <pt x="206" y="425" on="1"/>
        <pt x="203" y="425" on="1"/>
        <pt x="127" y="0" on="1"/>
        <pt x="25" y="0" on="1"/>
        <pt x="144" y="617" on="1"/>
      </contour>
    </TTGlyph>
    <TTGlyph name="N" xMin="30" yMin="0" xMax="562" yMax="622">
      <contour>
        <pt x="345" y="0" on="1"/>
        <pt x="218" y="425" on="1"/>
        <pt x="213" y="425" on="1"/>
        <pt x="134" y="0" on="1"/>
        <pt x="30" y="0" on="1"/>
        <pt x="150" y="618" on="1"/>
        <pt x="257" y="622" on="1"/>
        <pt x="375" y="200" on="1"/>
        <pt x="380" y="200" on="1"/>
        <pt x="458" y="620" on="1"/>
        <pt x="562" y="620" on="1"/>
        <pt x="442" y="0" on="1"/>
      </contour>
    </TTGlyph>
    <TTGlyph name="Nacute" xMin="30" yMin="0" xMax="562" yMax="898">
      <contour>
        <pt x="237" y="730" on="1"/>
        <pt x="261" y="744" on="0"/>
        <pt x="321" y="784" on="0"/>
        <pt x="382" y="829" on="0"/>
        <pt x="441" y="877" on="0"/>
        <pt x="464" y="898" on="1"/>
        <pt x="534" y="814" on="1"/>
        <pt x="507" y="795" on="0"/>
        <pt x="435" y="756" on="0"/>
        <pt x="360" y="722" on="0"/>
        <pt x="286" y="693" on="0"/>
        <pt x="257" y="683" on="1"/>
      </contour>
      <contour>
        <pt x="345" y="0" on="1"/>
        <pt x="218" y="425" on="1"/>
        <pt x="213" y="425" on="1"/>
        <pt x="134" y="0" on="1"/>
        <pt x="30" y="0" on="1"/>
        <pt x="150" y="618" on="1"/>
        <pt x="257" y="622" on="1"/>
        <pt x="375" y="200" on="1"/>
        <pt x="380" y="200" on="1"/>
        <pt x="458" y="620" on="1"/>
        <pt x="562" y="620" on="1"/>
        <pt x="442" y="0" on="1"/>
      </contour>
    </TTGlyph>
    <TTGlyph name="Ncaron" xMin="30" yMin="0" xMax="581" yMax="883">
      <contour>
        <pt x="368" y="678" on="1"/>
        <pt x="361" y="678" on="1"/>
        <pt x="212" y="827" on="1"/>
        <pt x="285" y="883" on="1"/>
        <pt x="383" y="778" on="1"/>
        <pt x="533" y="879" on="1"/>
        <pt x="581" y="825" on="1"/>
      </contour>
      <contour>
        <pt x="345" y="0" on="1"/>
        <pt x="218" y="425" on="1"/>
        <pt x="213" y="425" on="1"/>
        <pt x="134" y="0" on="1"/>
        <pt x="30" y="0" on="1"/>
        <pt x="150" y="618" on="1"/>
        <pt x="257" y="622" on="1"/>
        <pt x="375" y="200" on="1"/>
        <pt x="380" y="200" on="1"/>
        <pt x="458" y="620" on="1"/>
        <pt x="562" y="620" on="1"/>
        <pt x="442" y="0" on="1"/>
      </contour>
    </TTGlyph>
    <TTGlyph name="Ncommaaccent" xMin="30" yMin="-280" xMax="562" yMax="622">
      <contour>
        <pt x="345" y="0" on="1"/>
        <pt x="218" y="425" on="1"/>
        <pt x="213" y="425" on="1"/>
        <pt x="134" y="0" on="1"/>
        <pt x="30" y="0" on="1"/>
        <pt x="150" y="618" on="1"/>
        <pt x="257" y="622" on="1"/>
        <pt x="375" y="200" on="1"/>
        <pt x="380" y="200" on="1"/>
        <pt x="458" y="620" on="1"/>
        <pt x="562" y="620" on="1"/>
        <pt x="442" y="0" on="1"/>
      </contour>
      <contour>
        <pt x="120" y="-261" on="1"/>
        <pt x="140" y="-224" on="0"/>
        <pt x="158" y="-148" on="0"/>
        <pt x="158" y="-111" on="1"/>
        <pt x="158" y="-101" on="0"/>
        <pt x="156" y="-79" on="0"/>
        <pt x="155" y="-69" on="1"/>
        <pt x="290" y="-67" on="1"/>
        <pt x="283" y="-125" on="0"/>
        <pt x="218" y="-238" on="0"/>
        <pt x="164" y="-280" on="1"/>
      </contour>
    </TTGlyph>
    <TTGlyph name="Ntilde" xMin="30" yMin="0" xMax="602" yMax="866">
      <contour>
        <pt x="466" y="774" on="1"/>
        <pt x="482" y="774" on="0"/>
        <pt x="524" y="820" on="0"/>
        <pt x="550" y="860" on="1"/>
        <pt x="602" y="830" on="1"/>
        <pt x="565" y="769" on="0"/>
        <pt x="485" y="692" on="0"/>
        <pt x="445" y="692" on="1"/>
        <pt x="420" y="692" on="0"/>
        <pt x="382" y="721" on="0"/>
        <pt x="350" y="756" on="0"/>
        <pt x="322" y="785" on="0"/>
        <pt x="309" y="785" on="1"/>
        <pt x="293" y="785" on="0"/>
        <pt x="251" y="740" on="0"/>
        <pt x="226" y="700" on="1"/>
        <pt x="173" y="730" on="1"/>
        <pt x="209" y="791" on="0"/>
        <pt x="290" y="866" on="0"/>
        <pt x="330" y="866" on="1"/>
        <pt x="355" y="866" on="0"/>
        <pt x="393" y="837" on="0"/>
        <pt x="425" y="803" on="0"/>
        <pt x="452" y="774" on="0"/>
      </contour>
      <contour>
        <pt x="345" y="0" on="1"/>
        <pt x="218" y="425" on="1"/>
        <pt x="213" y="425" on="1"/>
        <pt x="134" y="0" on="1"/>
        <pt x="30" y="0" on="1"/>
        <pt x="150" y="618" on="1"/>
        <pt x="257" y="622" on="1"/>
        <pt x="375" y="200" on="1"/>
        <pt x="380" y="200" on="1"/>
        <pt x="458" y="620" on="1"/>
        <pt x="562" y="620" on="1"/>
        <pt x="442" y="0" on="1"/>
      </contour>
    </TTGlyph>
    <TTGlyph name="O" xMin="52" yMin="-13" xMax="537" yMax="632">
      <contour>
        <pt x="346" y="632" on="1"/>
        <pt x="429" y="632" on="0"/>
        <pt x="537" y="519" on="0"/>
        <pt x="537" y="397" on="1"/>
        <pt x="537" y="318" on="0"/>
        <pt x="493" y="169" on="0"/>
        <pt x="415" y="56" on="0"/>
        <pt x="307" y="-13" on="0"/>
        <pt x="242" y="-13" on="1"/>
        <pt x="160" y="-13" on="0"/>
        <pt x="52" y="100" on="0"/>
        <pt x="52" y="222" on="1"/>
        <pt x="52" y="301" on="0"/>
        <pt x="96" y="450" on="0"/>
        <pt x="173" y="563" on="0"/>
        <pt x="282" y="632" on="0"/>
      </contour>
      <contour>
        <pt x="255" y="83" on="1"/>
        <pt x="292" y="83" on="0"/>
        <pt x="353" y="137" on="0"/>
        <pt x="397" y="225" on="0"/>
        <pt x="421" y="336" on="0"/>
        <pt x="421" y="393" on="1"/>
        <pt x="421" y="467" on="0"/>
        <pt x="373" y="537" on="0"/>
        <pt x="333" y="537" on="1"/>
        <pt x="296" y="537" on="0"/>
        <pt x="235" y="482" on="0"/>
        <pt x="192" y="395" on="0"/>
        <pt x="168" y="283" on="0"/>
        <pt x="168" y="227" on="1"/>
        <pt x="168" y="152" on="0"/>
        <pt x="215" y="83" on="0"/>
      </contour>
    </TTGlyph>
    <TTGlyph name="OE" xMin="44" yMin="0" xMax="598" yMax="620">
      <contour>
        <pt x="154" y="215" on="1"/>
        <pt x="154" y="155" on="0"/>
        <pt x="199" y="91" on="0"/>
        <pt x="245" y="91" on="1"/>
        <pt x="329" y="529" on="1"/>
        <pt x="280" y="527" on="0"/>
        <pt x="212" y="455" on="0"/>
        <pt x="172" y="357" on="0"/>
        <pt x="154" y="251" on="0"/>
      </contour>
      <contour>
        <pt x="500" y="91" on="1"/>
        <pt x="476" y="0" on="1"/>
        <pt x="262" y="0" on="1"/>
        <pt x="163" y="0" on="0"/>
        <pt x="44" y="93" on="0"/>
        <pt x="44" y="212" on="1"/>
        <pt x="44" y="271" on="0"/>
        <pt x="77" y="414" on="0"/>
        <pt x="156" y="537" on="0"/>
        <pt x="292" y="620" on="0"/>
        <pt x="393" y="620" on="1"/>
        <pt x="598" y="620" on="1"/>
        <pt x="581" y="529" on="1"/>
        <pt x="425" y="529" on="1"/>
        <pt x="390" y="350" on="1"/>
        <pt x="517" y="350" on="1"/>
        <pt x="502" y="274" on="1"/>
        <pt x="376" y="274" on="1"/>
        <pt x="341" y="91" on="1"/>
      </contour>
    </TTGlyph>
    <TTGlyph name="Oacute" xMin="52" yMin="-13" xMax="537" yMax="910">
      <contour>
        <pt x="238" y="742" on="1"/>
        <pt x="262" y="756" on="0"/>
        <pt x="322" y="796" on="0"/>
        <pt x="383" y="841" on="0"/>
        <pt x="442" y="889" on="0"/>
        <pt x="465" y="910" on="1"/>
        <pt x="535" y="826" on="1"/>
        <pt x="508" y="807" on="0"/>
        <pt x="436" y="768" on="0"/>
        <pt x="361" y="734" on="0"/>
        <pt x="287" y="705" on="0"/>
        <pt x="258" y="695" on="1"/>
      </contour>
      <contour>
        <pt x="346" y="632" on="1"/>
        <pt x="429" y="632" on="0"/>
        <pt x="537" y="519" on="0"/>
        <pt x="537" y="397" on="1"/>
        <pt x="537" y="318" on="0"/>
        <pt x="493" y="169" on="0"/>
        <pt x="415" y="56" on="0"/>
        <pt x="307" y="-13" on="0"/>
        <pt x="242" y="-13" on="1"/>
        <pt x="160" y="-13" on="0"/>
        <pt x="52" y="100" on="0"/>
        <pt x="52" y="222" on="1"/>
        <pt x="52" y="301" on="0"/>
        <pt x="96" y="450" on="0"/>
        <pt x="173" y="563" on="0"/>
        <pt x="282" y="632" on="0"/>
      </contour>
      <contour>
        <pt x="255" y="83" on="1"/>
        <pt x="292" y="83" on="0"/>
        <pt x="353" y="137" on="0"/>
        <pt x="397" y="225" on="0"/>
        <pt x="421" y="336" on="0"/>
        <pt x="421" y="393" on="1"/>
        <pt x="421" y="467" on="0"/>
        <pt x="373" y="537" on="0"/>
        <pt x="333" y="537" on="1"/>
        <pt x="296" y="537" on="0"/>
        <pt x="235" y="482" on="0"/>
        <pt x="192" y="395" on="0"/>
        <pt x="168" y="283" on="0"/>
        <pt x="168" y="227" on="1"/>
        <pt x="168" y="152" on="0"/>
        <pt x="215" y="83" on="0"/>
      </contour>
    </TTGlyph>
    <TTGlyph name="Obreve" xMin="52" yMin="-13" xMax="594" yMax="890">
      <contour>
        <pt x="533" y="884" on="1"/>
        <pt x="594" y="847" on="1"/>
        <pt x="540" y="778" on="0"/>
        <pt x="426" y="700" on="0"/>
        <pt x="370" y="700" on="1"/>
        <pt x="317" y="700" on="0"/>
        <pt x="230" y="774" on="0"/>
        <pt x="202" y="847" on="1"/>
        <pt x="282" y="890" on="1"/>
        <pt x="306" y="835" on="0"/>
        <pt x="357" y="784" on="0"/>
        <pt x="393" y="784" on="1"/>
        <pt x="427" y="784" on="0"/>
        <pt x="493" y="837" on="0"/>
      </contour>
      <contour>
        <pt x="346" y="632" on="1"/>
        <pt x="429" y="632" on="0"/>
        <pt x="537" y="519" on="0"/>
        <pt x="537" y="397" on="1"/>
        <pt x="537" y="318" on="0"/>
        <pt x="493" y="169" on="0"/>
        <pt x="415" y="56" on="0"/>
        <pt x="307" y="-13" on="0"/>
        <pt x="242" y="-13" on="1"/>
        <pt x="160" y="-13" on="0"/>
        <pt x="52" y="100" on="0"/>
        <pt x="52" y="222" on="1"/>
        <pt x="52" y="301" on="0"/>
        <pt x="96" y="450" on="0"/>
        <pt x="173" y="563" on="0"/>
        <pt x="282" y="632" on="0"/>
      </contour>
      <contour>
        <pt x="255" y="83" on="1"/>
        <pt x="292" y="83" on="0"/>
        <pt x="353" y="137" on="0"/>
        <pt x="397" y="225" on="0"/>
        <pt x="421" y="336" on="0"/>
        <pt x="421" y="393" on="1"/>
        <pt x="421" y="467" on="0"/>
        <pt x="373" y="537" on="0"/>
        <pt x="333" y="537" on="1"/>
        <pt x="296" y="537" on="0"/>
        <pt x="235" y="482" on="0"/>
        <pt x="192" y="395" on="0"/>
        <pt x="168" y="283" on="0"/>
        <pt x="168" y="227" on="1"/>
        <pt x="168" y="152" on="0"/>
        <pt x="215" y="83" on="0"/>
      </contour>
    </TTGlyph>
    <TTGlyph name="Ocircumflex" xMin="52" yMin="-13" xMax="564" yMax="898">
      <contour>
        <pt x="491" y="693" on="1"/>
        <pt x="393" y="799" on="1"/>
        <pt x="243" y="697" on="1"/>
        <pt x="195" y="752" on="1"/>
        <pt x="409" y="898" on="1"/>
        <pt x="415" y="898" on="1"/>
        <pt x="564" y="749" on="1"/>
      </contour>
      <contour>
        <pt x="346" y="632" on="1"/>
        <pt x="429" y="632" on="0"/>
        <pt x="537" y="519" on="0"/>
        <pt x="537" y="397" on="1"/>
        <pt x="537" y="318" on="0"/>
        <pt x="493" y="169" on="0"/>
        <pt x="415" y="56" on="0"/>
        <pt x="307" y="-13" on="0"/>
        <pt x="242" y="-13" on="1"/>
        <pt x="160" y="-13" on="0"/>
        <pt x="52" y="100" on="0"/>
        <pt x="52" y="222" on="1"/>
        <pt x="52" y="301" on="0"/>
        <pt x="96" y="450" on="0"/>
        <pt x="173" y="563" on="0"/>
        <pt x="282" y="632" on="0"/>
      </contour>
      <contour>
        <pt x="255" y="83" on="1"/>
        <pt x="292" y="83" on="0"/>
        <pt x="353" y="137" on="0"/>
        <pt x="397" y="225" on="0"/>
        <pt x="421" y="336" on="0"/>
        <pt x="421" y="393" on="1"/>
        <pt x="421" y="467" on="0"/>
        <pt x="373" y="537" on="0"/>
        <pt x="333" y="537" on="1"/>
        <pt x="296" y="537" on="0"/>
        <pt x="235" y="482" on="0"/>
        <pt x="192" y="395" on="0"/>
        <pt x="168" y="283" on="0"/>
        <pt x="168" y="227" on="1"/>
        <pt x="168" y="152" on="0"/>
        <pt x="215" y="83" on="0"/>
      </contour>
    </TTGlyph>
    <TTGlyph name="Odieresis" xMin="52" yMin="-13" xMax="573" yMax="849">
      <contour>
        <pt x="530" y="713" on="1"/>
        <pt x="417" y="712" on="1"/>
        <pt x="450" y="846" on="1"/>
        <pt x="573" y="849" on="1"/>
      </contour>
      <contour>
        <pt x="311" y="711" on="1"/>
        <pt x="197" y="710" on="1"/>
        <pt x="230" y="845" on="1"/>
        <pt x="353" y="846" on="1"/>
      </contour>
      <contour>
        <pt x="346" y="632" on="1"/>
        <pt x="429" y="632" on="0"/>
        <pt x="537" y="519" on="0"/>
        <pt x="537" y="397" on="1"/>
        <pt x="537" y="318" on="0"/>
        <pt x="493" y="169" on="0"/>
        <pt x="415" y="56" on="0"/>
        <pt x="307" y="-13" on="0"/>
        <pt x="242" y="-13" on="1"/>
        <pt x="160" y="-13" on="0"/>
        <pt x="52" y="100" on="0"/>
        <pt x="52" y="222" on="1"/>
        <pt x="52" y="301" on="0"/>
        <pt x="96" y="450" on="0"/>
        <pt x="173" y="563" on="0"/>
        <pt x="282" y="632" on="0"/>
      </contour>
      <contour>
        <pt x="255" y="83" on="1"/>
        <pt x="292" y="83" on="0"/>
        <pt x="353" y="137" on="0"/>
        <pt x="397" y="225" on="0"/>
        <pt x="421" y="336" on="0"/>
        <pt x="421" y="393" on="1"/>
        <pt x="421" y="467" on="0"/>
        <pt x="373" y="537" on="0"/>
        <pt x="333" y="537" on="1"/>
        <pt x="296" y="537" on="0"/>
        <pt x="235" y="482" on="0"/>
        <pt x="192" y="395" on="0"/>
        <pt x="168" y="283" on="0"/>
        <pt x="168" y="227" on="1"/>
        <pt x="168" y="152" on="0"/>
        <pt x="215" y="83" on="0"/>
      </contour>
    </TTGlyph>
    <TTGlyph name="Ograve" xMin="52" yMin="-13" xMax="537" yMax="914">
      <contour>
        <pt x="516" y="735" on="1"/>
        <pt x="492" y="691" on="1"/>
        <pt x="466" y="701" on="0"/>
        <pt x="400" y="734" on="0"/>
        <pt x="332" y="771" on="0"/>
        <pt x="266" y="811" on="0"/>
        <pt x="241" y="829" on="1"/>
        <pt x="307" y="914" on="1"/>
        <pt x="329" y="892" on="0"/>
        <pt x="383" y="842" on="0"/>
        <pt x="439" y="795" on="0"/>
        <pt x="493" y="751" on="0"/>
      </contour>
      <contour>
        <pt x="346" y="632" on="1"/>
        <pt x="429" y="632" on="0"/>
        <pt x="537" y="519" on="0"/>
        <pt x="537" y="397" on="1"/>
        <pt x="537" y="318" on="0"/>
        <pt x="493" y="169" on="0"/>
        <pt x="415" y="56" on="0"/>
        <pt x="307" y="-13" on="0"/>
        <pt x="242" y="-13" on="1"/>
        <pt x="160" y="-13" on="0"/>
        <pt x="52" y="100" on="0"/>
        <pt x="52" y="222" on="1"/>
        <pt x="52" y="301" on="0"/>
        <pt x="96" y="450" on="0"/>
        <pt x="173" y="563" on="0"/>
        <pt x="282" y="632" on="0"/>
      </contour>
      <contour>
        <pt x="255" y="83" on="1"/>
        <pt x="292" y="83" on="0"/>
        <pt x="353" y="137" on="0"/>
        <pt x="397" y="225" on="0"/>
        <pt x="421" y="336" on="0"/>
        <pt x="421" y="393" on="1"/>
        <pt x="421" y="467" on="0"/>
        <pt x="373" y="537" on="0"/>
        <pt x="333" y="537" on="1"/>
        <pt x="296" y="537" on="0"/>
        <pt x="235" y="482" on="0"/>
        <pt x="192" y="395" on="0"/>
        <pt x="168" y="283" on="0"/>
        <pt x="168" y="227" on="1"/>
        <pt x="168" y="152" on="0"/>
        <pt x="215" y="83" on="0"/>
      </contour>
    </TTGlyph>
    <TTGlyph name="Ohungarumlaut" xMin="52" yMin="-13" xMax="652" yMax="931">
      <contour>
        <pt x="254" y="698" on="1"/>
        <pt x="208" y="734" on="1"/>
        <pt x="225" y="755" on="0"/>
        <pt x="262" y="805" on="0"/>
        <pt x="298" y="858" on="0"/>
        <pt x="330" y="910" on="0"/>
        <pt x="342" y="931" on="1"/>
        <pt x="441" y="877" on="1"/>
        <pt x="407" y="837" on="0"/>
        <pt x="302" y="735" on="0"/>
      </contour>
      <contour>
        <pt x="468" y="697" on="1"/>
        <pt x="420" y="733" on="1"/>
        <pt x="454" y="774" on="0"/>
        <pt x="526" y="880" on="0"/>
        <pt x="550" y="923" on="1"/>
        <pt x="652" y="876" on="1"/>
        <pt x="619" y="835" on="0"/>
        <pt x="516" y="734" on="0"/>
      </contour>
      <contour>
        <pt x="346" y="632" on="1"/>
        <pt x="429" y="632" on="0"/>
        <pt x="537" y="519" on="0"/>
        <pt x="537" y="397" on="1"/>
        <pt x="537" y="318" on="0"/>
        <pt x="493" y="169" on="0"/>
        <pt x="415" y="56" on="0"/>
        <pt x="307" y="-13" on="0"/>
        <pt x="242" y="-13" on="1"/>
        <pt x="160" y="-13" on="0"/>
        <pt x="52" y="100" on="0"/>
        <pt x="52" y="222" on="1"/>
        <pt x="52" y="301" on="0"/>
        <pt x="96" y="450" on="0"/>
        <pt x="173" y="563" on="0"/>
        <pt x="282" y="632" on="0"/>
      </contour>
      <contour>
        <pt x="255" y="83" on="1"/>
        <pt x="292" y="83" on="0"/>
        <pt x="353" y="137" on="0"/>
        <pt x="397" y="225" on="0"/>
        <pt x="421" y="336" on="0"/>
        <pt x="421" y="393" on="1"/>
        <pt x="421" y="467" on="0"/>
        <pt x="373" y="537" on="0"/>
        <pt x="333" y="537" on="1"/>
        <pt x="296" y="537" on="0"/>
        <pt x="235" y="482" on="0"/>
        <pt x="192" y="395" on="0"/>
        <pt x="168" y="283" on="0"/>
        <pt x="168" y="227" on="1"/>
        <pt x="168" y="152" on="0"/>
        <pt x="215" y="83" on="0"/>
      </contour>
    </TTGlyph>
    <TTGlyph name="Omacron" xMin="52" yMin="-13" xMax="567" yMax="825">
      <contour>
        <pt x="567" y="825" on="1"/>
        <pt x="550" y="736" on="1"/>
        <pt x="204" y="736" on="1"/>
        <pt x="222" y="825" on="1"/>
      </contour>
      <contour>
        <pt x="346" y="632" on="1"/>
        <pt x="429" y="632" on="0"/>
        <pt x="537" y="519" on="0"/>
        <pt x="537" y="397" on="1"/>
        <pt x="537" y="318" on="0"/>
        <pt x="493" y="169" on="0"/>
        <pt x="415" y="56" on="0"/>
        <pt x="307" y="-13" on="0"/>
        <pt x="242" y="-13" on="1"/>
        <pt x="160" y="-13" on="0"/>
        <pt x="52" y="100" on="0"/>
        <pt x="52" y="222" on="1"/>
        <pt x="52" y="301" on="0"/>
        <pt x="96" y="450" on="0"/>
        <pt x="173" y="563" on="0"/>
        <pt x="282" y="632" on="0"/>
      </contour>
      <contour>
        <pt x="255" y="83" on="1"/>
        <pt x="292" y="83" on="0"/>
        <pt x="353" y="137" on="0"/>
        <pt x="397" y="225" on="0"/>
        <pt x="421" y="336" on="0"/>
        <pt x="421" y="393" on="1"/>
        <pt x="421" y="467" on="0"/>
        <pt x="373" y="537" on="0"/>
        <pt x="333" y="537" on="1"/>
        <pt x="296" y="537" on="0"/>
        <pt x="235" y="482" on="0"/>
        <pt x="192" y="395" on="0"/>
        <pt x="168" y="283" on="0"/>
        <pt x="168" y="227" on="1"/>
        <pt x="168" y="152" on="0"/>
        <pt x="215" y="83" on="0"/>
      </contour>
    </TTGlyph>
    <TTGlyph name="Omega" xMin="2" yMin="0" xMax="519" yMax="634">
      <contour>
        <pt x="196" y="7" on="1"/>
        <pt x="192" y="0" on="1"/>
        <pt x="2" y="0" on="1"/>
        <pt x="19" y="88" on="1"/>
        <pt x="105" y="88" on="1"/>
        <pt x="95" y="135" on="0"/>
        <pt x="82" y="230" on="0"/>
        <pt x="82" y="281" on="1"/>
        <pt x="82" y="355" on="0"/>
        <pt x="113" y="484" on="0"/>
        <pt x="175" y="579" on="0"/>
        <pt x="272" y="634" on="0"/>
        <pt x="337" y="634" on="1"/>
        <pt x="424" y="634" on="0"/>
        <pt x="519" y="527" on="0"/>
        <pt x="519" y="435" on="1"/>
        <pt x="519" y="361" on="0"/>
        <pt x="458" y="189" on="0"/>
        <pt x="397" y="88" on="1"/>
        <pt x="478" y="88" on="1"/>
        <pt x="461" y="0" on="1"/>
        <pt x="272" y="0" on="1"/>
        <pt x="271" y="7" on="1"/>
        <pt x="342" y="147" on="0"/>
        <pt x="410" y="346" on="0"/>
        <pt x="410" y="418" on="1"/>
        <pt x="410" y="476" on="0"/>
        <pt x="362" y="538" on="0"/>
        <pt x="318" y="538" on="1"/>
        <pt x="283" y="538" on="0"/>
        <pt x="230" y="493" on="0"/>
        <pt x="195" y="415" on="0"/>
        <pt x="178" y="308" on="0"/>
        <pt x="178" y="247" on="1"/>
        <pt x="178" y="200" on="0"/>
        <pt x="181" y="131" on="0"/>
        <pt x="185" y="77" on="0"/>
        <pt x="192" y="31" on="0"/>
      </contour>
    </TTGlyph>
    <TTGlyph name="Oslash" xMin="19" yMin="-44" xMax="568" yMax="664">
      <contour>
        <pt x="169" y="230" on="1"/>
        <pt x="169" y="220" on="0"/>
        <pt x="170" y="200" on="0"/>
        <pt x="171" y="192" on="1"/>
        <pt x="396" y="502" on="1"/>
        <pt x="384" y="521" on="0"/>
        <pt x="350" y="540" on="0"/>
        <pt x="329" y="540" on="1"/>
        <pt x="293" y="540" on="0"/>
        <pt x="233" y="487" on="0"/>
        <pt x="192" y="401" on="0"/>
        <pt x="169" y="289" on="0"/>
      </contour>
      <contour>
        <pt x="260" y="80" on="1"/>
        <pt x="296" y="80" on="0"/>
        <pt x="355" y="133" on="0"/>
        <pt x="397" y="219" on="0"/>
        <pt x="420" y="331" on="0"/>
        <pt x="420" y="390" on="1"/>
        <pt x="420" y="401" on="0"/>
        <pt x="419" y="423" on="0"/>
        <pt x="418" y="432" on="1"/>
        <pt x="191" y="121" on="1"/>
        <pt x="202" y="100" on="0"/>
        <pt x="238" y="80" on="0"/>
      </contour>
      <contour>
        <pt x="246" y="-14" on="1"/>
        <pt x="212" y="-14" on="0"/>
        <pt x="154" y="4" on="0"/>
        <pt x="131" y="23" on="1"/>
        <pt x="82" y="-44" on="1"/>
        <pt x="19" y="-3" on="1"/>
        <pt x="82" y="84" on="1"/>
        <pt x="69" y="112" on="0"/>
        <pt x="54" y="186" on="0"/>
        <pt x="54" y="231" on="1"/>
        <pt x="54" y="310" on="0"/>
        <pt x="97" y="457" on="0"/>
        <pt x="174" y="567" on="0"/>
        <pt x="280" y="634" on="0"/>
        <pt x="343" y="634" on="1"/>
        <pt x="376" y="634" on="0"/>
        <pt x="434" y="616" on="0"/>
        <pt x="457" y="598" on="1"/>
        <pt x="505" y="664" on="1"/>
        <pt x="568" y="623" on="1"/>
        <pt x="505" y="537" on="1"/>
        <pt x="519" y="509" on="0"/>
        <pt x="534" y="435" on="0"/>
        <pt x="534" y="389" on="1"/>
        <pt x="534" y="310" on="0"/>
        <pt x="491" y="163" on="0"/>
        <pt x="415" y="53" on="0"/>
        <pt x="309" y="-14" on="0"/>
      </contour>
    </TTGlyph>
    <TTGlyph name="Oslashacute" xMin="19" yMin="-44" xMax="568" yMax="910">
      <contour>
        <pt x="238" y="742" on="1"/>
        <pt x="262" y="756" on="0"/>
        <pt x="322" y="796" on="0"/>
        <pt x="383" y="841" on="0"/>
        <pt x="442" y="889" on="0"/>
        <pt x="465" y="910" on="1"/>
        <pt x="535" y="826" on="1"/>
        <pt x="508" y="807" on="0"/>
        <pt x="436" y="768" on="0"/>
        <pt x="361" y="734" on="0"/>
        <pt x="287" y="705" on="0"/>
        <pt x="258" y="695" on="1"/>
      </contour>
      <contour>
        <pt x="169" y="230" on="1"/>
        <pt x="169" y="220" on="0"/>
        <pt x="170" y="200" on="0"/>
        <pt x="171" y="192" on="1"/>
        <pt x="396" y="502" on="1"/>
        <pt x="384" y="521" on="0"/>
        <pt x="350" y="540" on="0"/>
        <pt x="329" y="540" on="1"/>
        <pt x="293" y="540" on="0"/>
        <pt x="233" y="487" on="0"/>
        <pt x="192" y="401" on="0"/>
        <pt x="169" y="289" on="0"/>
      </contour>
      <contour>
        <pt x="260" y="80" on="1"/>
        <pt x="296" y="80" on="0"/>
        <pt x="355" y="133" on="0"/>
        <pt x="397" y="219" on="0"/>
        <pt x="420" y="331" on="0"/>
        <pt x="420" y="390" on="1"/>
        <pt x="420" y="401" on="0"/>
        <pt x="419" y="423" on="0"/>
        <pt x="418" y="432" on="1"/>
        <pt x="191" y="121" on="1"/>
        <pt x="202" y="100" on="0"/>
        <pt x="238" y="80" on="0"/>
      </contour>
      <contour>
        <pt x="246" y="-14" on="1"/>
        <pt x="212" y="-14" on="0"/>
        <pt x="154" y="4" on="0"/>
        <pt x="131" y="23" on="1"/>
        <pt x="82" y="-44" on="1"/>
        <pt x="19" y="-3" on="1"/>
        <pt x="82" y="84" on="1"/>
        <pt x="69" y="112" on="0"/>
        <pt x="54" y="186" on="0"/>
        <pt x="54" y="231" on="1"/>
        <pt x="54" y="310" on="0"/>
        <pt x="97" y="457" on="0"/>
        <pt x="174" y="567" on="0"/>
        <pt x="280" y="634" on="0"/>
        <pt x="343" y="634" on="1"/>
        <pt x="376" y="634" on="0"/>
        <pt x="434" y="616" on="0"/>
        <pt x="457" y="598" on="1"/>
        <pt x="505" y="664" on="1"/>
        <pt x="568" y="623" on="1"/>
        <pt x="505" y="537" on="1"/>
        <pt x="519" y="509" on="0"/>
        <pt x="534" y="435" on="0"/>
        <pt x="534" y="389" on="1"/>
        <pt x="534" y="310" on="0"/>
        <pt x="491" y="163" on="0"/>
        <pt x="415" y="53" on="0"/>
        <pt x="309" y="-14" on="0"/>
      </contour>
    </TTGlyph>
    <TTGlyph name="Otilde" xMin="52" yMin="-13" xMax="602" yMax="878">
      <contour>
        <pt x="466" y="786" on="1"/>
        <pt x="482" y="786" on="0"/>
        <pt x="524" y="832" on="0"/>
        <pt x="550" y="872" on="1"/>
        <pt x="602" y="842" on="1"/>
        <pt x="565" y="781" on="0"/>
        <pt x="485" y="704" on="0"/>
        <pt x="445" y="704" on="1"/>
        <pt x="420" y="704" on="0"/>
        <pt x="382" y="733" on="0"/>
        <pt x="350" y="768" on="0"/>
        <pt x="322" y="797" on="0"/>
        <pt x="309" y="797" on="1"/>
        <pt x="293" y="797" on="0"/>
        <pt x="251" y="752" on="0"/>
        <pt x="226" y="712" on="1"/>
        <pt x="173" y="742" on="1"/>
        <pt x="209" y="803" on="0"/>
        <pt x="290" y="878" on="0"/>
        <pt x="330" y="878" on="1"/>
        <pt x="355" y="878" on="0"/>
        <pt x="393" y="849" on="0"/>
        <pt x="425" y="815" on="0"/>
        <pt x="452" y="786" on="0"/>
      </contour>
      <contour>
        <pt x="346" y="632" on="1"/>
        <pt x="429" y="632" on="0"/>
        <pt x="537" y="519" on="0"/>
        <pt x="537" y="397" on="1"/>
        <pt x="537" y="318" on="0"/>
        <pt x="493" y="169" on="0"/>
        <pt x="415" y="56" on="0"/>
        <pt x="307" y="-13" on="0"/>
        <pt x="242" y="-13" on="1"/>
        <pt x="160" y="-13" on="0"/>
        <pt x="52" y="100" on="0"/>
        <pt x="52" y="222" on="1"/>
        <pt x="52" y="301" on="0"/>
        <pt x="96" y="450" on="0"/>
        <pt x="173" y="563" on="0"/>
        <pt x="282" y="632" on="0"/>
      </contour>
      <contour>
        <pt x="255" y="83" on="1"/>
        <pt x="292" y="83" on="0"/>
        <pt x="353" y="137" on="0"/>
        <pt x="397" y="225" on="0"/>
        <pt x="421" y="336" on="0"/>
        <pt x="421" y="393" on="1"/>
        <pt x="421" y="467" on="0"/>
        <pt x="373" y="537" on="0"/>
        <pt x="333" y="537" on="1"/>
        <pt x="296" y="537" on="0"/>
        <pt x="235" y="482" on="0"/>
        <pt x="192" y="395" on="0"/>
        <pt x="168" y="283" on="0"/>
        <pt x="168" y="227" on="1"/>
        <pt x="168" y="152" on="0"/>
        <pt x="215" y="83" on="0"/>
      </contour>
    </TTGlyph>
    <TTGlyph name="P" xMin="42" yMin="0" xMax="545" yMax="627">
      <contour>
        <pt x="152" y="0" on="1"/>
        <pt x="42" y="0" on="1"/>
        <pt x="161" y="617" on="1"/>
        <pt x="196" y="622" on="0"/>
        <pt x="259" y="627" on="0"/>
        <pt x="287" y="627" on="1"/>
        <pt x="423" y="627" on="0"/>
        <pt x="545" y="527" on="0"/>
        <pt x="545" y="452" on="1"/>
        <pt x="545" y="345" on="0"/>
        <pt x="355" y="203" on="0"/>
        <pt x="188" y="185" on="1"/>
      </contour>
      <contour>
        <pt x="231" y="283" on="1"/>
        <pt x="331" y="283" on="0"/>
        <pt x="437" y="369" on="0"/>
        <pt x="437" y="434" on="1"/>
        <pt x="437" y="480" on="0"/>
        <pt x="370" y="535" on="0"/>
        <pt x="304" y="535" on="1"/>
        <pt x="293" y="535" on="0"/>
        <pt x="268" y="533" on="0"/>
        <pt x="255" y="531" on="1"/>
        <pt x="207" y="283" on="1"/>
        <pt x="213" y="283" on="0"/>
        <pt x="225" y="283" on="0"/>
      </contour>
    </TTGlyph>
    <TTGlyph name="Q" xMin="66" yMin="-147" xMax="538" yMax="634">
      <contour>
        <pt x="409" y="-147" on="1"/>
        <pt x="112" y="-19" on="1"/>
        <pt x="139" y="62" on="1"/>
        <pt x="203" y="86" on="0"/>
        <pt x="308" y="164" on="0"/>
        <pt x="382" y="258" on="0"/>
        <pt x="423" y="365" on="0"/>
        <pt x="423" y="418" on="1"/>
        <pt x="423" y="479" on="0"/>
        <pt x="371" y="539" on="0"/>
        <pt x="325" y="539" on="1"/>
        <pt x="260" y="539" on="0"/>
        <pt x="176" y="408" on="0"/>
        <pt x="176" y="299" on="1"/>
        <pt x="176" y="268" on="0"/>
        <pt x="184" y="200" on="0"/>
        <pt x="192" y="163" on="1"/>
        <pt x="96" y="128" on="1"/>
        <pt x="80" y="171" on="0"/>
        <pt x="66" y="257" on="0"/>
        <pt x="66" y="298" on="1"/>
        <pt x="66" y="367" on="0"/>
        <pt x="105" y="489" on="0"/>
        <pt x="177" y="581" on="0"/>
        <pt x="279" y="634" on="0"/>
        <pt x="341" y="634" on="1"/>
        <pt x="439" y="634" on="0"/>
        <pt x="538" y="515" on="0"/>
        <pt x="538" y="422" on="1"/>
        <pt x="538" y="361" on="0"/>
        <pt x="494" y="244" on="0"/>
        <pt x="417" y="143" on="0"/>
        <pt x="313" y="57" on="0"/>
        <pt x="253" y="27" on="1"/>
        <pt x="454" y="-58" on="1"/>
      </contour>
    </TTGlyph>
    <TTGlyph name="R" xMin="37" yMin="-8" xMax="525" yMax="627">
      <contour>
        <pt x="372" y="-8" on="1"/>
        <pt x="239" y="279" on="1"/>
        <pt x="239" y="280" on="1"/>
        <pt x="335" y="324" on="0"/>
        <pt x="414" y="406" on="0"/>
        <pt x="414" y="453" on="1"/>
        <pt x="414" y="492" on="0"/>
        <pt x="354" y="534" on="0"/>
        <pt x="296" y="534" on="1"/>
        <pt x="286" y="534" on="0"/>
        <pt x="262" y="532" on="0"/>
        <pt x="249" y="531" on="1"/>
        <pt x="147" y="0" on="1"/>
        <pt x="37" y="0" on="1"/>
        <pt x="156" y="617" on="1"/>
        <pt x="193" y="622" on="0"/>
        <pt x="258" y="627" on="0"/>
        <pt x="286" y="627" on="1"/>
        <pt x="418" y="627" on="0"/>
        <pt x="525" y="538" on="0"/>
        <pt x="525" y="475" on="1"/>
        <pt x="525" y="409" on="0"/>
        <pt x="436" y="304" on="0"/>
        <pt x="363" y="264" on="1"/>
        <pt x="492" y="8" on="1"/>
      </contour>
    </TTGlyph>
    <TTGlyph name="R_p" xMin="2" yMin="-175" xMax="571" yMax="625">
      <contour>
        <pt x="167" y="-6" on="1"/>
        <pt x="142" y="227" on="1"/>
        <pt x="129" y="224" on="1"/>
        <pt x="84" y="0" on="1"/>
        <pt x="2" y="0" on="1"/>
        <pt x="123" y="620" on="1"/>
        <pt x="140" y="622" on="0"/>
        <pt x="172" y="625" on="0"/>
        <pt x="186" y="625" on="1"/>
        <pt x="262" y="625" on="0"/>
        <pt x="330" y="561" on="0"/>
        <pt x="330" y="504" on="1"/>
        <pt x="330" y="441" on="0"/>
        <pt x="267" y="320" on="0"/>
        <pt x="217" y="273" on="1"/>
        <pt x="253" y="6" on="1"/>
      </contour>
      <contour>
        <pt x="329" y="-167" on="1"/>
        <pt x="248" y="-175" on="1"/>
        <pt x="256" y="-134" on="0"/>
        <pt x="295" y="70" on="0"/>
        <pt x="337" y="289" on="0"/>
        <pt x="372" y="473" on="0"/>
        <pt x="375" y="494" on="1"/>
        <pt x="450" y="500" on="1"/>
        <pt x="444" y="458" on="1"/>
        <pt x="462" y="480" on="0"/>
        <pt x="503" y="510" on="0"/>
        <pt x="522" y="510" on="1"/>
        <pt x="546" y="510" on="0"/>
        <pt x="571" y="455" on="0"/>
        <pt x="571" y="394" on="1"/>
        <pt x="571" y="333" on="0"/>
        <pt x="544" y="191" on="0"/>
        <pt x="495" y="71" on="0"/>
        <pt x="426" y="-9" on="0"/>
        <pt x="385" y="-9" on="1"/>
        <pt x="380" y="-9" on="0"/>
        <pt x="367" y="-7" on="0"/>
        <pt x="360" y="-6" on="1"/>
        <pt x="359" y="-13" on="0"/>
        <pt x="350" y="-60" on="0"/>
        <pt x="339" y="-113" on="0"/>
        <pt x="330" y="-160" on="0"/>
      </contour>
    </TTGlyph>
    <TTGlyph name="Racute" xMin="37" yMin="-8" xMax="525" yMax="903">
      <contour>
        <pt x="221" y="735" on="1"/>
        <pt x="245" y="749" on="0"/>
        <pt x="305" y="789" on="0"/>
        <pt x="366" y="834" on="0"/>
        <pt x="425" y="882" on="0"/>
        <pt x="448" y="903" on="1"/>
        <pt x="518" y="819" on="1"/>
        <pt x="491" y="800" on="0"/>
        <pt x="419" y="761" on="0"/>
        <pt x="344" y="727" on="0"/>
        <pt x="270" y="698" on="0"/>
        <pt x="241" y="688" on="1"/>
      </contour>
      <contour>
        <pt x="372" y="-8" on="1"/>
        <pt x="239" y="279" on="1"/>
        <pt x="239" y="280" on="1"/>
        <pt x="335" y="324" on="0"/>
        <pt x="414" y="406" on="0"/>
        <pt x="414" y="453" on="1"/>
        <pt x="414" y="492" on="0"/>
        <pt x="354" y="534" on="0"/>
        <pt x="296" y="534" on="1"/>
        <pt x="286" y="534" on="0"/>
        <pt x="262" y="532" on="0"/>
        <pt x="249" y="531" on="1"/>
        <pt x="147" y="0" on="1"/>
        <pt x="37" y="0" on="1"/>
        <pt x="156" y="617" on="1"/>
        <pt x="193" y="622" on="0"/>
        <pt x="258" y="627" on="0"/>
        <pt x="286" y="627" on="1"/>
        <pt x="418" y="627" on="0"/>
        <pt x="525" y="538" on="0"/>
        <pt x="525" y="475" on="1"/>
        <pt x="525" y="409" on="0"/>
        <pt x="436" y="304" on="0"/>
        <pt x="363" y="264" on="1"/>
        <pt x="492" y="8" on="1"/>
      </contour>
    </TTGlyph>
    <TTGlyph name="Rcaron" xMin="37" yMin="-8" xMax="564" yMax="888">
      <contour>
        <pt x="351" y="683" on="1"/>
        <pt x="344" y="683" on="1"/>
        <pt x="195" y="832" on="1"/>
        <pt x="268" y="888" on="1"/>
        <pt x="366" y="783" on="1"/>
        <pt x="516" y="884" on="1"/>
        <pt x="564" y="830" on="1"/>
      </contour>
      <contour>
        <pt x="372" y="-8" on="1"/>
        <pt x="239" y="279" on="1"/>
        <pt x="239" y="280" on="1"/>
        <pt x="335" y="324" on="0"/>
        <pt x="414" y="406" on="0"/>
        <pt x="414" y="453" on="1"/>
        <pt x="414" y="492" on="0"/>
        <pt x="354" y="534" on="0"/>
        <pt x="296" y="534" on="1"/>
        <pt x="286" y="534" on="0"/>
        <pt x="262" y="532" on="0"/>
        <pt x="249" y="531" on="1"/>
        <pt x="147" y="0" on="1"/>
        <pt x="37" y="0" on="1"/>
        <pt x="156" y="617" on="1"/>
        <pt x="193" y="622" on="0"/>
        <pt x="258" y="627" on="0"/>
        <pt x="286" y="627" on="1"/>
        <pt x="418" y="627" on="0"/>
        <pt x="525" y="538" on="0"/>
        <pt x="525" y="475" on="1"/>
        <pt x="525" y="409" on="0"/>
        <pt x="436" y="304" on="0"/>
        <pt x="363" y="264" on="1"/>
        <pt x="492" y="8" on="1"/>
      </contour>
    </TTGlyph>
    <TTGlyph name="Rcommaaccent" xMin="37" yMin="-288" xMax="525" yMax="627">
      <contour>
        <pt x="372" y="-8" on="1"/>
        <pt x="239" y="279" on="1"/>
        <pt x="239" y="280" on="1"/>
        <pt x="335" y="324" on="0"/>
        <pt x="414" y="406" on="0"/>
        <pt x="414" y="453" on="1"/>
        <pt x="414" y="492" on="0"/>
        <pt x="354" y="534" on="0"/>
        <pt x="296" y="534" on="1"/>
        <pt x="286" y="534" on="0"/>
        <pt x="262" y="532" on="0"/>
        <pt x="249" y="531" on="1"/>
        <pt x="147" y="0" on="1"/>
        <pt x="37" y="0" on="1"/>
        <pt x="156" y="617" on="1"/>
        <pt x="193" y="622" on="0"/>
        <pt x="258" y="627" on="0"/>
        <pt x="286" y="627" on="1"/>
        <pt x="418" y="627" on="0"/>
        <pt x="525" y="538" on="0"/>
        <pt x="525" y="475" on="1"/>
        <pt x="525" y="409" on="0"/>
        <pt x="436" y="304" on="0"/>
        <pt x="363" y="264" on="1"/>
        <pt x="492" y="8" on="1"/>
      </contour>
      <contour>
        <pt x="129" y="-269" on="1"/>
        <pt x="149" y="-232" on="0"/>
        <pt x="167" y="-156" on="0"/>
        <pt x="167" y="-119" on="1"/>
        <pt x="167" y="-109" on="0"/>
        <pt x="165" y="-87" on="0"/>
        <pt x="164" y="-77" on="1"/>
        <pt x="299" y="-75" on="1"/>
        <pt x="292" y="-133" on="0"/>
        <pt x="227" y="-246" on="0"/>
        <pt x="173" y="-288" on="1"/>
      </contour>
    </TTGlyph>
    <TTGlyph name="S" xMin="27" yMin="-8" xMax="522" yMax="632">
      <contour>
        <pt x="522" y="455" on="1"/>
        <pt x="425" y="436" on="1"/>
        <pt x="413" y="491" on="0"/>
        <pt x="361" y="539" on="0"/>
        <pt x="318" y="539" on="1"/>
        <pt x="277" y="539" on="0"/>
        <pt x="223" y="490" on="0"/>
        <pt x="223" y="456" on="1"/>
        <pt x="223" y="417" on="0"/>
        <pt x="300" y="351" on="0"/>
        <pt x="393" y="283" on="0"/>
        <pt x="470" y="203" on="0"/>
        <pt x="470" y="152" on="1"/>
        <pt x="470" y="122" on="0"/>
        <pt x="440" y="64" on="0"/>
        <pt x="377" y="19" on="0"/>
        <pt x="277" y="-8" on="0"/>
        <pt x="208" y="-8" on="1"/>
        <pt x="170" y="-8" on="0"/>
        <pt x="78" y="2" on="0"/>
        <pt x="27" y="12" on="1"/>
        <pt x="49" y="120" on="1"/>
        <pt x="113" y="103" on="0"/>
        <pt x="211" y="87" on="0"/>
        <pt x="246" y="87" on="1"/>
        <pt x="305" y="87" on="0"/>
        <pt x="355" y="122" on="0"/>
        <pt x="355" y="146" on="1"/>
        <pt x="355" y="179" on="0"/>
        <pt x="279" y="240" on="0"/>
        <pt x="187" y="307" on="0"/>
        <pt x="111" y="389" on="0"/>
        <pt x="111" y="443" on="1"/>
        <pt x="111" y="480" on="0"/>
        <pt x="144" y="549" on="0"/>
        <pt x="205" y="601" on="0"/>
        <pt x="289" y="632" on="0"/>
        <pt x="340" y="632" on="1"/>
        <pt x="422" y="632" on="0"/>
        <pt x="508" y="540" on="0"/>
      </contour>
    </TTGlyph>
    <TTGlyph name="Sacute" xMin="27" yMin="-8" xMax="542" yMax="908">
      <contour>
        <pt x="245" y="740" on="1"/>
        <pt x="269" y="754" on="0"/>
        <pt x="329" y="794" on="0"/>
        <pt x="390" y="839" on="0"/>
        <pt x="449" y="887" on="0"/>
        <pt x="472" y="908" on="1"/>
        <pt x="542" y="824" on="1"/>
        <pt x="515" y="805" on="0"/>
        <pt x="443" y="766" on="0"/>
        <pt x="368" y="732" on="0"/>
        <pt x="294" y="703" on="0"/>
        <pt x="265" y="693" on="1"/>
      </contour>
      <contour>
        <pt x="522" y="455" on="1"/>
        <pt x="425" y="436" on="1"/>
        <pt x="413" y="491" on="0"/>
        <pt x="361" y="539" on="0"/>
        <pt x="318" y="539" on="1"/>
        <pt x="277" y="539" on="0"/>
        <pt x="223" y="490" on="0"/>
        <pt x="223" y="456" on="1"/>
        <pt x="223" y="417" on="0"/>
        <pt x="300" y="351" on="0"/>
        <pt x="393" y="283" on="0"/>
        <pt x="470" y="203" on="0"/>
        <pt x="470" y="152" on="1"/>
        <pt x="470" y="122" on="0"/>
        <pt x="440" y="64" on="0"/>
        <pt x="377" y="19" on="0"/>
        <pt x="277" y="-8" on="0"/>
        <pt x="208" y="-8" on="1"/>
        <pt x="170" y="-8" on="0"/>
        <pt x="78" y="2" on="0"/>
        <pt x="27" y="12" on="1"/>
        <pt x="49" y="120" on="1"/>
        <pt x="113" y="103" on="0"/>
        <pt x="211" y="87" on="0"/>
        <pt x="246" y="87" on="1"/>
        <pt x="305" y="87" on="0"/>
        <pt x="355" y="122" on="0"/>
        <pt x="355" y="146" on="1"/>
        <pt x="355" y="179" on="0"/>
        <pt x="279" y="240" on="0"/>
        <pt x="187" y="307" on="0"/>
        <pt x="111" y="389" on="0"/>
        <pt x="111" y="443" on="1"/>
        <pt x="111" y="480" on="0"/>
        <pt x="144" y="549" on="0"/>
        <pt x="205" y="601" on="0"/>
        <pt x="289" y="632" on="0"/>
        <pt x="340" y="632" on="1"/>
        <pt x="422" y="632" on="0"/>
        <pt x="508" y="540" on="0"/>
      </contour>
    </TTGlyph>
    <TTGlyph name="Scaron" xMin="27" yMin="-8" xMax="589" yMax="893">
      <contour>
        <pt x="376" y="688" on="1"/>
        <pt x="369" y="688" on="1"/>
        <pt x="220" y="837" on="1"/>
        <pt x="293" y="893" on="1"/>
        <pt x="391" y="788" on="1"/>
        <pt x="541" y="889" on="1"/>
        <pt x="589" y="835" on="1"/>
      </contour>
      <contour>
        <pt x="522" y="455" on="1"/>
        <pt x="425" y="436" on="1"/>
        <pt x="413" y="491" on="0"/>
        <pt x="361" y="539" on="0"/>
        <pt x="318" y="539" on="1"/>
        <pt x="277" y="539" on="0"/>
        <pt x="223" y="490" on="0"/>
        <pt x="223" y="456" on="1"/>
        <pt x="223" y="417" on="0"/>
        <pt x="300" y="351" on="0"/>
        <pt x="393" y="283" on="0"/>
        <pt x="470" y="203" on="0"/>
        <pt x="470" y="152" on="1"/>
        <pt x="470" y="122" on="0"/>
        <pt x="440" y="64" on="0"/>
        <pt x="377" y="19" on="0"/>
        <pt x="277" y="-8" on="0"/>
        <pt x="208" y="-8" on="1"/>
        <pt x="170" y="-8" on="0"/>
        <pt x="78" y="2" on="0"/>
        <pt x="27" y="12" on="1"/>
        <pt x="49" y="120" on="1"/>
        <pt x="113" y="103" on="0"/>
        <pt x="211" y="87" on="0"/>
        <pt x="246" y="87" on="1"/>
        <pt x="305" y="87" on="0"/>
        <pt x="355" y="122" on="0"/>
        <pt x="355" y="146" on="1"/>
        <pt x="355" y="179" on="0"/>
        <pt x="279" y="240" on="0"/>
        <pt x="187" y="307" on="0"/>
        <pt x="111" y="389" on="0"/>
        <pt x="111" y="443" on="1"/>
        <pt x="111" y="480" on="0"/>
        <pt x="144" y="549" on="0"/>
        <pt x="205" y="601" on="0"/>
        <pt x="289" y="632" on="0"/>
        <pt x="340" y="632" on="1"/>
        <pt x="422" y="632" on="0"/>
        <pt x="508" y="540" on="0"/>
      </contour>
    </TTGlyph>
    <TTGlyph name="Scedilla" xMin="27" yMin="-188" xMax="522" yMax="632">
      <contour>
        <pt x="245" y="-188" on="1"/>
        <pt x="246" y="-180" on="0"/>
        <pt x="246" y="-165" on="0"/>
        <pt x="246" y="-158" on="1"/>
        <pt x="246" y="-109" on="0"/>
        <pt x="224" y="-66" on="0"/>
        <pt x="205" y="-66" on="1"/>
        <pt x="183" y="-66" on="0"/>
        <pt x="140" y="-117" on="0"/>
        <pt x="118" y="-163" on="1"/>
        <pt x="63" y="-145" on="1"/>
        <pt x="85" y="-92" on="0"/>
        <pt x="134" y="-23" on="0"/>
        <pt x="161" y="-6" on="1"/>
        <pt x="131" y="-5" on="0"/>
        <pt x="64" y="5" on="0"/>
        <pt x="27" y="12" on="1"/>
        <pt x="49" y="120" on="1"/>
        <pt x="113" y="103" on="0"/>
        <pt x="211" y="87" on="0"/>
        <pt x="246" y="87" on="1"/>
        <pt x="305" y="87" on="0"/>
        <pt x="355" y="122" on="0"/>
        <pt x="355" y="146" on="1"/>
        <pt x="355" y="179" on="0"/>
        <pt x="279" y="240" on="0"/>
        <pt x="187" y="307" on="0"/>
        <pt x="111" y="389" on="0"/>
        <pt x="111" y="443" on="1"/>
        <pt x="111" y="480" on="0"/>
        <pt x="144" y="549" on="0"/>
        <pt x="205" y="601" on="0"/>
        <pt x="289" y="632" on="0"/>
        <pt x="340" y="632" on="1"/>
        <pt x="422" y="632" on="0"/>
        <pt x="508" y="540" on="0"/>
        <pt x="522" y="455" on="1"/>
        <pt x="425" y="436" on="1"/>
        <pt x="413" y="491" on="0"/>
        <pt x="361" y="539" on="0"/>
        <pt x="318" y="539" on="1"/>
        <pt x="277" y="539" on="0"/>
        <pt x="223" y="490" on="0"/>
        <pt x="223" y="456" on="1"/>
        <pt x="223" y="417" on="0"/>
        <pt x="300" y="351" on="0"/>
        <pt x="393" y="283" on="0"/>
        <pt x="470" y="203" on="0"/>
        <pt x="470" y="152" on="1"/>
        <pt x="470" y="99" on="0"/>
        <pt x="377" y="8" on="0"/>
        <pt x="273" y="-4" on="1"/>
        <pt x="302" y="-22" on="0"/>
        <pt x="339" y="-100" on="0"/>
        <pt x="339" y="-162" on="1"/>
        <pt x="339" y="-167" on="0"/>
        <pt x="339" y="-180" on="0"/>
        <pt x="338" y="-186" on="1"/>
      </contour>
    </TTGlyph>
    <TTGlyph name="Scommaaccent" xMin="27" yMin="-289" xMax="522" yMax="632">
      <contour>
        <pt x="522" y="455" on="1"/>
        <pt x="425" y="436" on="1"/>
        <pt x="413" y="491" on="0"/>
        <pt x="361" y="539" on="0"/>
        <pt x="318" y="539" on="1"/>
        <pt x="277" y="539" on="0"/>
        <pt x="223" y="490" on="0"/>
        <pt x="223" y="456" on="1"/>
        <pt x="223" y="417" on="0"/>
        <pt x="300" y="351" on="0"/>
        <pt x="393" y="283" on="0"/>
        <pt x="470" y="203" on="0"/>
        <pt x="470" y="152" on="1"/>
        <pt x="470" y="122" on="0"/>
        <pt x="440" y="64" on="0"/>
        <pt x="377" y="19" on="0"/>
        <pt x="277" y="-8" on="0"/>
        <pt x="208" y="-8" on="1"/>
        <pt x="170" y="-8" on="0"/>
        <pt x="78" y="2" on="0"/>
        <pt x="27" y="12" on="1"/>
        <pt x="49" y="120" on="1"/>
        <pt x="113" y="103" on="0"/>
        <pt x="211" y="87" on="0"/>
        <pt x="246" y="87" on="1"/>
        <pt x="305" y="87" on="0"/>
        <pt x="355" y="122" on="0"/>
        <pt x="355" y="146" on="1"/>
        <pt x="355" y="179" on="0"/>
        <pt x="279" y="240" on="0"/>
        <pt x="187" y="307" on="0"/>
        <pt x="111" y="389" on="0"/>
        <pt x="111" y="443" on="1"/>
        <pt x="111" y="480" on="0"/>
        <pt x="144" y="549" on="0"/>
        <pt x="205" y="601" on="0"/>
        <pt x="289" y="632" on="0"/>
        <pt x="340" y="632" on="1"/>
        <pt x="422" y="632" on="0"/>
        <pt x="508" y="540" on="0"/>
      </contour>
      <contour>
        <pt x="109" y="-270" on="1"/>
        <pt x="129" y="-233" on="0"/>
        <pt x="147" y="-157" on="0"/>
        <pt x="147" y="-120" on="1"/>
        <pt x="147" y="-110" on="0"/>
        <pt x="145" y="-88" on="0"/>
        <pt x="144" y="-78" on="1"/>
        <pt x="279" y="-76" on="1"/>
        <pt x="272" y="-134" on="0"/>
        <pt x="207" y="-247" on="0"/>
        <pt x="153" y="-289" on="1"/>
      </contour>
    </TTGlyph>
    <TTGlyph name="T" xMin="94" yMin="0" xMax="582" yMax="620">
      <contour>
        <pt x="385" y="525" on="1"/>
        <pt x="283" y="0" on="1"/>
        <pt x="171" y="0" on="1"/>
        <pt x="272" y="525" on="1"/>
        <pt x="94" y="525" on="1"/>
        <pt x="113" y="620" on="1"/>
        <pt x="582" y="620" on="1"/>
        <pt x="563" y="525" on="1"/>
      </contour>
    </TTGlyph>
    <TTGlyph name="Tcaron" xMin="94" yMin="0" xMax="582" yMax="881">
      <contour>
        <pt x="358" y="676" on="1"/>
        <pt x="351" y="676" on="1"/>
        <pt x="202" y="825" on="1"/>
        <pt x="275" y="881" on="1"/>
        <pt x="373" y="776" on="1"/>
        <pt x="523" y="877" on="1"/>
        <pt x="571" y="823" on="1"/>
      </contour>
      <contour>
        <pt x="385" y="525" on="1"/>
        <pt x="283" y="0" on="1"/>
        <pt x="171" y="0" on="1"/>
        <pt x="272" y="525" on="1"/>
        <pt x="94" y="525" on="1"/>
        <pt x="113" y="620" on="1"/>
        <pt x="582" y="620" on="1"/>
        <pt x="563" y="525" on="1"/>
      </contour>
    </TTGlyph>
    <TTGlyph name="Tcommaaccent" xMin="94" yMin="-280" xMax="582" yMax="620">
      <contour>
        <pt x="385" y="525" on="1"/>
        <pt x="283" y="0" on="1"/>
        <pt x="171" y="0" on="1"/>
        <pt x="272" y="525" on="1"/>
        <pt x="94" y="525" on="1"/>
        <pt x="113" y="620" on="1"/>
        <pt x="582" y="620" on="1"/>
        <pt x="563" y="525" on="1"/>
      </contour>
      <contour>
        <pt x="111" y="-261" on="1"/>
        <pt x="131" y="-224" on="0"/>
        <pt x="149" y="-148" on="0"/>
        <pt x="149" y="-111" on="1"/>
        <pt x="149" y="-101" on="0"/>
        <pt x="147" y="-79" on="0"/>
        <pt x="146" y="-69" on="1"/>
        <pt x="281" y="-67" on="1"/>
        <pt x="274" y="-125" on="0"/>
        <pt x="209" y="-238" on="0"/>
        <pt x="155" y="-280" on="1"/>
      </contour>
    </TTGlyph>
    <TTGlyph name="Thorn" xMin="42" yMin="0" xMax="527" yMax="620">
      <contour>
        <pt x="152" y="0" on="1"/>
        <pt x="42" y="0" on="1"/>
        <pt x="163" y="620" on="1"/>
        <pt x="274" y="620" on="1"/>
        <pt x="257" y="534" on="1"/>
        <pt x="260" y="534" on="0"/>
        <pt x="266" y="534" on="0"/>
        <pt x="269" y="534" on="1"/>
        <pt x="406" y="534" on="0"/>
        <pt x="527" y="435" on="0"/>
        <pt x="527" y="360" on="1"/>
        <pt x="527" y="252" on="0"/>
        <pt x="337" y="111" on="0"/>
        <pt x="170" y="92" on="1"/>
      </contour>
      <contour>
        <pt x="213" y="190" on="1"/>
        <pt x="312" y="190" on="0"/>
        <pt x="418" y="277" on="0"/>
        <pt x="418" y="341" on="1"/>
        <pt x="418" y="387" on="0"/>
        <pt x="350" y="443" on="0"/>
        <pt x="284" y="443" on="1"/>
        <pt x="274" y="443" on="0"/>
        <pt x="251" y="441" on="0"/>
        <pt x="239" y="440" on="1"/>
        <pt x="189" y="190" on="1"/>
        <pt x="196" y="190" on="0"/>
        <pt x="208" y="190" on="0"/>
      </contour>
    </TTGlyph>
    <TTGlyph name="U" xMin="63" yMin="-14" xMax="561" yMax="620">
      <contour>
        <pt x="182" y="230" on="1"/>
        <pt x="178" y="213" on="0"/>
        <pt x="175" y="183" on="0"/>
        <pt x="175" y="170" on="1"/>
        <pt x="175" y="121" on="0"/>
        <pt x="219" y="82" on="0"/>
        <pt x="256" y="82" on="1"/>
        <pt x="300" y="82" on="0"/>
        <pt x="357" y="141" on="0"/>
        <pt x="370" y="205" on="1"/>
        <pt x="450" y="620" on="1"/>
        <pt x="561" y="620" on="1"/>
        <pt x="481" y="207" on="1"/>
        <pt x="458" y="90" on="0"/>
        <pt x="334" y="-14" on="0"/>
        <pt x="242" y="-14" on="1"/>
        <pt x="161" y="-14" on="0"/>
        <pt x="63" y="67" on="0"/>
        <pt x="63" y="156" on="1"/>
        <pt x="63" y="174" on="0"/>
        <pt x="68" y="214" on="0"/>
        <pt x="72" y="236" on="1"/>
        <pt x="147" y="620" on="1"/>
        <pt x="257" y="620" on="1"/>
      </contour>
    </TTGlyph>
    <TTGlyph name="Uacute" xMin="63" yMin="-14" xMax="561" yMax="896">
      <contour>
        <pt x="235" y="728" on="1"/>
        <pt x="259" y="742" on="0"/>
        <pt x="319" y="782" on="0"/>
        <pt x="380" y="827" on="0"/>
        <pt x="439" y="875" on="0"/>
        <pt x="462" y="896" on="1"/>
        <pt x="532" y="812" on="1"/>
        <pt x="505" y="793" on="0"/>
        <pt x="433" y="754" on="0"/>
        <pt x="358" y="720" on="0"/>
        <pt x="284" y="691" on="0"/>
        <pt x="255" y="681" on="1"/>
      </contour>
      <contour>
        <pt x="182" y="230" on="1"/>
        <pt x="178" y="213" on="0"/>
        <pt x="175" y="183" on="0"/>
        <pt x="175" y="170" on="1"/>
        <pt x="175" y="121" on="0"/>
        <pt x="219" y="82" on="0"/>
        <pt x="256" y="82" on="1"/>
        <pt x="300" y="82" on="0"/>
        <pt x="357" y="141" on="0"/>
        <pt x="370" y="205" on="1"/>
        <pt x="450" y="620" on="1"/>
        <pt x="561" y="620" on="1"/>
        <pt x="481" y="207" on="1"/>
        <pt x="458" y="90" on="0"/>
        <pt x="334" y="-14" on="0"/>
        <pt x="242" y="-14" on="1"/>
        <pt x="161" y="-14" on="0"/>
        <pt x="63" y="67" on="0"/>
        <pt x="63" y="156" on="1"/>
        <pt x="63" y="174" on="0"/>
        <pt x="68" y="214" on="0"/>
        <pt x="72" y="236" on="1"/>
        <pt x="147" y="620" on="1"/>
        <pt x="257" y="620" on="1"/>
      </contour>
    </TTGlyph>
    <TTGlyph name="Ubreve" xMin="63" yMin="-14" xMax="591" yMax="876">
      <contour>
        <pt x="530" y="870" on="1"/>
        <pt x="591" y="833" on="1"/>
        <pt x="537" y="764" on="0"/>
        <pt x="423" y="686" on="0"/>
        <pt x="367" y="686" on="1"/>
        <pt x="314" y="686" on="0"/>
        <pt x="227" y="760" on="0"/>
        <pt x="199" y="833" on="1"/>
        <pt x="279" y="876" on="1"/>
        <pt x="303" y="821" on="0"/>
        <pt x="354" y="770" on="0"/>
        <pt x="390" y="770" on="1"/>
        <pt x="424" y="770" on="0"/>
        <pt x="490" y="823" on="0"/>
      </contour>
      <contour>
        <pt x="182" y="230" on="1"/>
        <pt x="178" y="213" on="0"/>
        <pt x="175" y="183" on="0"/>
        <pt x="175" y="170" on="1"/>
        <pt x="175" y="121" on="0"/>
        <pt x="219" y="82" on="0"/>
        <pt x="256" y="82" on="1"/>
        <pt x="300" y="82" on="0"/>
        <pt x="357" y="141" on="0"/>
        <pt x="370" y="205" on="1"/>
        <pt x="450" y="620" on="1"/>
        <pt x="561" y="620" on="1"/>
        <pt x="481" y="207" on="1"/>
        <pt x="458" y="90" on="0"/>
        <pt x="334" y="-14" on="0"/>
        <pt x="242" y="-14" on="1"/>
        <pt x="161" y="-14" on="0"/>
        <pt x="63" y="67" on="0"/>
        <pt x="63" y="156" on="1"/>
        <pt x="63" y="174" on="0"/>
        <pt x="68" y="214" on="0"/>
        <pt x="72" y="236" on="1"/>
        <pt x="147" y="620" on="1"/>
        <pt x="257" y="620" on="1"/>
      </contour>
    </TTGlyph>
    <TTGlyph name="Ucircumflex" xMin="63" yMin="-14" xMax="561" yMax="884">
      <contour>
        <pt x="488" y="679" on="1"/>
        <pt x="390" y="785" on="1"/>
        <pt x="240" y="683" on="1"/>
        <pt x="192" y="738" on="1"/>
        <pt x="406" y="884" on="1"/>
        <pt x="412" y="884" on="1"/>
        <pt x="561" y="735" on="1"/>
      </contour>
      <contour>
        <pt x="182" y="230" on="1"/>
        <pt x="178" y="213" on="0"/>
        <pt x="175" y="183" on="0"/>
        <pt x="175" y="170" on="1"/>
        <pt x="175" y="121" on="0"/>
        <pt x="219" y="82" on="0"/>
        <pt x="256" y="82" on="1"/>
        <pt x="300" y="82" on="0"/>
        <pt x="357" y="141" on="0"/>
        <pt x="370" y="205" on="1"/>
        <pt x="450" y="620" on="1"/>
        <pt x="561" y="620" on="1"/>
        <pt x="481" y="207" on="1"/>
        <pt x="458" y="90" on="0"/>
        <pt x="334" y="-14" on="0"/>
        <pt x="242" y="-14" on="1"/>
        <pt x="161" y="-14" on="0"/>
        <pt x="63" y="67" on="0"/>
        <pt x="63" y="156" on="1"/>
        <pt x="63" y="174" on="0"/>
        <pt x="68" y="214" on="0"/>
        <pt x="72" y="236" on="1"/>
        <pt x="147" y="620" on="1"/>
        <pt x="257" y="620" on="1"/>
      </contour>
    </TTGlyph>
    <TTGlyph name="Udieresis" xMin="63" yMin="-14" xMax="570" yMax="835">
      <contour>
        <pt x="527" y="699" on="1"/>
        <pt x="414" y="698" on="1"/>
        <pt x="447" y="832" on="1"/>
        <pt x="570" y="835" on="1"/>
      </contour>
      <contour>
        <pt x="308" y="697" on="1"/>
        <pt x="194" y="696" on="1"/>
        <pt x="227" y="831" on="1"/>
        <pt x="350" y="832" on="1"/>
      </contour>
      <contour>
        <pt x="182" y="230" on="1"/>
        <pt x="178" y="213" on="0"/>
        <pt x="175" y="183" on="0"/>
        <pt x="175" y="170" on="1"/>
        <pt x="175" y="121" on="0"/>
        <pt x="219" y="82" on="0"/>
        <pt x="256" y="82" on="1"/>
        <pt x="300" y="82" on="0"/>
        <pt x="357" y="141" on="0"/>
        <pt x="370" y="205" on="1"/>
        <pt x="450" y="620" on="1"/>
        <pt x="561" y="620" on="1"/>
        <pt x="481" y="207" on="1"/>
        <pt x="458" y="90" on="0"/>
        <pt x="334" y="-14" on="0"/>
        <pt x="242" y="-14" on="1"/>
        <pt x="161" y="-14" on="0"/>
        <pt x="63" y="67" on="0"/>
        <pt x="63" y="156" on="1"/>
        <pt x="63" y="174" on="0"/>
        <pt x="68" y="214" on="0"/>
        <pt x="72" y="236" on="1"/>
        <pt x="147" y="620" on="1"/>
        <pt x="257" y="620" on="1"/>
      </contour>
    </TTGlyph>
    <TTGlyph name="Ugrave" xMin="63" yMin="-14" xMax="561" yMax="900">
      <contour>
        <pt x="513" y="721" on="1"/>
        <pt x="489" y="677" on="1"/>
        <pt x="463" y="687" on="0"/>
        <pt x="397" y="720" on="0"/>
        <pt x="329" y="757" on="0"/>
        <pt x="263" y="797" on="0"/>
        <pt x="238" y="815" on="1"/>
        <pt x="304" y="900" on="1"/>
        <pt x="326" y="878" on="0"/>
        <pt x="380" y="828" on="0"/>
        <pt x="436" y="781" on="0"/>
        <pt x="490" y="737" on="0"/>
      </contour>
      <contour>
        <pt x="182" y="230" on="1"/>
        <pt x="178" y="213" on="0"/>
        <pt x="175" y="183" on="0"/>
        <pt x="175" y="170" on="1"/>
        <pt x="175" y="121" on="0"/>
        <pt x="219" y="82" on="0"/>
        <pt x="256" y="82" on="1"/>
        <pt x="300" y="82" on="0"/>
        <pt x="357" y="141" on="0"/>
        <pt x="370" y="205" on="1"/>
        <pt x="450" y="620" on="1"/>
        <pt x="561" y="620" on="1"/>
        <pt x="481" y="207" on="1"/>
        <pt x="458" y="90" on="0"/>
        <pt x="334" y="-14" on="0"/>
        <pt x="242" y="-14" on="1"/>
        <pt x="161" y="-14" on="0"/>
        <pt x="63" y="67" on="0"/>
        <pt x="63" y="156" on="1"/>
        <pt x="63" y="174" on="0"/>
        <pt x="68" y="214" on="0"/>
        <pt x="72" y="236" on="1"/>
        <pt x="147" y="620" on="1"/>
        <pt x="257" y="620" on="1"/>
      </contour>
    </TTGlyph>
    <TTGlyph name="Uhungarumlaut" xMin="63" yMin="-14" xMax="649" yMax="917">
      <contour>
        <pt x="251" y="684" on="1"/>
        <pt x="205" y="720" on="1"/>
        <pt x="222" y="741" on="0"/>
        <pt x="259" y="791" on="0"/>
        <pt x="295" y="844" on="0"/>
        <pt x="327" y="896" on="0"/>
        <pt x="339" y="917" on="1"/>
        <pt x="438" y="863" on="1"/>
        <pt x="404" y="823" on="0"/>
        <pt x="299" y="721" on="0"/>
      </contour>
      <contour>
        <pt x="465" y="683" on="1"/>
        <pt x="417" y="719" on="1"/>
        <pt x="451" y="760" on="0"/>
        <pt x="523" y="866" on="0"/>
        <pt x="547" y="909" on="1"/>
        <pt x="649" y="862" on="1"/>
        <pt x="616" y="821" on="0"/>
        <pt x="513" y="720" on="0"/>
      </contour>
      <contour>
        <pt x="182" y="230" on="1"/>
        <pt x="178" y="213" on="0"/>
        <pt x="175" y="183" on="0"/>
        <pt x="175" y="170" on="1"/>
        <pt x="175" y="121" on="0"/>
        <pt x="219" y="82" on="0"/>
        <pt x="256" y="82" on="1"/>
        <pt x="300" y="82" on="0"/>
        <pt x="357" y="141" on="0"/>
        <pt x="370" y="205" on="1"/>
        <pt x="450" y="620" on="1"/>
        <pt x="561" y="620" on="1"/>
        <pt x="481" y="207" on="1"/>
        <pt x="458" y="90" on="0"/>
        <pt x="334" y="-14" on="0"/>
        <pt x="242" y="-14" on="1"/>
        <pt x="161" y="-14" on="0"/>
        <pt x="63" y="67" on="0"/>
        <pt x="63" y="156" on="1"/>
        <pt x="63" y="174" on="0"/>
        <pt x="68" y="214" on="0"/>
        <pt x="72" y="236" on="1"/>
        <pt x="147" y="620" on="1"/>
        <pt x="257" y="620" on="1"/>
      </contour>
    </TTGlyph>
    <TTGlyph name="Umacron" xMin="63" yMin="-14" xMax="564" yMax="811">
      <contour>
        <pt x="564" y="811" on="1"/>
        <pt x="547" y="722" on="1"/>
        <pt x="201" y="722" on="1"/>
        <pt x="219" y="811" on="1"/>
      </contour>
      <contour>
        <pt x="182" y="230" on="1"/>
        <pt x="178" y="213" on="0"/>
        <pt x="175" y="183" on="0"/>
        <pt x="175" y="170" on="1"/>
        <pt x="175" y="121" on="0"/>
        <pt x="219" y="82" on="0"/>
        <pt x="256" y="82" on="1"/>
        <pt x="300" y="82" on="0"/>
        <pt x="357" y="141" on="0"/>
        <pt x="370" y="205" on="1"/>
        <pt x="450" y="620" on="1"/>
        <pt x="561" y="620" on="1"/>
        <pt x="481" y="207" on="1"/>
        <pt x="458" y="90" on="0"/>
        <pt x="334" y="-14" on="0"/>
        <pt x="242" y="-14" on="1"/>
        <pt x="161" y="-14" on="0"/>
        <pt x="63" y="67" on="0"/>
        <pt x="63" y="156" on="1"/>
        <pt x="63" y="174" on="0"/>
        <pt x="68" y="214" on="0"/>
        <pt x="72" y="236" on="1"/>
        <pt x="147" y="620" on="1"/>
        <pt x="257" y="620" on="1"/>
      </contour>
    </TTGlyph>
    <TTGlyph name="Uogonek" xMin="63" yMin="-211" xMax="561" yMax="620">
      <contour>
        <pt x="201" y="-211" on="1"/>
        <pt x="154" y="-211" on="0"/>
        <pt x="106" y="-168" on="0"/>
        <pt x="106" y="-137" on="1"/>
        <pt x="106" y="-107" on="0"/>
        <pt x="160" y="-44" on="0"/>
        <pt x="216" y="-13" on="1"/>
        <pt x="146" y="-7" on="0"/>
        <pt x="63" y="75" on="0"/>
        <pt x="63" y="156" on="1"/>
        <pt x="63" y="174" on="0"/>
        <pt x="68" y="214" on="0"/>
        <pt x="72" y="236" on="1"/>
        <pt x="147" y="620" on="1"/>
        <pt x="257" y="620" on="1"/>
        <pt x="182" y="230" on="1"/>
        <pt x="178" y="213" on="0"/>
        <pt x="175" y="183" on="0"/>
        <pt x="175" y="170" on="1"/>
        <pt x="175" y="121" on="0"/>
        <pt x="219" y="82" on="0"/>
        <pt x="256" y="82" on="1"/>
        <pt x="300" y="82" on="0"/>
        <pt x="357" y="141" on="0"/>
        <pt x="370" y="205" on="1"/>
        <pt x="450" y="620" on="1"/>
        <pt x="561" y="620" on="1"/>
        <pt x="481" y="207" on="1"/>
        <pt x="466" y="132" on="0"/>
        <pt x="404" y="37" on="0"/>
        <pt x="358" y="13" on="1"/>
        <pt x="273" y="-30" on="0"/>
        <pt x="203" y="-81" on="0"/>
        <pt x="203" y="-106" on="1"/>
        <pt x="203" y="-120" on="0"/>
        <pt x="225" y="-138" on="0"/>
        <pt x="250" y="-138" on="1"/>
        <pt x="266" y="-138" on="0"/>
        <pt x="311" y="-129" on="0"/>
        <pt x="340" y="-119" on="1"/>
        <pt x="351" y="-168" on="1"/>
        <pt x="305" y="-190" on="0"/>
        <pt x="230" y="-211" on="0"/>
      </contour>
    </TTGlyph>
    <TTGlyph name="Uring" xMin="63" yMin="-14" xMax="561" yMax="887">
      <contour>
        <pt x="395" y="887" on="1"/>
        <pt x="451" y="887" on="0"/>
        <pt x="519" y="828" on="0"/>
        <pt x="519" y="788" on="1"/>
        <pt x="519" y="742" on="0"/>
        <pt x="438" y="673" on="0"/>
        <pt x="376" y="673" on="1"/>
        <pt x="319" y="673" on="0"/>
        <pt x="251" y="732" on="0"/>
        <pt x="251" y="773" on="1"/>
        <pt x="251" y="819" on="0"/>
        <pt x="332" y="887" on="0"/>
      </contour>
      <contour>
        <pt x="182" y="230" on="1"/>
        <pt x="178" y="213" on="0"/>
        <pt x="175" y="183" on="0"/>
        <pt x="175" y="170" on="1"/>
        <pt x="175" y="121" on="0"/>
        <pt x="219" y="82" on="0"/>
        <pt x="256" y="82" on="1"/>
        <pt x="300" y="82" on="0"/>
        <pt x="357" y="141" on="0"/>
        <pt x="370" y="205" on="1"/>
        <pt x="450" y="620" on="1"/>
        <pt x="561" y="620" on="1"/>
        <pt x="481" y="207" on="1"/>
        <pt x="458" y="90" on="0"/>
        <pt x="334" y="-14" on="0"/>
        <pt x="242" y="-14" on="1"/>
        <pt x="161" y="-14" on="0"/>
        <pt x="63" y="67" on="0"/>
        <pt x="63" y="156" on="1"/>
        <pt x="63" y="174" on="0"/>
        <pt x="68" y="214" on="0"/>
        <pt x="72" y="236" on="1"/>
        <pt x="147" y="620" on="1"/>
        <pt x="257" y="620" on="1"/>
      </contour>
    </TTGlyph>
    <TTGlyph name="V" xMin="100" yMin="0" xMax="596" yMax="624">
      <contour>
        <pt x="304" y="0" on="1"/>
        <pt x="149" y="0" on="1"/>
        <pt x="133" y="154" on="0"/>
        <pt x="107" y="462" on="0"/>
        <pt x="100" y="616" on="1"/>
        <pt x="211" y="624" on="1"/>
        <pt x="215" y="496" on="0"/>
        <pt x="232" y="230" on="0"/>
        <pt x="242" y="101" on="1"/>
        <pt x="251" y="101" on="1"/>
        <pt x="311" y="230" on="0"/>
        <pt x="430" y="492" on="0"/>
        <pt x="484" y="620" on="1"/>
        <pt x="596" y="620" on="1"/>
        <pt x="528" y="466" on="0"/>
        <pt x="381" y="154" on="0"/>
      </contour>
    </TTGlyph>
    <TTGlyph name="W" xMin="55" yMin="0" xMax="592" yMax="620">
      <contour>
        <pt x="311" y="0" on="1"/>
        <pt x="294" y="296" on="1"/>
        <pt x="162" y="0" on="1"/>
        <pt x="55" y="0" on="1"/>
        <pt x="56" y="44" on="0"/>
        <pt x="67" y="175" on="0"/>
        <pt x="84" y="335" on="0"/>
        <pt x="107" y="521" on="0"/>
        <pt x="122" y="620" on="1"/>
        <pt x="232" y="620" on="1"/>
        <pt x="228" y="596" on="0"/>
        <pt x="206" y="451" on="0"/>
        <pt x="182" y="294" on="0"/>
        <pt x="163" y="162" on="0"/>
        <pt x="162" y="150" on="1"/>
        <pt x="166" y="150" on="1"/>
        <pt x="292" y="434" on="1"/>
        <pt x="354" y="434" on="1"/>
        <pt x="369" y="150" on="1"/>
        <pt x="373" y="150" on="1"/>
        <pt x="377" y="162" on="0"/>
        <pt x="408" y="294" on="0"/>
        <pt x="445" y="451" on="0"/>
        <pt x="478" y="596" on="0"/>
        <pt x="484" y="620" on="1"/>
        <pt x="592" y="620" on="1"/>
        <pt x="568" y="520" on="0"/>
        <pt x="519" y="334" on="0"/>
        <pt x="475" y="174" on="0"/>
        <pt x="436" y="44" on="0"/>
        <pt x="421" y="0" on="1"/>
      </contour>
    </TTGlyph>
    <TTGlyph name="Wacute" xMin="55" yMin="0" xMax="592" yMax="896">
      <contour>
        <pt x="237" y="728" on="1"/>
        <pt x="261" y="742" on="0"/>
        <pt x="321" y="782" on="0"/>
        <pt x="382" y="827" on="0"/>
        <pt x="441" y="875" on="0"/>
        <pt x="464" y="896" on="1"/>
        <pt x="534" y="812" on="1"/>
        <pt x="507" y="793" on="0"/>
        <pt x="435" y="754" on="0"/>
        <pt x="360" y="720" on="0"/>
        <pt x="286" y="691" on="0"/>
        <pt x="257" y="681" on="1"/>
      </contour>
      <contour>
        <pt x="311" y="0" on="1"/>
        <pt x="294" y="296" on="1"/>
        <pt x="162" y="0" on="1"/>
        <pt x="55" y="0" on="1"/>
        <pt x="56" y="44" on="0"/>
        <pt x="67" y="175" on="0"/>
        <pt x="84" y="335" on="0"/>
        <pt x="107" y="521" on="0"/>
        <pt x="122" y="620" on="1"/>
        <pt x="232" y="620" on="1"/>
        <pt x="228" y="596" on="0"/>
        <pt x="206" y="451" on="0"/>
        <pt x="182" y="294" on="0"/>
        <pt x="163" y="162" on="0"/>
        <pt x="162" y="150" on="1"/>
        <pt x="166" y="150" on="1"/>
        <pt x="292" y="434" on="1"/>
        <pt x="354" y="434" on="1"/>
        <pt x="369" y="150" on="1"/>
        <pt x="373" y="150" on="1"/>
        <pt x="377" y="162" on="0"/>
        <pt x="408" y="294" on="0"/>
        <pt x="445" y="451" on="0"/>
        <pt x="478" y="596" on="0"/>
        <pt x="484" y="620" on="1"/>
        <pt x="592" y="620" on="1"/>
        <pt x="568" y="520" on="0"/>
        <pt x="519" y="334" on="0"/>
        <pt x="475" y="174" on="0"/>
        <pt x="436" y="44" on="0"/>
        <pt x="421" y="0" on="1"/>
      </contour>
    </TTGlyph>
    <TTGlyph name="Wcircumflex" xMin="55" yMin="0" xMax="592" yMax="884">
      <contour>
        <pt x="490" y="679" on="1"/>
        <pt x="392" y="785" on="1"/>
        <pt x="242" y="683" on="1"/>
        <pt x="194" y="738" on="1"/>
        <pt x="408" y="884" on="1"/>
        <pt x="414" y="884" on="1"/>
        <pt x="563" y="735" on="1"/>
      </contour>
      <contour>
        <pt x="311" y="0" on="1"/>
        <pt x="294" y="296" on="1"/>
        <pt x="162" y="0" on="1"/>
        <pt x="55" y="0" on="1"/>
        <pt x="56" y="44" on="0"/>
        <pt x="67" y="175" on="0"/>
        <pt x="84" y="335" on="0"/>
        <pt x="107" y="521" on="0"/>
        <pt x="122" y="620" on="1"/>
        <pt x="232" y="620" on="1"/>
        <pt x="228" y="596" on="0"/>
        <pt x="206" y="451" on="0"/>
        <pt x="182" y="294" on="0"/>
        <pt x="163" y="162" on="0"/>
        <pt x="162" y="150" on="1"/>
        <pt x="166" y="150" on="1"/>
        <pt x="292" y="434" on="1"/>
        <pt x="354" y="434" on="1"/>
        <pt x="369" y="150" on="1"/>
        <pt x="373" y="150" on="1"/>
        <pt x="377" y="162" on="0"/>
        <pt x="408" y="294" on="0"/>
        <pt x="445" y="451" on="0"/>
        <pt x="478" y="596" on="0"/>
        <pt x="484" y="620" on="1"/>
        <pt x="592" y="620" on="1"/>
        <pt x="568" y="520" on="0"/>
        <pt x="519" y="334" on="0"/>
        <pt x="475" y="174" on="0"/>
        <pt x="436" y="44" on="0"/>
        <pt x="421" y="0" on="1"/>
      </contour>
    </TTGlyph>
    <TTGlyph name="Wdieresis" xMin="55" yMin="0" xMax="592" yMax="835">
      <contour>
        <pt x="530" y="699" on="1"/>
        <pt x="417" y="698" on="1"/>
        <pt x="450" y="832" on="1"/>
        <pt x="573" y="835" on="1"/>
      </contour>
      <contour>
        <pt x="311" y="697" on="1"/>
        <pt x="197" y="696" on="1"/>
        <pt x="230" y="831" on="1"/>
        <pt x="353" y="832" on="1"/>
      </contour>
      <contour>
        <pt x="311" y="0" on="1"/>
        <pt x="294" y="296" on="1"/>
        <pt x="162" y="0" on="1"/>
        <pt x="55" y="0" on="1"/>
        <pt x="56" y="44" on="0"/>
        <pt x="67" y="175" on="0"/>
        <pt x="84" y="335" on="0"/>
        <pt x="107" y="521" on="0"/>
        <pt x="122" y="620" on="1"/>
        <pt x="232" y="620" on="1"/>
        <pt x="228" y="596" on="0"/>
        <pt x="206" y="451" on="0"/>
        <pt x="182" y="294" on="0"/>
        <pt x="163" y="162" on="0"/>
        <pt x="162" y="150" on="1"/>
        <pt x="166" y="150" on="1"/>
        <pt x="292" y="434" on="1"/>
        <pt x="354" y="434" on="1"/>
        <pt x="369" y="150" on="1"/>
        <pt x="373" y="150" on="1"/>
        <pt x="377" y="162" on="0"/>
        <pt x="408" y="294" on="0"/>
        <pt x="445" y="451" on="0"/>
        <pt x="478" y="596" on="0"/>
        <pt x="484" y="620" on="1"/>
        <pt x="592" y="620" on="1"/>
        <pt x="568" y="520" on="0"/>
        <pt x="519" y="334" on="0"/>
        <pt x="475" y="174" on="0"/>
        <pt x="436" y="44" on="0"/>
        <pt x="421" y="0" on="1"/>
      </contour>
    </TTGlyph>
    <TTGlyph name="Wgrave" xMin="55" yMin="0" xMax="592" yMax="900">
      <contour>
        <pt x="515" y="721" on="1"/>
        <pt x="491" y="677" on="1"/>
        <pt x="465" y="687" on="0"/>
        <pt x="399" y="720" on="0"/>
        <pt x="331" y="757" on="0"/>
        <pt x="265" y="797" on="0"/>
        <pt x="240" y="815" on="1"/>
        <pt x="306" y="900" on="1"/>
        <pt x="328" y="878" on="0"/>
        <pt x="382" y="828" on="0"/>
        <pt x="438" y="781" on="0"/>
        <pt x="492" y="737" on="0"/>
      </contour>
      <contour>
        <pt x="311" y="0" on="1"/>
        <pt x="294" y="296" on="1"/>
        <pt x="162" y="0" on="1"/>
        <pt x="55" y="0" on="1"/>
        <pt x="56" y="44" on="0"/>
        <pt x="67" y="175" on="0"/>
        <pt x="84" y="335" on="0"/>
        <pt x="107" y="521" on="0"/>
        <pt x="122" y="620" on="1"/>
        <pt x="232" y="620" on="1"/>
        <pt x="228" y="596" on="0"/>
        <pt x="206" y="451" on="0"/>
        <pt x="182" y="294" on="0"/>
        <pt x="163" y="162" on="0"/>
        <pt x="162" y="150" on="1"/>
        <pt x="166" y="150" on="1"/>
        <pt x="292" y="434" on="1"/>
        <pt x="354" y="434" on="1"/>
        <pt x="369" y="150" on="1"/>
        <pt x="373" y="150" on="1"/>
        <pt x="377" y="162" on="0"/>
        <pt x="408" y="294" on="0"/>
        <pt x="445" y="451" on="0"/>
        <pt x="478" y="596" on="0"/>
        <pt x="484" y="620" on="1"/>
        <pt x="592" y="620" on="1"/>
        <pt x="568" y="520" on="0"/>
        <pt x="519" y="334" on="0"/>
        <pt x="475" y="174" on="0"/>
        <pt x="436" y="44" on="0"/>
        <pt x="421" y="0" on="1"/>
      </contour>
    </TTGlyph>
    <TTGlyph name="X" xMin="-13" yMin="-3" xMax="597" yMax="623">
      <contour>
        <pt x="361" y="-3" on="1"/>
        <pt x="272" y="234" on="1"/>
        <pt x="107" y="0" on="1"/>
        <pt x="-13" y="0" on="1"/>
        <pt x="226" y="317" on="1"/>
        <pt x="106" y="617" on="1"/>
        <pt x="221" y="623" on="1"/>
        <pt x="311" y="385" on="1"/>
        <pt x="476" y="620" on="1"/>
        <pt x="597" y="620" on="1"/>
        <pt x="356" y="302" on="1"/>
        <pt x="476" y="3" on="1"/>
      </contour>
    </TTGlyph>
    <TTGlyph name="Y" xMin="96" yMin="0" xMax="603" yMax="622">
      <contour>
        <pt x="285" y="0" on="1"/>
        <pt x="174" y="0" on="1"/>
        <pt x="214" y="207" on="1"/>
        <pt x="96" y="618" on="1"/>
        <pt x="211" y="622" on="1"/>
        <pt x="291" y="311" on="1"/>
        <pt x="484" y="620" on="1"/>
        <pt x="603" y="620" on="1"/>
        <pt x="324" y="200" on="1"/>
      </contour>
    </TTGlyph>
    <TTGlyph name="Yacute" xMin="96" yMin="0" xMax="603" yMax="898">
      <contour>
        <pt x="230" y="730" on="1"/>
        <pt x="254" y="744" on="0"/>
        <pt x="314" y="784" on="0"/>
        <pt x="375" y="829" on="0"/>
        <pt x="434" y="877" on="0"/>
        <pt x="457" y="898" on="1"/>
        <pt x="527" y="814" on="1"/>
        <pt x="500" y="795" on="0"/>
        <pt x="428" y="756" on="0"/>
        <pt x="353" y="722" on="0"/>
        <pt x="279" y="693" on="0"/>
        <pt x="250" y="683" on="1"/>
      </contour>
      <contour>
        <pt x="285" y="0" on="1"/>
        <pt x="174" y="0" on="1"/>
        <pt x="214" y="207" on="1"/>
        <pt x="96" y="618" on="1"/>
        <pt x="211" y="622" on="1"/>
        <pt x="291" y="311" on="1"/>
        <pt x="484" y="620" on="1"/>
        <pt x="603" y="620" on="1"/>
        <pt x="324" y="200" on="1"/>
      </contour>
    </TTGlyph>
    <TTGlyph name="Ycircumflex" xMin="96" yMin="0" xMax="603" yMax="886">
      <contour>
        <pt x="484" y="681" on="1"/>
        <pt x="386" y="787" on="1"/>
        <pt x="236" y="685" on="1"/>
        <pt x="188" y="740" on="1"/>
        <pt x="402" y="886" on="1"/>
        <pt x="408" y="886" on="1"/>
        <pt x="557" y="737" on="1"/>
      </contour>
      <contour>
        <pt x="285" y="0" on="1"/>
        <pt x="174" y="0" on="1"/>
        <pt x="214" y="207" on="1"/>
        <pt x="96" y="618" on="1"/>
        <pt x="211" y="622" on="1"/>
        <pt x="291" y="311" on="1"/>
        <pt x="484" y="620" on="1"/>
        <pt x="603" y="620" on="1"/>
        <pt x="324" y="200" on="1"/>
      </contour>
    </TTGlyph>
    <TTGlyph name="Ydieresis" xMin="96" yMin="0" xMax="603" yMax="837">
      <contour>
        <pt x="523" y="701" on="1"/>
        <pt x="410" y="700" on="1"/>
        <pt x="443" y="834" on="1"/>
        <pt x="566" y="837" on="1"/>
      </contour>
      <contour>
        <pt x="304" y="699" on="1"/>
        <pt x="190" y="698" on="1"/>
        <pt x="223" y="833" on="1"/>
        <pt x="346" y="834" on="1"/>
      </contour>
      <contour>
        <pt x="285" y="0" on="1"/>
        <pt x="174" y="0" on="1"/>
        <pt x="214" y="207" on="1"/>
        <pt x="96" y="618" on="1"/>
        <pt x="211" y="622" on="1"/>
        <pt x="291" y="311" on="1"/>
        <pt x="484" y="620" on="1"/>
        <pt x="603" y="620" on="1"/>
        <pt x="324" y="200" on="1"/>
      </contour>
    </TTGlyph>
    <TTGlyph name="Ygrave" xMin="96" yMin="0" xMax="603" yMax="902">
      <contour>
        <pt x="508" y="723" on="1"/>
        <pt x="484" y="679" on="1"/>
        <pt x="458" y="689" on="0"/>
        <pt x="392" y="722" on="0"/>
        <pt x="324" y="759" on="0"/>
        <pt x="258" y="799" on="0"/>
        <pt x="233" y="817" on="1"/>
        <pt x="299" y="902" on="1"/>
        <pt x="321" y="880" on="0"/>
        <pt x="375" y="830" on="0"/>
        <pt x="431" y="783" on="0"/>
        <pt x="485" y="739" on="0"/>
      </contour>
      <contour>
        <pt x="285" y="0" on="1"/>
        <pt x="174" y="0" on="1"/>
        <pt x="214" y="207" on="1"/>
        <pt x="96" y="618" on="1"/>
        <pt x="211" y="622" on="1"/>
        <pt x="291" y="311" on="1"/>
        <pt x="484" y="620" on="1"/>
        <pt x="603" y="620" on="1"/>
        <pt x="324" y="200" on="1"/>
      </contour>
    </TTGlyph>
    <TTGlyph name="Z" xMin="17" yMin="0" xMax="555" yMax="620">
      <contour>
        <pt x="442" y="0" on="1"/>
        <pt x="17" y="0" on="1"/>
        <pt x="34" y="94" on="1"/>
        <pt x="415" y="525" on="1"/>
        <pt x="122" y="523" on="1"/>
        <pt x="141" y="620" on="1"/>
        <pt x="555" y="620" on="1"/>
        <pt x="540" y="526" on="1"/>
        <pt x="163" y="95" on="1"/>
        <pt x="460" y="97" on="1"/>
      </contour>
    </TTGlyph>
    <TTGlyph name="Zacute" xMin="17" yMin="0" xMax="555" yMax="896">
      <contour>
        <pt x="230" y="728" on="1"/>
        <pt x="254" y="742" on="0"/>
        <pt x="314" y="782" on="0"/>
        <pt x="375" y="827" on="0"/>
        <pt x="434" y="875" on="0"/>
        <pt x="457" y="896" on="1"/>
        <pt x="527" y="812" on="1"/>
        <pt x="500" y="793" on="0"/>
        <pt x="428" y="754" on="0"/>
        <pt x="353" y="720" on="0"/>
        <pt x="279" y="691" on="0"/>
        <pt x="250" y="681" on="1"/>
      </contour>
      <contour>
        <pt x="442" y="0" on="1"/>
        <pt x="17" y="0" on="1"/>
        <pt x="34" y="94" on="1"/>
        <pt x="415" y="525" on="1"/>
        <pt x="122" y="523" on="1"/>
        <pt x="141" y="620" on="1"/>
        <pt x="555" y="620" on="1"/>
        <pt x="540" y="526" on="1"/>
        <pt x="163" y="95" on="1"/>
        <pt x="460" y="97" on="1"/>
      </contour>
    </TTGlyph>
    <TTGlyph name="Zcaron" xMin="17" yMin="0" xMax="573" yMax="881">
      <contour>
        <pt x="360" y="676" on="1"/>
        <pt x="353" y="676" on="1"/>
        <pt x="204" y="825" on="1"/>
        <pt x="277" y="881" on="1"/>
        <pt x="375" y="776" on="1"/>
        <pt x="525" y="877" on="1"/>
        <pt x="573" y="823" on="1"/>
      </contour>
      <contour>
        <pt x="442" y="0" on="1"/>
        <pt x="17" y="0" on="1"/>
        <pt x="34" y="94" on="1"/>
        <pt x="415" y="525" on="1"/>
        <pt x="122" y="523" on="1"/>
        <pt x="141" y="620" on="1"/>
        <pt x="555" y="620" on="1"/>
        <pt x="540" y="526" on="1"/>
        <pt x="163" y="95" on="1"/>
        <pt x="460" y="97" on="1"/>
      </contour>
    </TTGlyph>
    <TTGlyph name="Zdotaccent" xMin="17" yMin="0" xMax="555" yMax="833">
      <contour>
        <pt x="414" y="698" on="1"/>
        <pt x="298" y="697" on="1"/>
        <pt x="331" y="832" on="1"/>
        <pt x="457" y="833" on="1"/>
      </contour>
      <contour>
        <pt x="442" y="0" on="1"/>
        <pt x="17" y="0" on="1"/>
        <pt x="34" y="94" on="1"/>
        <pt x="415" y="525" on="1"/>
        <pt x="122" y="523" on="1"/>
        <pt x="141" y="620" on="1"/>
        <pt x="555" y="620" on="1"/>
        <pt x="540" y="526" on="1"/>
        <pt x="163" y="95" on="1"/>
        <pt x="460" y="97" on="1"/>
      </contour>
    </TTGlyph>
    <TTGlyph name="a" xMin="40" yMin="-12" xMax="516" yMax="508">
      <contour>
        <pt x="202" y="89" on="1"/>
        <pt x="227" y="89" on="0"/>
        <pt x="299" y="130" on="0"/>
        <pt x="332" y="161" on="1"/>
        <pt x="336" y="179" on="0"/>
        <pt x="347" y="238" on="0"/>
        <pt x="361" y="304" on="0"/>
        <pt x="374" y="374" on="0"/>
        <pt x="379" y="402" on="1"/>
        <pt x="354" y="410" on="0"/>
        <pt x="309" y="418" on="0"/>
        <pt x="294" y="418" on="1"/>
        <pt x="265" y="418" on="0"/>
        <pt x="211" y="373" on="0"/>
        <pt x="172" y="303" on="0"/>
        <pt x="148" y="213" on="0"/>
        <pt x="148" y="169" on="1"/>
        <pt x="148" y="126" on="0"/>
        <pt x="180" y="89" on="0"/>
      </contour>
      <contour>
        <pt x="324" y="70" on="1"/>
        <pt x="324" y="74" on="0"/>
        <pt x="324" y="85" on="0"/>
        <pt x="325" y="90" on="1"/>
        <pt x="282" y="48" on="0"/>
        <pt x="185" y="-12" on="0"/>
        <pt x="145" y="-12" on="1"/>
        <pt x="100" y="-12" on="0"/>
        <pt x="40" y="65" on="0"/>
        <pt x="40" y="143" on="1"/>
        <pt x="40" y="212" on="0"/>
        <pt x="84" y="344" on="0"/>
        <pt x="164" y="446" on="0"/>
        <pt x="279" y="508" on="0"/>
        <pt x="350" y="508" on="1"/>
        <pt x="384" y="508" on="0"/>
        <pt x="460" y="497" on="0"/>
        <pt x="499" y="486" on="1"/>
        <pt x="431" y="134" on="1"/>
        <pt x="429" y="124" on="0"/>
        <pt x="427" y="108" on="0"/>
        <pt x="427" y="102" on="1"/>
        <pt x="427" y="92" on="0"/>
        <pt x="436" y="82" on="0"/>
        <pt x="446" y="82" on="1"/>
        <pt x="456" y="82" on="0"/>
        <pt x="485" y="88" on="0"/>
        <pt x="506" y="95" on="1"/>
        <pt x="516" y="41" on="1"/>
        <pt x="470" y="14" on="0"/>
        <pt x="404" y="-11" on="0"/>
        <pt x="381" y="-11" on="1"/>
        <pt x="350" y="-11" on="0"/>
        <pt x="324" y="32" on="0"/>
      </contour>
    </TTGlyph>
    <TTGlyph name="aacute" xMin="40" yMin="-12" xMax="527" yMax="784">
      <contour>
        <pt x="230" y="616" on="1"/>
        <pt x="254" y="630" on="0"/>
        <pt x="314" y="670" on="0"/>
        <pt x="375" y="715" on="0"/>
        <pt x="434" y="763" on="0"/>
        <pt x="457" y="784" on="1"/>
        <pt x="527" y="700" on="1"/>
        <pt x="500" y="681" on="0"/>
        <pt x="428" y="642" on="0"/>
        <pt x="353" y="608" on="0"/>
        <pt x="279" y="579" on="0"/>
        <pt x="250" y="569" on="1"/>
      </contour>
      <contour>
        <pt x="202" y="89" on="1"/>
        <pt x="227" y="89" on="0"/>
        <pt x="299" y="130" on="0"/>
        <pt x="332" y="161" on="1"/>
        <pt x="336" y="179" on="0"/>
        <pt x="347" y="238" on="0"/>
        <pt x="361" y="304" on="0"/>
        <pt x="374" y="374" on="0"/>
        <pt x="379" y="402" on="1"/>
        <pt x="354" y="410" on="0"/>
        <pt x="309" y="418" on="0"/>
        <pt x="294" y="418" on="1"/>
        <pt x="265" y="418" on="0"/>
        <pt x="211" y="373" on="0"/>
        <pt x="172" y="303" on="0"/>
        <pt x="148" y="213" on="0"/>
        <pt x="148" y="169" on="1"/>
        <pt x="148" y="126" on="0"/>
        <pt x="180" y="89" on="0"/>
      </contour>
      <contour>
        <pt x="324" y="70" on="1"/>
        <pt x="324" y="74" on="0"/>
        <pt x="324" y="85" on="0"/>
        <pt x="325" y="90" on="1"/>
        <pt x="282" y="48" on="0"/>
        <pt x="185" y="-12" on="0"/>
        <pt x="145" y="-12" on="1"/>
        <pt x="100" y="-12" on="0"/>
        <pt x="40" y="65" on="0"/>
        <pt x="40" y="143" on="1"/>
        <pt x="40" y="212" on="0"/>
        <pt x="84" y="344" on="0"/>
        <pt x="164" y="446" on="0"/>
        <pt x="279" y="508" on="0"/>
        <pt x="350" y="508" on="1"/>
        <pt x="384" y="508" on="0"/>
        <pt x="460" y="497" on="0"/>
        <pt x="499" y="486" on="1"/>
        <pt x="431" y="134" on="1"/>
        <pt x="429" y="124" on="0"/>
        <pt x="427" y="108" on="0"/>
        <pt x="427" y="102" on="1"/>
        <pt x="427" y="92" on="0"/>
        <pt x="436" y="82" on="0"/>
        <pt x="446" y="82" on="1"/>
        <pt x="456" y="82" on="0"/>
        <pt x="485" y="88" on="0"/>
        <pt x="506" y="95" on="1"/>
        <pt x="516" y="41" on="1"/>
        <pt x="470" y="14" on="0"/>
        <pt x="404" y="-11" on="0"/>
        <pt x="381" y="-11" on="1"/>
        <pt x="350" y="-11" on="0"/>
        <pt x="324" y="32" on="0"/>
      </contour>
    </TTGlyph>
    <TTGlyph name="abreve" xMin="40" yMin="-12" xMax="586" yMax="764">
      <contour>
        <pt x="525" y="758" on="1"/>
        <pt x="586" y="721" on="1"/>
        <pt x="532" y="652" on="0"/>
        <pt x="418" y="574" on="0"/>
        <pt x="362" y="574" on="1"/>
        <pt x="309" y="574" on="0"/>
        <pt x="222" y="648" on="0"/>
        <pt x="194" y="721" on="1"/>
        <pt x="274" y="764" on="1"/>
        <pt x="298" y="709" on="0"/>
        <pt x="349" y="658" on="0"/>
        <pt x="385" y="658" on="1"/>
        <pt x="419" y="658" on="0"/>
        <pt x="485" y="711" on="0"/>
      </contour>
      <contour>
        <pt x="202" y="89" on="1"/>
        <pt x="227" y="89" on="0"/>
        <pt x="299" y="130" on="0"/>
        <pt x="332" y="161" on="1"/>
        <pt x="336" y="179" on="0"/>
        <pt x="347" y="238" on="0"/>
        <pt x="361" y="304" on="0"/>
        <pt x="374" y="374" on="0"/>
        <pt x="379" y="402" on="1"/>
        <pt x="354" y="410" on="0"/>
        <pt x="309" y="418" on="0"/>
        <pt x="294" y="418" on="1"/>
        <pt x="265" y="418" on="0"/>
        <pt x="211" y="373" on="0"/>
        <pt x="172" y="303" on="0"/>
        <pt x="148" y="213" on="0"/>
        <pt x="148" y="169" on="1"/>
        <pt x="148" y="126" on="0"/>
        <pt x="180" y="89" on="0"/>
      </contour>
      <contour>
        <pt x="324" y="70" on="1"/>
        <pt x="324" y="74" on="0"/>
        <pt x="324" y="85" on="0"/>
        <pt x="325" y="90" on="1"/>
        <pt x="282" y="48" on="0"/>
        <pt x="185" y="-12" on="0"/>
        <pt x="145" y="-12" on="1"/>
        <pt x="100" y="-12" on="0"/>
        <pt x="40" y="65" on="0"/>
        <pt x="40" y="143" on="1"/>
        <pt x="40" y="212" on="0"/>
        <pt x="84" y="344" on="0"/>
        <pt x="164" y="446" on="0"/>
        <pt x="279" y="508" on="0"/>
        <pt x="350" y="508" on="1"/>
        <pt x="384" y="508" on="0"/>
        <pt x="460" y="497" on="0"/>
        <pt x="499" y="486" on="1"/>
        <pt x="431" y="134" on="1"/>
        <pt x="429" y="124" on="0"/>
        <pt x="427" y="108" on="0"/>
        <pt x="427" y="102" on="1"/>
        <pt x="427" y="92" on="0"/>
        <pt x="436" y="82" on="0"/>
        <pt x="446" y="82" on="1"/>
        <pt x="456" y="82" on="0"/>
        <pt x="485" y="88" on="0"/>
        <pt x="506" y="95" on="1"/>
        <pt x="516" y="41" on="1"/>
        <pt x="470" y="14" on="0"/>
        <pt x="404" y="-11" on="0"/>
        <pt x="381" y="-11" on="1"/>
        <pt x="350" y="-11" on="0"/>
        <pt x="324" y="32" on="0"/>
      </contour>
    </TTGlyph>
    <TTGlyph name="acircumflex" xMin="40" yMin="-12" xMax="556" yMax="772">
      <contour>
        <pt x="483" y="567" on="1"/>
        <pt x="385" y="673" on="1"/>
        <pt x="235" y="571" on="1"/>
        <pt x="187" y="626" on="1"/>
        <pt x="401" y="772" on="1"/>
        <pt x="407" y="772" on="1"/>
        <pt x="556" y="623" on="1"/>
      </contour>
      <contour>
        <pt x="202" y="89" on="1"/>
        <pt x="227" y="89" on="0"/>
        <pt x="299" y="130" on="0"/>
        <pt x="332" y="161" on="1"/>
        <pt x="336" y="179" on="0"/>
        <pt x="347" y="238" on="0"/>
        <pt x="361" y="304" on="0"/>
        <pt x="374" y="374" on="0"/>
        <pt x="379" y="402" on="1"/>
        <pt x="354" y="410" on="0"/>
        <pt x="309" y="418" on="0"/>
        <pt x="294" y="418" on="1"/>
        <pt x="265" y="418" on="0"/>
        <pt x="211" y="373" on="0"/>
        <pt x="172" y="303" on="0"/>
        <pt x="148" y="213" on="0"/>
        <pt x="148" y="169" on="1"/>
        <pt x="148" y="126" on="0"/>
        <pt x="180" y="89" on="0"/>
      </contour>
      <contour>
        <pt x="324" y="70" on="1"/>
        <pt x="324" y="74" on="0"/>
        <pt x="324" y="85" on="0"/>
        <pt x="325" y="90" on="1"/>
        <pt x="282" y="48" on="0"/>
        <pt x="185" y="-12" on="0"/>
        <pt x="145" y="-12" on="1"/>
        <pt x="100" y="-12" on="0"/>
        <pt x="40" y="65" on="0"/>
        <pt x="40" y="143" on="1"/>
        <pt x="40" y="212" on="0"/>
        <pt x="84" y="344" on="0"/>
        <pt x="164" y="446" on="0"/>
        <pt x="279" y="508" on="0"/>
        <pt x="350" y="508" on="1"/>
        <pt x="384" y="508" on="0"/>
        <pt x="460" y="497" on="0"/>
        <pt x="499" y="486" on="1"/>
        <pt x="431" y="134" on="1"/>
        <pt x="429" y="124" on="0"/>
        <pt x="427" y="108" on="0"/>
        <pt x="427" y="102" on="1"/>
        <pt x="427" y="92" on="0"/>
        <pt x="436" y="82" on="0"/>
        <pt x="446" y="82" on="1"/>
        <pt x="456" y="82" on="0"/>
        <pt x="485" y="88" on="0"/>
        <pt x="506" y="95" on="1"/>
        <pt x="516" y="41" on="1"/>
        <pt x="470" y="14" on="0"/>
        <pt x="404" y="-11" on="0"/>
        <pt x="381" y="-11" on="1"/>
        <pt x="350" y="-11" on="0"/>
        <pt x="324" y="32" on="0"/>
      </contour>
    </TTGlyph>
    <TTGlyph name="acute" xMin="148" yMin="559" xMax="445" yMax="774">
      <contour>
        <pt x="148" y="606" on="1"/>
        <pt x="172" y="620" on="0"/>
        <pt x="232" y="660" on="0"/>
        <pt x="293" y="705" on="0"/>
        <pt x="352" y="753" on="0"/>
        <pt x="375" y="774" on="1"/>
        <pt x="445" y="690" on="1"/>
        <pt x="418" y="671" on="0"/>
        <pt x="346" y="632" on="0"/>
        <pt x="271" y="598" on="0"/>
        <pt x="197" y="569" on="0"/>
        <pt x="168" y="559" on="1"/>
      </contour>
    </TTGlyph>
    <TTGlyph name="adieresis" xMin="40" yMin="-12" xMax="565" yMax="723">
      <contour>
        <pt x="522" y="587" on="1"/>
        <pt x="409" y="586" on="1"/>
        <pt x="442" y="720" on="1"/>
        <pt x="565" y="723" on="1"/>
      </contour>
      <contour>
        <pt x="303" y="585" on="1"/>
        <pt x="189" y="584" on="1"/>
        <pt x="222" y="719" on="1"/>
        <pt x="345" y="720" on="1"/>
      </contour>
      <contour>
        <pt x="202" y="89" on="1"/>
        <pt x="227" y="89" on="0"/>
        <pt x="299" y="130" on="0"/>
        <pt x="332" y="161" on="1"/>
        <pt x="336" y="179" on="0"/>
        <pt x="347" y="238" on="0"/>
        <pt x="361" y="304" on="0"/>
        <pt x="374" y="374" on="0"/>
        <pt x="379" y="402" on="1"/>
        <pt x="354" y="410" on="0"/>
        <pt x="309" y="418" on="0"/>
        <pt x="294" y="418" on="1"/>
        <pt x="265" y="418" on="0"/>
        <pt x="211" y="373" on="0"/>
        <pt x="172" y="303" on="0"/>
        <pt x="148" y="213" on="0"/>
        <pt x="148" y="169" on="1"/>
        <pt x="148" y="126" on="0"/>
        <pt x="180" y="89" on="0"/>
      </contour>
      <contour>
        <pt x="324" y="70" on="1"/>
        <pt x="324" y="74" on="0"/>
        <pt x="324" y="85" on="0"/>
        <pt x="325" y="90" on="1"/>
        <pt x="282" y="48" on="0"/>
        <pt x="185" y="-12" on="0"/>
        <pt x="145" y="-12" on="1"/>
        <pt x="100" y="-12" on="0"/>
        <pt x="40" y="65" on="0"/>
        <pt x="40" y="143" on="1"/>
        <pt x="40" y="212" on="0"/>
        <pt x="84" y="344" on="0"/>
        <pt x="164" y="446" on="0"/>
        <pt x="279" y="508" on="0"/>
        <pt x="350" y="508" on="1"/>
        <pt x="384" y="508" on="0"/>
        <pt x="460" y="497" on="0"/>
        <pt x="499" y="486" on="1"/>
        <pt x="431" y="134" on="1"/>
        <pt x="429" y="124" on="0"/>
        <pt x="427" y="108" on="0"/>
        <pt x="427" y="102" on="1"/>
        <pt x="427" y="92" on="0"/>
        <pt x="436" y="82" on="0"/>
        <pt x="446" y="82" on="1"/>
        <pt x="456" y="82" on="0"/>
        <pt x="485" y="88" on="0"/>
        <pt x="506" y="95" on="1"/>
        <pt x="516" y="41" on="1"/>
        <pt x="470" y="14" on="0"/>
        <pt x="404" y="-11" on="0"/>
        <pt x="381" y="-11" on="1"/>
        <pt x="350" y="-11" on="0"/>
        <pt x="324" y="32" on="0"/>
      </contour>
    </TTGlyph>
    <TTGlyph name="ae" xMin="21" yMin="-7" xMax="567" yMax="508">
      <contour>
        <pt x="347" y="-7" on="1"/>
        <pt x="305" y="-7" on="0"/>
        <pt x="253" y="38" on="0"/>
        <pt x="241" y="75" on="1"/>
        <pt x="210" y="40" on="0"/>
        <pt x="140" y="-6" on="0"/>
        <pt x="103" y="-6" on="1"/>
        <pt x="64" y="-6" on="0"/>
        <pt x="21" y="58" on="0"/>
        <pt x="21" y="126" on="1"/>
        <pt x="21" y="195" on="0"/>
        <pt x="58" y="332" on="0"/>
        <pt x="121" y="438" on="0"/>
        <pt x="209" y="504" on="0"/>
        <pt x="260" y="504" on="1"/>
        <pt x="288" y="504" on="0"/>
        <pt x="344" y="489" on="0"/>
        <pt x="370" y="474" on="1"/>
        <pt x="392" y="490" on="0"/>
        <pt x="441" y="508" on="0"/>
        <pt x="466" y="508" on="1"/>
        <pt x="514" y="508" on="0"/>
        <pt x="567" y="448" on="0"/>
        <pt x="567" y="401" on="1"/>
        <pt x="567" y="366" on="0"/>
        <pt x="540" y="297" on="0"/>
        <pt x="483" y="241" on="0"/>
        <pt x="394" y="199" on="0"/>
        <pt x="333" y="190" on="1"/>
        <pt x="332" y="183" on="0"/>
        <pt x="332" y="171" on="0"/>
        <pt x="332" y="165" on="1"/>
        <pt x="332" y="125" on="0"/>
        <pt x="360" y="83" on="0"/>
        <pt x="395" y="83" on="1"/>
        <pt x="415" y="83" on="0"/>
        <pt x="473" y="98" on="0"/>
        <pt x="512" y="113" on="1"/>
        <pt x="522" y="60" on="1"/>
        <pt x="468" y="25" on="0"/>
        <pt x="380" y="-7" on="0"/>
      </contour>
      <contour>
        <pt x="438" y="421" on="1"/>
        <pt x="422" y="421" on="0"/>
        <pt x="391" y="392" on="0"/>
        <pt x="366" y="344" on="0"/>
        <pt x="346" y="282" on="0"/>
        <pt x="340" y="248" on="1"/>
        <pt x="375" y="256" on="0"/>
        <pt x="424" y="288" on="0"/>
        <pt x="454" y="326" on="0"/>
        <pt x="468" y="366" on="0"/>
        <pt x="468" y="382" on="1"/>
        <pt x="468" y="400" on="0"/>
        <pt x="454" y="421" on="0"/>
      </contour>
      <contour>
        <pt x="162" y="89" on="1"/>
        <pt x="179" y="89" on="0"/>
        <pt x="214" y="119" on="0"/>
        <pt x="232" y="143" on="1"/>
        <pt x="232" y="145" on="1"/>
        <pt x="232" y="217" on="0"/>
        <pt x="270" y="350" on="0"/>
        <pt x="302" y="400" on="1"/>
        <pt x="285" y="412" on="0"/>
        <pt x="255" y="420" on="0"/>
        <pt x="243" y="420" on="1"/>
        <pt x="220" y="420" on="0"/>
        <pt x="179" y="372" on="0"/>
        <pt x="148" y="298" on="0"/>
        <pt x="130" y="205" on="0"/>
        <pt x="130" y="160" on="1"/>
        <pt x="130" y="125" on="0"/>
        <pt x="146" y="89" on="0"/>
      </contour>
    </TTGlyph>
    <TTGlyph name="aeacute" xMin="21" yMin="-7" xMax="567" yMax="781">
      <contour>
        <pt x="228" y="613" on="1"/>
        <pt x="252" y="627" on="0"/>
        <pt x="312" y="667" on="0"/>
        <pt x="373" y="712" on="0"/>
        <pt x="432" y="760" on="0"/>
        <pt x="455" y="781" on="1"/>
        <pt x="525" y="697" on="1"/>
        <pt x="498" y="678" on="0"/>
        <pt x="426" y="639" on="0"/>
        <pt x="351" y="605" on="0"/>
        <pt x="277" y="576" on="0"/>
        <pt x="248" y="566" on="1"/>
      </contour>
      <contour>
        <pt x="347" y="-7" on="1"/>
        <pt x="305" y="-7" on="0"/>
        <pt x="253" y="38" on="0"/>
        <pt x="241" y="75" on="1"/>
        <pt x="210" y="40" on="0"/>
        <pt x="140" y="-6" on="0"/>
        <pt x="103" y="-6" on="1"/>
        <pt x="64" y="-6" on="0"/>
        <pt x="21" y="58" on="0"/>
        <pt x="21" y="126" on="1"/>
        <pt x="21" y="195" on="0"/>
        <pt x="58" y="332" on="0"/>
        <pt x="121" y="438" on="0"/>
        <pt x="209" y="504" on="0"/>
        <pt x="260" y="504" on="1"/>
        <pt x="288" y="504" on="0"/>
        <pt x="344" y="489" on="0"/>
        <pt x="370" y="474" on="1"/>
        <pt x="392" y="490" on="0"/>
        <pt x="441" y="508" on="0"/>
        <pt x="466" y="508" on="1"/>
        <pt x="514" y="508" on="0"/>
        <pt x="567" y="448" on="0"/>
        <pt x="567" y="401" on="1"/>
        <pt x="567" y="366" on="0"/>
        <pt x="540" y="297" on="0"/>
        <pt x="483" y="241" on="0"/>
        <pt x="394" y="199" on="0"/>
        <pt x="333" y="190" on="1"/>
        <pt x="332" y="183" on="0"/>
        <pt x="332" y="171" on="0"/>
        <pt x="332" y="165" on="1"/>
        <pt x="332" y="125" on="0"/>
        <pt x="360" y="83" on="0"/>
        <pt x="395" y="83" on="1"/>
        <pt x="415" y="83" on="0"/>
        <pt x="473" y="98" on="0"/>
        <pt x="512" y="113" on="1"/>
        <pt x="522" y="60" on="1"/>
        <pt x="468" y="25" on="0"/>
        <pt x="380" y="-7" on="0"/>
      </contour>
      <contour>
        <pt x="438" y="421" on="1"/>
        <pt x="422" y="421" on="0"/>
        <pt x="391" y="392" on="0"/>
        <pt x="366" y="344" on="0"/>
        <pt x="346" y="282" on="0"/>
        <pt x="340" y="248" on="1"/>
        <pt x="375" y="256" on="0"/>
        <pt x="424" y="288" on="0"/>
        <pt x="454" y="326" on="0"/>
        <pt x="468" y="366" on="0"/>
        <pt x="468" y="382" on="1"/>
        <pt x="468" y="400" on="0"/>
        <pt x="454" y="421" on="0"/>
      </contour>
      <contour>
        <pt x="162" y="89" on="1"/>
        <pt x="179" y="89" on="0"/>
        <pt x="214" y="119" on="0"/>
        <pt x="232" y="143" on="1"/>
        <pt x="232" y="145" on="1"/>
        <pt x="232" y="217" on="0"/>
        <pt x="270" y="350" on="0"/>
        <pt x="302" y="400" on="1"/>
        <pt x="285" y="412" on="0"/>
        <pt x="255" y="420" on="0"/>
        <pt x="243" y="420" on="1"/>
        <pt x="220" y="420" on="0"/>
        <pt x="179" y="372" on="0"/>
        <pt x="148" y="298" on="0"/>
        <pt x="130" y="205" on="0"/>
        <pt x="130" y="160" on="1"/>
        <pt x="130" y="125" on="0"/>
        <pt x="146" y="89" on="0"/>
      </contour>
    </TTGlyph>
    <TTGlyph name="agrave" xMin="40" yMin="-12" xMax="516" yMax="788">
      <contour>
        <pt x="508" y="609" on="1"/>
        <pt x="484" y="565" on="1"/>
        <pt x="458" y="575" on="0"/>
        <pt x="392" y="608" on="0"/>
        <pt x="324" y="645" on="0"/>
        <pt x="258" y="685" on="0"/>
        <pt x="233" y="703" on="1"/>
        <pt x="299" y="788" on="1"/>
        <pt x="321" y="766" on="0"/>
        <pt x="375" y="716" on="0"/>
        <pt x="431" y="669" on="0"/>
        <pt x="485" y="625" on="0"/>
      </contour>
      <contour>
        <pt x="202" y="89" on="1"/>
        <pt x="227" y="89" on="0"/>
        <pt x="299" y="130" on="0"/>
        <pt x="332" y="161" on="1"/>
        <pt x="336" y="179" on="0"/>
        <pt x="347" y="238" on="0"/>
        <pt x="361" y="304" on="0"/>
        <pt x="374" y="374" on="0"/>
        <pt x="379" y="402" on="1"/>
        <pt x="354" y="410" on="0"/>
        <pt x="309" y="418" on="0"/>
        <pt x="294" y="418" on="1"/>
        <pt x="265" y="418" on="0"/>
        <pt x="211" y="373" on="0"/>
        <pt x="172" y="303" on="0"/>
        <pt x="148" y="213" on="0"/>
        <pt x="148" y="169" on="1"/>
        <pt x="148" y="126" on="0"/>
        <pt x="180" y="89" on="0"/>
      </contour>
      <contour>
        <pt x="324" y="70" on="1"/>
        <pt x="324" y="74" on="0"/>
        <pt x="324" y="85" on="0"/>
        <pt x="325" y="90" on="1"/>
        <pt x="282" y="48" on="0"/>
        <pt x="185" y="-12" on="0"/>
        <pt x="145" y="-12" on="1"/>
        <pt x="100" y="-12" on="0"/>
        <pt x="40" y="65" on="0"/>
        <pt x="40" y="143" on="1"/>
        <pt x="40" y="212" on="0"/>
        <pt x="84" y="344" on="0"/>
        <pt x="164" y="446" on="0"/>
        <pt x="279" y="508" on="0"/>
        <pt x="350" y="508" on="1"/>
        <pt x="384" y="508" on="0"/>
        <pt x="460" y="497" on="0"/>
        <pt x="499" y="486" on="1"/>
        <pt x="431" y="134" on="1"/>
        <pt x="429" y="124" on="0"/>
        <pt x="427" y="108" on="0"/>
        <pt x="427" y="102" on="1"/>
        <pt x="427" y="92" on="0"/>
        <pt x="436" y="82" on="0"/>
        <pt x="446" y="82" on="1"/>
        <pt x="456" y="82" on="0"/>
        <pt x="485" y="88" on="0"/>
        <pt x="506" y="95" on="1"/>
        <pt x="516" y="41" on="1"/>
        <pt x="470" y="14" on="0"/>
        <pt x="404" y="-11" on="0"/>
        <pt x="381" y="-11" on="1"/>
        <pt x="350" y="-11" on="0"/>
        <pt x="324" y="32" on="0"/>
      </contour>
    </TTGlyph>
    <TTGlyph name="amacron" xMin="40" yMin="-12" xMax="559" yMax="699">
      <contour>
        <pt x="559" y="699" on="1"/>
        <pt x="542" y="610" on="1"/>
        <pt x="196" y="610" on="1"/>
        <pt x="214" y="699" on="1"/>
      </contour>
      <contour>
        <pt x="202" y="89" on="1"/>
        <pt x="227" y="89" on="0"/>
        <pt x="299" y="130" on="0"/>
        <pt x="332" y="161" on="1"/>
        <pt x="336" y="179" on="0"/>
        <pt x="347" y="238" on="0"/>
        <pt x="361" y="304" on="0"/>
        <pt x="374" y="374" on="0"/>
        <pt x="379" y="402" on="1"/>
        <pt x="354" y="410" on="0"/>
        <pt x="309" y="418" on="0"/>
        <pt x="294" y="418" on="1"/>
        <pt x="265" y="418" on="0"/>
        <pt x="211" y="373" on="0"/>
        <pt x="172" y="303" on="0"/>
        <pt x="148" y="213" on="0"/>
        <pt x="148" y="169" on="1"/>
        <pt x="148" y="126" on="0"/>
        <pt x="180" y="89" on="0"/>
      </contour>
      <contour>
        <pt x="324" y="70" on="1"/>
        <pt x="324" y="74" on="0"/>
        <pt x="324" y="85" on="0"/>
        <pt x="325" y="90" on="1"/>
        <pt x="282" y="48" on="0"/>
        <pt x="185" y="-12" on="0"/>
        <pt x="145" y="-12" on="1"/>
        <pt x="100" y="-12" on="0"/>
        <pt x="40" y="65" on="0"/>
        <pt x="40" y="143" on="1"/>
        <pt x="40" y="212" on="0"/>
        <pt x="84" y="344" on="0"/>
        <pt x="164" y="446" on="0"/>
        <pt x="279" y="508" on="0"/>
        <pt x="350" y="508" on="1"/>
        <pt x="384" y="508" on="0"/>
        <pt x="460" y="497" on="0"/>
        <pt x="499" y="486" on="1"/>
        <pt x="431" y="134" on="1"/>
        <pt x="429" y="124" on="0"/>
        <pt x="427" y="108" on="0"/>
        <pt x="427" y="102" on="1"/>
        <pt x="427" y="92" on="0"/>
        <pt x="436" y="82" on="0"/>
        <pt x="446" y="82" on="1"/>
        <pt x="456" y="82" on="0"/>
        <pt x="485" y="88" on="0"/>
        <pt x="506" y="95" on="1"/>
        <pt x="516" y="41" on="1"/>
        <pt x="470" y="14" on="0"/>
        <pt x="404" y="-11" on="0"/>
        <pt x="381" y="-11" on="1"/>
        <pt x="350" y="-11" on="0"/>
        <pt x="324" y="32" on="0"/>
      </contour>
    </TTGlyph>
    <TTGlyph name="ampersand" xMin="14" yMin="-20" xMax="537" yMax="640">
      <contour>
        <pt x="437" y="-20" on="1"/>
        <pt x="412" y="8" on="0"/>
        <pt x="365" y="67" on="0"/>
        <pt x="345" y="95" on="1"/>
        <pt x="290" y="43" on="0"/>
        <pt x="185" y="-9" on="0"/>
        <pt x="137" y="-9" on="1"/>
        <pt x="77" y="-9" on="0"/>
        <pt x="14" y="61" on="0"/>
        <pt x="14" y="119" on="1"/>
        <pt x="14" y="188" on="0"/>
        <pt x="109" y="341" on="0"/>
        <pt x="208" y="421" on="1"/>
        <pt x="207" y="428" on="0"/>
        <pt x="207" y="442" on="0"/>
        <pt x="207" y="449" on="1"/>
        <pt x="207" y="492" on="0"/>
        <pt x="231" y="562" on="0"/>
        <pt x="269" y="612" on="0"/>
        <pt x="316" y="640" on="0"/>
        <pt x="339" y="640" on="1"/>
        <pt x="372" y="640" on="0"/>
        <pt x="413" y="606" on="0"/>
        <pt x="413" y="576" on="1"/>
        <pt x="413" y="541" on="0"/>
        <pt x="361" y="449" on="0"/>
        <pt x="314" y="404" on="1"/>
        <pt x="321" y="367" on="0"/>
        <pt x="350" y="290" on="0"/>
        <pt x="372" y="250" on="1"/>
        <pt x="391" y="278" on="0"/>
        <pt x="430" y="344" on="0"/>
        <pt x="449" y="382" on="1"/>
        <pt x="537" y="351" on="1"/>
        <pt x="507" y="300" on="0"/>
        <pt x="448" y="213" on="0"/>
        <pt x="419" y="177" on="1"/>
        <pt x="441" y="145" on="0"/>
        <pt x="495" y="79" on="0"/>
        <pt x="526" y="45" on="1"/>
      </contour>
      <contour>
        <pt x="170" y="86" on="1"/>
        <pt x="195" y="86" on="0"/>
        <pt x="262" y="121" on="0"/>
        <pt x="301" y="161" on="1"/>
        <pt x="276" y="204" on="0"/>
        <pt x="237" y="288" on="0"/>
        <pt x="226" y="329" on="1"/>
        <pt x="175" y="278" on="0"/>
        <pt x="118" y="185" on="0"/>
        <pt x="118" y="145" on="1"/>
        <pt x="118" y="116" on="0"/>
        <pt x="146" y="86" on="0"/>
      </contour>
    </TTGlyph>
    <TTGlyph name="aogonek" xMin="40" yMin="-210" xMax="516" yMax="508">
      <contour>
        <pt x="316" y="-210" on="1"/>
        <pt x="270" y="-210" on="0"/>
        <pt x="221" y="-168" on="0"/>
        <pt x="221" y="-138" on="1"/>
        <pt x="221" y="-104" on="0"/>
        <pt x="280" y="-30" on="0"/>
        <pt x="351" y="10" on="1"/>
        <pt x="337" y="17" on="0"/>
        <pt x="324" y="49" on="0"/>
        <pt x="324" y="74" on="1"/>
        <pt x="324" y="78" on="0"/>
        <pt x="324" y="86" on="0"/>
        <pt x="325" y="90" on="1"/>
        <pt x="282" y="48" on="0"/>
        <pt x="185" y="-12" on="0"/>
        <pt x="145" y="-12" on="1"/>
        <pt x="100" y="-12" on="0"/>
        <pt x="40" y="65" on="0"/>
        <pt x="40" y="143" on="1"/>
        <pt x="40" y="212" on="0"/>
        <pt x="84" y="344" on="0"/>
        <pt x="164" y="446" on="0"/>
        <pt x="279" y="508" on="0"/>
        <pt x="350" y="508" on="1"/>
        <pt x="384" y="508" on="0"/>
        <pt x="460" y="497" on="0"/>
        <pt x="499" y="486" on="1"/>
        <pt x="431" y="134" on="1"/>
        <pt x="429" y="124" on="0"/>
        <pt x="427" y="108" on="0"/>
        <pt x="427" y="102" on="1"/>
        <pt x="427" y="92" on="0"/>
        <pt x="436" y="82" on="0"/>
        <pt x="446" y="82" on="1"/>
        <pt x="456" y="82" on="0"/>
        <pt x="485" y="88" on="0"/>
        <pt x="506" y="95" on="1"/>
        <pt x="516" y="41" on="1"/>
        <pt x="406" y="-4" on="0"/>
        <pt x="319" y="-77" on="0"/>
        <pt x="319" y="-105" on="1"/>
        <pt x="319" y="-119" on="0"/>
        <pt x="341" y="-137" on="0"/>
        <pt x="365" y="-137" on="1"/>
        <pt x="381" y="-137" on="0"/>
        <pt x="426" y="-128" on="0"/>
        <pt x="456" y="-118" on="1"/>
        <pt x="465" y="-169" on="1"/>
        <pt x="420" y="-191" on="0"/>
        <pt x="345" y="-210" on="0"/>
      </contour>
      <contour>
        <pt x="202" y="89" on="1"/>
        <pt x="227" y="89" on="0"/>
        <pt x="299" y="130" on="0"/>
        <pt x="332" y="161" on="1"/>
        <pt x="336" y="179" on="0"/>
        <pt x="347" y="238" on="0"/>
        <pt x="361" y="304" on="0"/>
        <pt x="374" y="374" on="0"/>
        <pt x="379" y="402" on="1"/>
        <pt x="354" y="410" on="0"/>
        <pt x="309" y="418" on="0"/>
        <pt x="294" y="418" on="1"/>
        <pt x="265" y="418" on="0"/>
        <pt x="211" y="373" on="0"/>
        <pt x="172" y="303" on="0"/>
        <pt x="148" y="213" on="0"/>
        <pt x="148" y="169" on="1"/>
        <pt x="148" y="126" on="0"/>
        <pt x="180" y="89" on="0"/>
      </contour>
    </TTGlyph>
    <TTGlyph name="approxequal" xMin="26" yMin="94" xMax="537" yMax="504">
      <contour>
        <pt x="375" y="315" on="1"/>
        <pt x="346" y="315" on="0"/>
        <pt x="301" y="345" on="0"/>
        <pt x="266" y="381" on="0"/>
        <pt x="235" y="411" on="0"/>
        <pt x="218" y="411" on="1"/>
        <pt x="199" y="411" on="0"/>
        <pt x="155" y="356" on="0"/>
        <pt x="127" y="313" on="1"/>
        <pt x="69" y="345" on="1"/>
        <pt x="113" y="424" on="0"/>
        <pt x="193" y="504" on="0"/>
        <pt x="241" y="504" on="1"/>
        <pt x="270" y="504" on="0"/>
        <pt x="313" y="474" on="0"/>
        <pt x="347" y="438" on="0"/>
        <pt x="376" y="408" on="0"/>
        <pt x="392" y="408" on="1"/>
        <pt x="411" y="408" on="0"/>
        <pt x="452" y="459" on="0"/>
        <pt x="478" y="500" on="1"/>
        <pt x="537" y="468" on="1"/>
        <pt x="494" y="390" on="0"/>
        <pt x="421" y="315" on="0"/>
      </contour>
      <contour>
        <pt x="332" y="95" on="1"/>
        <pt x="303" y="95" on="0"/>
        <pt x="259" y="125" on="0"/>
        <pt x="224" y="161" on="0"/>
        <pt x="193" y="191" on="0"/>
        <pt x="176" y="191" on="1"/>
        <pt x="157" y="191" on="0"/>
        <pt x="114" y="137" on="0"/>
        <pt x="86" y="94" on="1"/>
        <pt x="26" y="125" on="1"/>
        <pt x="70" y="203" on="0"/>
        <pt x="151" y="284" on="0"/>
        <pt x="200" y="284" on="1"/>
        <pt x="229" y="284" on="0"/>
        <pt x="271" y="254" on="0"/>
        <pt x="305" y="218" on="0"/>
        <pt x="334" y="188" on="0"/>
        <pt x="350" y="188" on="1"/>
        <pt x="369" y="188" on="0"/>
        <pt x="410" y="239" on="0"/>
        <pt x="436" y="280" on="1"/>
        <pt x="495" y="248" on="1"/>
        <pt x="451" y="170" on="0"/>
        <pt x="378" y="95" on="0"/>
      </contour>
    </TTGlyph>
    <TTGlyph name="aring" xMin="40" yMin="-12" xMax="516" yMax="775">
      <contour>
        <pt x="390" y="775" on="1"/>
        <pt x="446" y="775" on="0"/>
        <pt x="514" y="716" on="0"/>
        <pt x="514" y="676" on="1"/>
        <pt x="514" y="630" on="0"/>
        <pt x="433" y="561" on="0"/>
        <pt x="371" y="561" on="1"/>
        <pt x="314" y="561" on="0"/>
        <pt x="246" y="620" on="0"/>
        <pt x="246" y="661" on="1"/>
        <pt x="246" y="707" on="0"/>
        <pt x="327" y="775" on="0"/>
      </contour>
      <contour>
        <pt x="202" y="89" on="1"/>
        <pt x="227" y="89" on="0"/>
        <pt x="299" y="130" on="0"/>
        <pt x="332" y="161" on="1"/>
        <pt x="336" y="179" on="0"/>
        <pt x="347" y="238" on="0"/>
        <pt x="361" y="304" on="0"/>
        <pt x="374" y="374" on="0"/>
        <pt x="379" y="402" on="1"/>
        <pt x="354" y="410" on="0"/>
        <pt x="309" y="418" on="0"/>
        <pt x="294" y="418" on="1"/>
        <pt x="265" y="418" on="0"/>
        <pt x="211" y="373" on="0"/>
        <pt x="172" y="303" on="0"/>
        <pt x="148" y="213" on="0"/>
        <pt x="148" y="169" on="1"/>
        <pt x="148" y="126" on="0"/>
        <pt x="180" y="89" on="0"/>
      </contour>
      <contour>
        <pt x="324" y="70" on="1"/>
        <pt x="324" y="74" on="0"/>
        <pt x="324" y="85" on="0"/>
        <pt x="325" y="90" on="1"/>
        <pt x="282" y="48" on="0"/>
        <pt x="185" y="-12" on="0"/>
        <pt x="145" y="-12" on="1"/>
        <pt x="100" y="-12" on="0"/>
        <pt x="40" y="65" on="0"/>
        <pt x="40" y="143" on="1"/>
        <pt x="40" y="212" on="0"/>
        <pt x="84" y="344" on="0"/>
        <pt x="164" y="446" on="0"/>
        <pt x="279" y="508" on="0"/>
        <pt x="350" y="508" on="1"/>
        <pt x="384" y="508" on="0"/>
        <pt x="460" y="497" on="0"/>
        <pt x="499" y="486" on="1"/>
        <pt x="431" y="134" on="1"/>
        <pt x="429" y="124" on="0"/>
        <pt x="427" y="108" on="0"/>
        <pt x="427" y="102" on="1"/>
        <pt x="427" y="92" on="0"/>
        <pt x="436" y="82" on="0"/>
        <pt x="446" y="82" on="1"/>
        <pt x="456" y="82" on="0"/>
        <pt x="485" y="88" on="0"/>
        <pt x="506" y="95" on="1"/>
        <pt x="516" y="41" on="1"/>
        <pt x="470" y="14" on="0"/>
        <pt x="404" y="-11" on="0"/>
        <pt x="381" y="-11" on="1"/>
        <pt x="350" y="-11" on="0"/>
        <pt x="324" y="32" on="0"/>
      </contour>
    </TTGlyph>
    <TTGlyph name="aringacute" xMin="40" yMin="-12" xMax="581" yMax="1026">
      <contour>
        <pt x="284" y="858" on="1"/>
        <pt x="308" y="872" on="0"/>
        <pt x="368" y="912" on="0"/>
        <pt x="429" y="957" on="0"/>
        <pt x="488" y="1005" on="0"/>
        <pt x="511" y="1026" on="1"/>
        <pt x="581" y="942" on="1"/>
        <pt x="554" y="923" on="0"/>
        <pt x="482" y="884" on="0"/>
        <pt x="407" y="850" on="0"/>
        <pt x="333" y="821" on="0"/>
        <pt x="304" y="811" on="1"/>
      </contour>
      <contour>
        <pt x="390" y="775" on="1"/>
        <pt x="446" y="775" on="0"/>
        <pt x="514" y="716" on="0"/>
        <pt x="514" y="676" on="1"/>
        <pt x="514" y="630" on="0"/>
        <pt x="433" y="561" on="0"/>
        <pt x="371" y="561" on="1"/>
        <pt x="314" y="561" on="0"/>
        <pt x="246" y="620" on="0"/>
        <pt x="246" y="661" on="1"/>
        <pt x="246" y="707" on="0"/>
        <pt x="327" y="775" on="0"/>
      </contour>
      <contour>
        <pt x="202" y="89" on="1"/>
        <pt x="227" y="89" on="0"/>
        <pt x="299" y="130" on="0"/>
        <pt x="332" y="161" on="1"/>
        <pt x="336" y="179" on="0"/>
        <pt x="347" y="238" on="0"/>
        <pt x="361" y="304" on="0"/>
        <pt x="374" y="374" on="0"/>
        <pt x="379" y="402" on="1"/>
        <pt x="354" y="410" on="0"/>
        <pt x="309" y="418" on="0"/>
        <pt x="294" y="418" on="1"/>
        <pt x="265" y="418" on="0"/>
        <pt x="211" y="373" on="0"/>
        <pt x="172" y="303" on="0"/>
        <pt x="148" y="213" on="0"/>
        <pt x="148" y="169" on="1"/>
        <pt x="148" y="126" on="0"/>
        <pt x="180" y="89" on="0"/>
      </contour>
      <contour>
        <pt x="324" y="70" on="1"/>
        <pt x="324" y="74" on="0"/>
        <pt x="324" y="85" on="0"/>
        <pt x="325" y="90" on="1"/>
        <pt x="282" y="48" on="0"/>
        <pt x="185" y="-12" on="0"/>
        <pt x="145" y="-12" on="1"/>
        <pt x="100" y="-12" on="0"/>
        <pt x="40" y="65" on="0"/>
        <pt x="40" y="143" on="1"/>
        <pt x="40" y="212" on="0"/>
        <pt x="84" y="344" on="0"/>
        <pt x="164" y="446" on="0"/>
        <pt x="279" y="508" on="0"/>
        <pt x="350" y="508" on="1"/>
        <pt x="384" y="508" on="0"/>
        <pt x="460" y="497" on="0"/>
        <pt x="499" y="486" on="1"/>
        <pt x="431" y="134" on="1"/>
        <pt x="429" y="124" on="0"/>
        <pt x="427" y="108" on="0"/>
        <pt x="427" y="102" on="1"/>
        <pt x="427" y="92" on="0"/>
        <pt x="436" y="82" on="0"/>
        <pt x="446" y="82" on="1"/>
        <pt x="456" y="82" on="0"/>
        <pt x="485" y="88" on="0"/>
        <pt x="506" y="95" on="1"/>
        <pt x="516" y="41" on="1"/>
        <pt x="470" y="14" on="0"/>
        <pt x="404" y="-11" on="0"/>
        <pt x="381" y="-11" on="1"/>
        <pt x="350" y="-11" on="0"/>
        <pt x="324" y="32" on="0"/>
      </contour>
    </TTGlyph>
    <TTGlyph name="asciicircum" xMin="44" yMin="147" xMax="509" yMax="503">
      <contour>
        <pt x="423" y="148" on="1"/>
        <pt x="292" y="361" on="1"/>
        <pt x="111" y="147" on="1"/>
        <pt x="44" y="204" on="1"/>
        <pt x="299" y="500" on="1"/>
        <pt x="320" y="503" on="1"/>
        <pt x="509" y="203" on="1"/>
      </contour>
    </TTGlyph>
    <TTGlyph name="asciitilde" xMin="31" yMin="191" xMax="546" yMax="419">
      <contour>
        <pt x="374" y="191" on="1"/>
        <pt x="343" y="191" on="0"/>
        <pt x="290" y="231" on="0"/>
        <pt x="245" y="280" on="0"/>
        <pt x="206" y="320" on="0"/>
        <pt x="189" y="320" on="1"/>
        <pt x="169" y="320" on="0"/>
        <pt x="122" y="250" on="0"/>
        <pt x="97" y="196" on="1"/>
        <pt x="31" y="225" on="1"/>
        <pt x="70" y="315" on="0"/>
        <pt x="158" y="419" on="0"/>
        <pt x="207" y="419" on="1"/>
        <pt x="237" y="419" on="0"/>
        <pt x="289" y="379" on="0"/>
        <pt x="332" y="330" on="0"/>
        <pt x="370" y="290" on="0"/>
        <pt x="387" y="290" on="1"/>
        <pt x="406" y="290" on="0"/>
        <pt x="455" y="360" on="0"/>
        <pt x="480" y="414" on="1"/>
        <pt x="546" y="385" on="1"/>
        <pt x="505" y="292" on="0"/>
        <pt x="423" y="191" on="0"/>
      </contour>
    </TTGlyph>
    <TTGlyph name="asterisk" xMin="97" yMin="232" xMax="545" yMax="696">
      <contour>
        <pt x="358" y="232" on="1"/>
        <pt x="285" y="367" on="1"/>
        <pt x="150" y="293" on="1"/>
        <pt x="107" y="347" on="1"/>
        <pt x="212" y="457" on="1"/>
        <pt x="97" y="564" on="1"/>
        <pt x="137" y="622" on="1"/>
        <pt x="274" y="555" on="1"/>
        <pt x="339" y="696" on="1"/>
        <pt x="408" y="677" on="1"/>
        <pt x="389" y="524" on="1"/>
        <pt x="542" y="506" on="1"/>
        <pt x="545" y="438" on="1"/>
        <pt x="392" y="408" on="1"/>
        <pt x="423" y="258" on="1"/>
      </contour>
    </TTGlyph>
    <TTGlyph name="asterisk.alt" xMin="78" yMin="227" xMax="548" yMax="700">
      <contour>
        <pt x="360" y="537" on="1"/>
        <pt x="308" y="549" on="1"/>
        <pt x="323" y="700" on="1"/>
        <pt x="418" y="675" on="1"/>
      </contour>
      <contour>
        <pt x="274" y="542" on="1"/>
        <pt x="237" y="502" on="1"/>
        <pt x="114" y="590" on="1"/>
        <pt x="183" y="660" on="1"/>
      </contour>
      <contour>
        <pt x="400" y="458" on="1"/>
        <pt x="383" y="512" on="1"/>
        <pt x="522" y="574" on="1"/>
        <pt x="548" y="479" on="1"/>
      </contour>
      <contour>
        <pt x="226" y="470" on="1"/>
        <pt x="243" y="416" on="1"/>
        <pt x="104" y="354" on="1"/>
        <pt x="78" y="449" on="1"/>
      </contour>
      <contour>
        <pt x="353" y="386" on="1"/>
        <pt x="390" y="426" on="1"/>
        <pt x="514" y="338" on="1"/>
        <pt x="445" y="268" on="1"/>
      </contour>
      <contour>
        <pt x="266" y="391" on="1"/>
        <pt x="318" y="378" on="1"/>
        <pt x="305" y="227" on="1"/>
        <pt x="209" y="252" on="1"/>
      </contour>
    </TTGlyph>
    <TTGlyph name="at" xMin="37" yMin="-157" xMax="563" yMax="685">
      <contour>
        <pt x="300" y="-157" on="1"/>
        <pt x="160" y="-157" on="0"/>
        <pt x="37" y="-1" on="0"/>
        <pt x="37" y="133" on="1"/>
        <pt x="37" y="237" on="0"/>
        <pt x="95" y="437" on="0"/>
        <pt x="195" y="591" on="0"/>
        <pt x="332" y="685" on="0"/>
        <pt x="410" y="685" on="1"/>
        <pt x="485" y="685" on="0"/>
        <pt x="563" y="599" on="0"/>
        <pt x="563" y="518" on="1"/>
        <pt x="563" y="497" on="0"/>
        <pt x="558" y="450" on="0"/>
        <pt x="553" y="425" on="1"/>
        <pt x="515" y="238" on="1"/>
        <pt x="508" y="200" on="0"/>
        <pt x="493" y="111" on="0"/>
        <pt x="486" y="65" on="1"/>
        <pt x="396" y="66" on="1"/>
        <pt x="402" y="118" on="1"/>
        <pt x="374" y="92" on="0"/>
        <pt x="315" y="57" on="0"/>
        <pt x="289" y="57" on="1"/>
        <pt x="257" y="57" on="0"/>
        <pt x="215" y="119" on="0"/>
        <pt x="215" y="182" on="1"/>
        <pt x="215" y="235" on="0"/>
        <pt x="244" y="343" on="0"/>
        <pt x="298" y="428" on="0"/>
        <pt x="378" y="482" on="0"/>
        <pt x="428" y="482" on="1"/>
        <pt x="437" y="482" on="0"/>
        <pt x="458" y="480" on="0"/>
        <pt x="468" y="479" on="1"/>
        <pt x="469" y="489" on="0"/>
        <pt x="471" y="507" on="0"/>
        <pt x="471" y="515" on="1"/>
        <pt x="471" y="558" on="0"/>
        <pt x="434" y="604" on="0"/>
        <pt x="394" y="604" on="1"/>
        <pt x="344" y="604" on="0"/>
        <pt x="248" y="527" on="0"/>
        <pt x="173" y="399" on="0"/>
        <pt x="126" y="231" on="0"/>
        <pt x="126" y="141" on="1"/>
        <pt x="126" y="36" on="0"/>
        <pt x="214" y="-74" on="0"/>
        <pt x="318" y="-74" on="1"/>
        <pt x="342" y="-74" on="0"/>
        <pt x="397" y="-68" on="0"/>
        <pt x="428" y="-62" on="1"/>
        <pt x="415" y="-145" on="1"/>
        <pt x="384" y="-151" on="0"/>
        <pt x="326" y="-157" on="0"/>
      </contour>
      <contour>
        <pt x="338" y="146" on="1"/>
        <pt x="351" y="146" on="0"/>
        <pt x="391" y="163" on="0"/>
        <pt x="410" y="179" on="1"/>
        <pt x="451" y="390" on="1"/>
        <pt x="435" y="396" on="0"/>
        <pt x="404" y="402" on="0"/>
        <pt x="395" y="402" on="1"/>
        <pt x="379" y="402" on="0"/>
        <pt x="347" y="364" on="0"/>
        <pt x="322" y="306" on="0"/>
        <pt x="306" y="237" on="0"/>
        <pt x="306" y="206" on="1"/>
        <pt x="306" y="175" on="0"/>
        <pt x="325" y="146" on="0"/>
      </contour>
    </TTGlyph>
    <TTGlyph name="atilde" xMin="40" yMin="-12" xMax="594" yMax="752">
      <contour>
        <pt x="458" y="660" on="1"/>
        <pt x="474" y="660" on="0"/>
        <pt x="516" y="706" on="0"/>
        <pt x="542" y="746" on="1"/>
        <pt x="594" y="716" on="1"/>
        <pt x="557" y="655" on="0"/>
        <pt x="477" y="578" on="0"/>
        <pt x="437" y="578" on="1"/>
        <pt x="412" y="578" on="0"/>
        <pt x="374" y="607" on="0"/>
        <pt x="342" y="642" on="0"/>
        <pt x="314" y="671" on="0"/>
        <pt x="301" y="671" on="1"/>
        <pt x="285" y="671" on="0"/>
        <pt x="243" y="626" on="0"/>
        <pt x="218" y="586" on="1"/>
        <pt x="165" y="616" on="1"/>
        <pt x="201" y="677" on="0"/>
        <pt x="282" y="752" on="0"/>
        <pt x="322" y="752" on="1"/>
        <pt x="347" y="752" on="0"/>
        <pt x="385" y="723" on="0"/>
        <pt x="417" y="689" on="0"/>
        <pt x="444" y="660" on="0"/>
      </contour>
      <contour>
        <pt x="202" y="89" on="1"/>
        <pt x="227" y="89" on="0"/>
        <pt x="299" y="130" on="0"/>
        <pt x="332" y="161" on="1"/>
        <pt x="336" y="179" on="0"/>
        <pt x="347" y="238" on="0"/>
        <pt x="361" y="304" on="0"/>
        <pt x="374" y="374" on="0"/>
        <pt x="379" y="402" on="1"/>
        <pt x="354" y="410" on="0"/>
        <pt x="309" y="418" on="0"/>
        <pt x="294" y="418" on="1"/>
        <pt x="265" y="418" on="0"/>
        <pt x="211" y="373" on="0"/>
        <pt x="172" y="303" on="0"/>
        <pt x="148" y="213" on="0"/>
        <pt x="148" y="169" on="1"/>
        <pt x="148" y="126" on="0"/>
        <pt x="180" y="89" on="0"/>
      </contour>
      <contour>
        <pt x="324" y="70" on="1"/>
        <pt x="324" y="74" on="0"/>
        <pt x="324" y="85" on="0"/>
        <pt x="325" y="90" on="1"/>
        <pt x="282" y="48" on="0"/>
        <pt x="185" y="-12" on="0"/>
        <pt x="145" y="-12" on="1"/>
        <pt x="100" y="-12" on="0"/>
        <pt x="40" y="65" on="0"/>
        <pt x="40" y="143" on="1"/>
        <pt x="40" y="212" on="0"/>
        <pt x="84" y="344" on="0"/>
        <pt x="164" y="446" on="0"/>
        <pt x="279" y="508" on="0"/>
        <pt x="350" y="508" on="1"/>
        <pt x="384" y="508" on="0"/>
        <pt x="460" y="497" on="0"/>
        <pt x="499" y="486" on="1"/>
        <pt x="431" y="134" on="1"/>
        <pt x="429" y="124" on="0"/>
        <pt x="427" y="108" on="0"/>
        <pt x="427" y="102" on="1"/>
        <pt x="427" y="92" on="0"/>
        <pt x="436" y="82" on="0"/>
        <pt x="446" y="82" on="1"/>
        <pt x="456" y="82" on="0"/>
        <pt x="485" y="88" on="0"/>
        <pt x="506" y="95" on="1"/>
        <pt x="516" y="41" on="1"/>
        <pt x="470" y="14" on="0"/>
        <pt x="404" y="-11" on="0"/>
        <pt x="381" y="-11" on="1"/>
        <pt x="350" y="-11" on="0"/>
        <pt x="324" y="32" on="0"/>
      </contour>
    </TTGlyph>
    <TTGlyph name="b" xMin="43" yMin="-12" xMax="509" yMax="705">
      <contour>
        <pt x="200" y="-12" on="1"/>
        <pt x="163" y="-12" on="0"/>
        <pt x="78" y="5" on="0"/>
        <pt x="43" y="16" on="1"/>
        <pt x="175" y="697" on="1"/>
        <pt x="282" y="705" on="1"/>
        <pt x="226" y="418" on="1"/>
        <pt x="268" y="458" on="0"/>
        <pt x="359" y="512" on="0"/>
        <pt x="399" y="512" on="1"/>
        <pt x="446" y="512" on="0"/>
        <pt x="509" y="428" on="0"/>
        <pt x="509" y="344" on="1"/>
        <pt x="509" y="277" on="0"/>
        <pt x="465" y="148" on="0"/>
        <pt x="385" y="49" on="0"/>
        <pt x="271" y="-12" on="0"/>
      </contour>
      <contour>
        <pt x="254" y="79" on="1"/>
        <pt x="284" y="79" on="0"/>
        <pt x="338" y="121" on="0"/>
        <pt x="379" y="189" on="0"/>
        <pt x="403" y="274" on="0"/>
        <pt x="403" y="317" on="1"/>
        <pt x="403" y="367" on="0"/>
        <pt x="367" y="413" on="0"/>
        <pt x="343" y="413" on="1"/>
        <pt x="315" y="413" on="0"/>
        <pt x="243" y="369" on="0"/>
        <pt x="211" y="338" on="1"/>
        <pt x="164" y="95" on="1"/>
        <pt x="190" y="87" on="0"/>
        <pt x="238" y="79" on="0"/>
      </contour>
    </TTGlyph>
    <TTGlyph name="backslash" xMin="95" yMin="-193" xMax="455" yMax="727">
      <contour>
        <pt x="184" y="727" on="1"/>
        <pt x="455" y="-164" on="1"/>
        <pt x="365" y="-193" on="1"/>
        <pt x="95" y="699" on="1"/>
      </contour>
    </TTGlyph>
</ttFont>
